<mxfile host="Electron" modified="2024-04-13T11:08:15.566Z" agent="Mozilla/5.0 (X11; Linux x86_64) AppleWebKit/537.36 (KHTML, like Gecko) draw.io/24.0.4 Chrome/120.0.6099.109 Electron/28.1.0 Safari/537.36" etag="wLk5CVB16vZw0H6WxEeF" version="24.0.4" type="device">
  <diagram name="Page-1" id="Xt6yZtAhdSvrS4vlNvyd">
    <mxGraphModel dx="1434" dy="822" grid="1" gridSize="10" guides="1" tooltips="1" connect="1" arrows="1" fold="1" page="1" pageScale="1" pageWidth="1654" pageHeight="1169" math="0" shadow="0">
      <root>
        <mxCell id="0" />
        <mxCell id="1" parent="0" />
        <mxCell id="S4qOi2kV9IJ2QXHu5ZDw-28" value="" style="rounded=0;whiteSpace=wrap;html=1;fillStyle=auto;fillColor=none;strokeColor=#82b366;dashed=1;strokeWidth=5;" parent="1" vertex="1">
          <mxGeometry x="40" y="240" width="720" height="560" as="geometry" />
        </mxCell>
        <mxCell id="S4qOi2kV9IJ2QXHu5ZDw-2" value="2.4GHz&lt;div&gt;Radio&lt;/div&gt;&lt;div&gt;(nRF 24L01)&lt;/div&gt;" style="rounded=0;whiteSpace=wrap;html=1;" parent="1" vertex="1">
          <mxGeometry x="600" y="400" width="120" height="120" as="geometry" />
        </mxCell>
        <mxCell id="S4qOi2kV9IJ2QXHu5ZDw-18" value="" style="edgeStyle=orthogonalEdgeStyle;rounded=0;orthogonalLoop=1;jettySize=auto;html=1;" parent="1" source="S4qOi2kV9IJ2QXHu5ZDw-4" target="S4qOi2kV9IJ2QXHu5ZDw-16" edge="1">
          <mxGeometry relative="1" as="geometry" />
        </mxCell>
        <mxCell id="S4qOi2kV9IJ2QXHu5ZDw-4" value="Motor Controller&lt;div&gt;(1)&lt;/div&gt;" style="rounded=0;whiteSpace=wrap;html=1;" parent="1" vertex="1">
          <mxGeometry x="160" y="400" width="120" height="40" as="geometry" />
        </mxCell>
        <mxCell id="S4qOi2kV9IJ2QXHu5ZDw-17" value="" style="edgeStyle=orthogonalEdgeStyle;rounded=0;orthogonalLoop=1;jettySize=auto;html=1;" parent="1" source="S4qOi2kV9IJ2QXHu5ZDw-5" target="S4qOi2kV9IJ2QXHu5ZDw-15" edge="1">
          <mxGeometry relative="1" as="geometry" />
        </mxCell>
        <mxCell id="S4qOi2kV9IJ2QXHu5ZDw-5" value="Motor Controller&lt;div&gt;(2)&lt;/div&gt;" style="rounded=0;whiteSpace=wrap;html=1;" parent="1" vertex="1">
          <mxGeometry x="160" y="480" width="120" height="40" as="geometry" />
        </mxCell>
        <mxCell id="S4qOi2kV9IJ2QXHu5ZDw-22" style="edgeStyle=orthogonalEdgeStyle;rounded=0;orthogonalLoop=1;jettySize=auto;html=1;entryX=0.5;entryY=0;entryDx=0;entryDy=0;" parent="1" source="S4qOi2kV9IJ2QXHu5ZDw-6" target="S4qOi2kV9IJ2QXHu5ZDw-19" edge="1">
          <mxGeometry relative="1" as="geometry" />
        </mxCell>
        <mxCell id="S4qOi2kV9IJ2QXHu5ZDw-23" style="edgeStyle=orthogonalEdgeStyle;rounded=0;orthogonalLoop=1;jettySize=auto;html=1;entryX=0.5;entryY=0;entryDx=0;entryDy=0;" parent="1" source="S4qOi2kV9IJ2QXHu5ZDw-6" target="S4qOi2kV9IJ2QXHu5ZDw-20" edge="1">
          <mxGeometry relative="1" as="geometry">
            <Array as="points">
              <mxPoint x="460" y="540" />
              <mxPoint x="90" y="540" />
            </Array>
          </mxGeometry>
        </mxCell>
        <mxCell id="S4qOi2kV9IJ2QXHu5ZDw-32" value="" style="edgeStyle=orthogonalEdgeStyle;rounded=0;orthogonalLoop=1;jettySize=auto;html=1;" parent="1" source="S4qOi2kV9IJ2QXHu5ZDw-6" target="S4qOi2kV9IJ2QXHu5ZDw-31" edge="1">
          <mxGeometry relative="1" as="geometry" />
        </mxCell>
        <mxCell id="S4qOi2kV9IJ2QXHu5ZDw-6" value="ASV Control Unit&lt;div&gt;(Arduino Nano BLE 33)&lt;/div&gt;" style="rounded=0;whiteSpace=wrap;html=1;" parent="1" vertex="1">
          <mxGeometry x="400" y="400" width="120" height="120" as="geometry" />
        </mxCell>
        <mxCell id="S4qOi2kV9IJ2QXHu5ZDw-7" value="2.4GHz&lt;div&gt;Radio&lt;/div&gt;&lt;div&gt;(nRF 24L01)&lt;/div&gt;" style="rounded=0;whiteSpace=wrap;html=1;" parent="1" vertex="1">
          <mxGeometry x="880" y="400" width="120" height="120" as="geometry" />
        </mxCell>
        <mxCell id="S4qOi2kV9IJ2QXHu5ZDw-9" value="" style="edgeStyle=orthogonalEdgeStyle;rounded=0;orthogonalLoop=1;jettySize=auto;html=1;" parent="1" source="S4qOi2kV9IJ2QXHu5ZDw-8" target="S4qOi2kV9IJ2QXHu5ZDw-6" edge="1">
          <mxGeometry relative="1" as="geometry" />
        </mxCell>
        <mxCell id="S4qOi2kV9IJ2QXHu5ZDw-8" value="GPS Module&lt;div&gt;(Ublox M9N)&lt;/div&gt;" style="rounded=0;whiteSpace=wrap;html=1;" parent="1" vertex="1">
          <mxGeometry x="400" y="320" width="120" height="40" as="geometry" />
        </mxCell>
        <mxCell id="S4qOi2kV9IJ2QXHu5ZDw-12" value="" style="endArrow=classic;startArrow=classic;html=1;rounded=0;exitX=1;exitY=0.5;exitDx=0;exitDy=0;entryX=0;entryY=0.5;entryDx=0;entryDy=0;" parent="1" source="S4qOi2kV9IJ2QXHu5ZDw-6" target="S4qOi2kV9IJ2QXHu5ZDw-2" edge="1">
          <mxGeometry width="50" height="50" relative="1" as="geometry">
            <mxPoint x="590" y="460" as="sourcePoint" />
            <mxPoint x="640" y="410" as="targetPoint" />
          </mxGeometry>
        </mxCell>
        <mxCell id="S4qOi2kV9IJ2QXHu5ZDw-13" value="TX / RX" style="edgeLabel;html=1;align=center;verticalAlign=middle;resizable=0;points=[];" parent="S4qOi2kV9IJ2QXHu5ZDw-12" vertex="1" connectable="0">
          <mxGeometry x="0.056" y="-2" relative="1" as="geometry">
            <mxPoint as="offset" />
          </mxGeometry>
        </mxCell>
        <mxCell id="S4qOi2kV9IJ2QXHu5ZDw-15" value="Motor 2" style="ellipse;whiteSpace=wrap;html=1;aspect=fixed;" parent="1" vertex="1">
          <mxGeometry x="60" y="470" width="60" height="60" as="geometry" />
        </mxCell>
        <mxCell id="S4qOi2kV9IJ2QXHu5ZDw-16" value="Motor 1" style="ellipse;whiteSpace=wrap;html=1;aspect=fixed;" parent="1" vertex="1">
          <mxGeometry x="60" y="390" width="60" height="60" as="geometry" />
        </mxCell>
        <mxCell id="S4qOi2kV9IJ2QXHu5ZDw-19" value="Sensor Tube&lt;div&gt;(Temperature, turbidity, pH)&lt;/div&gt;" style="rounded=0;whiteSpace=wrap;html=1;" parent="1" vertex="1">
          <mxGeometry x="160" y="560" width="360" height="80" as="geometry" />
        </mxCell>
        <mxCell id="S4qOi2kV9IJ2QXHu5ZDw-21" value="" style="edgeStyle=orthogonalEdgeStyle;rounded=0;orthogonalLoop=1;jettySize=auto;html=1;" parent="1" source="S4qOi2kV9IJ2QXHu5ZDw-20" target="S4qOi2kV9IJ2QXHu5ZDw-19" edge="1">
          <mxGeometry relative="1" as="geometry" />
        </mxCell>
        <mxCell id="S4qOi2kV9IJ2QXHu5ZDw-20" value="Pump" style="ellipse;whiteSpace=wrap;html=1;aspect=fixed;" parent="1" vertex="1">
          <mxGeometry x="60" y="570" width="60" height="60" as="geometry" />
        </mxCell>
        <mxCell id="S4qOi2kV9IJ2QXHu5ZDw-25" style="edgeStyle=orthogonalEdgeStyle;rounded=0;orthogonalLoop=1;jettySize=auto;html=1;entryX=0.75;entryY=1;entryDx=0;entryDy=0;" parent="1" source="S4qOi2kV9IJ2QXHu5ZDw-24" target="S4qOi2kV9IJ2QXHu5ZDw-6" edge="1">
          <mxGeometry relative="1" as="geometry" />
        </mxCell>
        <mxCell id="S4qOi2kV9IJ2QXHu5ZDw-24" value="Level Sensor" style="rounded=0;whiteSpace=wrap;html=1;" parent="1" vertex="1">
          <mxGeometry x="520" y="560" width="40" height="80" as="geometry" />
        </mxCell>
        <mxCell id="S4qOi2kV9IJ2QXHu5ZDw-26" value="" style="endArrow=classic;startArrow=classic;html=1;rounded=0;exitX=1;exitY=0.5;exitDx=0;exitDy=0;entryX=0;entryY=0.5;entryDx=0;entryDy=0;" parent="1" source="S4qOi2kV9IJ2QXHu5ZDw-2" target="S4qOi2kV9IJ2QXHu5ZDw-7" edge="1">
          <mxGeometry width="50" height="50" relative="1" as="geometry">
            <mxPoint x="760" y="510" as="sourcePoint" />
            <mxPoint x="800" y="460" as="targetPoint" />
          </mxGeometry>
        </mxCell>
        <mxCell id="S4qOi2kV9IJ2QXHu5ZDw-27" value="2-Way&lt;div&gt;Comms&lt;/div&gt;" style="edgeLabel;html=1;align=center;verticalAlign=middle;resizable=0;points=[];" parent="S4qOi2kV9IJ2QXHu5ZDw-26" vertex="1" connectable="0">
          <mxGeometry x="-0.0988" y="-2" relative="1" as="geometry">
            <mxPoint as="offset" />
          </mxGeometry>
        </mxCell>
        <mxCell id="S4qOi2kV9IJ2QXHu5ZDw-29" value="" style="shape=mxgraph.signs.transportation.ship_2;html=1;pointerEvents=1;fillColor=#000000;strokeColor=none;verticalLabelPosition=bottom;verticalAlign=top;align=center;sketch=0;" parent="1" vertex="1">
          <mxGeometry x="80" y="280" width="80" height="80" as="geometry" />
        </mxCell>
        <mxCell id="S4qOi2kV9IJ2QXHu5ZDw-30" value="&lt;span style=&quot;font-size: 30px;&quot;&gt;ASV Systems&lt;/span&gt;&lt;div&gt;&lt;span style=&quot;font-size: 30px;&quot;&gt;Diagram&lt;/span&gt;&lt;/div&gt;" style="text;html=1;align=center;verticalAlign=middle;whiteSpace=wrap;rounded=0;fillColor=none;strokeColor=none;" parent="1" vertex="1">
          <mxGeometry x="160" y="280" width="200" height="80" as="geometry" />
        </mxCell>
        <mxCell id="S4qOi2kV9IJ2QXHu5ZDw-33" style="edgeStyle=orthogonalEdgeStyle;rounded=0;orthogonalLoop=1;jettySize=auto;html=1;entryX=1;entryY=0.5;entryDx=0;entryDy=0;" parent="1" source="S4qOi2kV9IJ2QXHu5ZDw-31" target="S4qOi2kV9IJ2QXHu5ZDw-4" edge="1">
          <mxGeometry relative="1" as="geometry">
            <Array as="points">
              <mxPoint x="300" y="460" />
              <mxPoint x="300" y="420" />
            </Array>
          </mxGeometry>
        </mxCell>
        <mxCell id="S4qOi2kV9IJ2QXHu5ZDw-31" value="Remote&lt;div&gt;Override&lt;/div&gt;&lt;div&gt;Board&lt;/div&gt;" style="rounded=0;whiteSpace=wrap;html=1;" parent="1" vertex="1">
          <mxGeometry x="310" y="400" width="60" height="120" as="geometry" />
        </mxCell>
        <mxCell id="S4qOi2kV9IJ2QXHu5ZDw-34" style="edgeStyle=orthogonalEdgeStyle;rounded=0;orthogonalLoop=1;jettySize=auto;html=1;entryX=1.022;entryY=0.492;entryDx=0;entryDy=0;entryPerimeter=0;" parent="1" source="S4qOi2kV9IJ2QXHu5ZDw-31" target="S4qOi2kV9IJ2QXHu5ZDw-5" edge="1">
          <mxGeometry relative="1" as="geometry">
            <Array as="points">
              <mxPoint x="300" y="460" />
              <mxPoint x="300" y="500" />
            </Array>
          </mxGeometry>
        </mxCell>
        <mxCell id="S4qOi2kV9IJ2QXHu5ZDw-35" value="Power&lt;div&gt;(7.4V NiMH Battery)&lt;/div&gt;" style="rounded=0;whiteSpace=wrap;html=1;" parent="1" vertex="1">
          <mxGeometry x="600" y="555" width="120" height="125" as="geometry" />
        </mxCell>
        <mxCell id="S4qOi2kV9IJ2QXHu5ZDw-46" style="edgeStyle=orthogonalEdgeStyle;rounded=0;orthogonalLoop=1;jettySize=auto;html=1;entryX=0;entryY=0.5;entryDx=0;entryDy=0;" parent="1" source="S4qOi2kV9IJ2QXHu5ZDw-37" target="S4qOi2kV9IJ2QXHu5ZDw-41" edge="1">
          <mxGeometry relative="1" as="geometry" />
        </mxCell>
        <mxCell id="S4qOi2kV9IJ2QXHu5ZDw-37" value="Base Station Control Unit&lt;div&gt;(Arduino Nano BLE 33)&lt;/div&gt;" style="rounded=0;whiteSpace=wrap;html=1;" parent="1" vertex="1">
          <mxGeometry x="1080" y="400" width="120" height="120" as="geometry" />
        </mxCell>
        <mxCell id="S4qOi2kV9IJ2QXHu5ZDw-38" value="" style="endArrow=classic;startArrow=classic;html=1;rounded=0;exitX=1;exitY=0.5;exitDx=0;exitDy=0;entryX=0;entryY=0.5;entryDx=0;entryDy=0;" parent="1" edge="1">
          <mxGeometry width="50" height="50" relative="1" as="geometry">
            <mxPoint x="1000" y="459.66" as="sourcePoint" />
            <mxPoint x="1080" y="459.66" as="targetPoint" />
          </mxGeometry>
        </mxCell>
        <mxCell id="S4qOi2kV9IJ2QXHu5ZDw-39" value="TX / RX" style="edgeLabel;html=1;align=center;verticalAlign=middle;resizable=0;points=[];" parent="S4qOi2kV9IJ2QXHu5ZDw-38" vertex="1" connectable="0">
          <mxGeometry x="0.056" y="-2" relative="1" as="geometry">
            <mxPoint as="offset" />
          </mxGeometry>
        </mxCell>
        <mxCell id="S4qOi2kV9IJ2QXHu5ZDw-47" value="" style="edgeStyle=orthogonalEdgeStyle;rounded=0;orthogonalLoop=1;jettySize=auto;html=1;" parent="1" source="S4qOi2kV9IJ2QXHu5ZDw-41" target="S4qOi2kV9IJ2QXHu5ZDw-43" edge="1">
          <mxGeometry relative="1" as="geometry" />
        </mxCell>
        <mxCell id="S4qOi2kV9IJ2QXHu5ZDw-41" value="Data Logger&lt;div&gt;(Python)&lt;/div&gt;" style="rounded=0;whiteSpace=wrap;html=1;" parent="1" vertex="1">
          <mxGeometry x="1240" y="330" width="120" height="120" as="geometry" />
        </mxCell>
        <mxCell id="S4qOi2kV9IJ2QXHu5ZDw-43" value="&lt;div&gt;API (Python)&lt;/div&gt;" style="rounded=0;whiteSpace=wrap;html=1;" parent="1" vertex="1">
          <mxGeometry x="1240" y="480" width="120" height="40" as="geometry" />
        </mxCell>
        <mxCell id="S4qOi2kV9IJ2QXHu5ZDw-44" value="Data Viewer (Web Page)" style="swimlane;" parent="1" vertex="1">
          <mxGeometry x="880" y="555" width="480" height="235" as="geometry" />
        </mxCell>
        <mxCell id="S4qOi2kV9IJ2QXHu5ZDw-45" value="" style="shape=image;verticalLabelPosition=bottom;labelBackgroundColor=default;verticalAlign=top;aspect=fixed;imageAspect=0;image=data:image/png,iVBORw0KGgoAAAANSUhEUgAABLAAAAH2CAYAAABgGHUZAAAAAXNSR0IArs4c6QAAIABJREFUeF7s3Qd4FFX/9vHvlvSeEIo0USwU2yOKvWBHrIgg0lE6glhABURBQBDpTZqAgqACdkWw9z9iAQWlCEhNSO/Z7O77zm422VQSkmAg917X85CyOzvzOSc/Z+4954zJ6XQ60UMCEpCABCQgAQlIQAISkIAEJCABCUhAAtVUwKQAq5q2jHZLAhKQgAQkIAEJSEACEpCABCQgAQlIwCWgAEsdQQISkIAEJCABCUhAAhKQgAQkIAEJSKBaCyjAqtbNo52TgAQkIAEJSEACEpCABCQgAQlIQAISUIClPiABCUhAAhKQgAQkIAEJSEACEpCABCRQrQUUYFXr5tHOSUACEpCABCQgAQlIQAISkIAEJCABCSjAUh+QgAQkIAEJSEACEpCABCQgAQlIQAISqNYCCrCqdfNo5yQgAQlIQAISkIAEJCABCUhAAhKQgAQUYKkPSEACEpCABCQgAQlIQAISkIAEJCABCVRrAQVY1bp5tHMSkIAEJCABCUhAAhKQgAQkIAEJSEACCrDUByQgAQlIQAISkIAEJCABCUhAAhKQgASqtYACrGrdPNo5CUhAAhKQgAQkIAEJSEACEpCABCQgAQVY6gMSkIAEJCABCUhAAhKQgAQkIAEJSEAC1VpAAVa1bh7tnAQkIAEJSEACEpCABCQgAQlIQAISkIACLPUBCUhAAhKQgAQkIAEJSEACEpCABCQggWotoACrWjePdk4CEpCABCQgAQlIQAISkIAEJCABCUhAAZb6gAQkIAEJSEACEpCABCQgAQlIQAISkEC1FlCAVa2bRzsnAQlIQAISkIAEJCABCUhAAhKQgAQkoABLfUACEpCABCQgAQlIQAISkIAEJCABCUigWgsowKrWzaOdk4AEJCABCUhAAhKQgAQkIAEJSEACElCApT4gAQlIQAISkIAEJCABCUhAAhKQgAQkUK0FFGBV6+bRzklAAhKQgAQkIAEJSEACEpCABCQgAQkowFIfkIAEJCABCUhAAhKQgAQkIAEJSEACEqjWAgqwqnXzaOckIAEJSEACEpCABCQgAQlIQAISkIAEFGCpD0hAAhKQgAQkIAEJSEACEpCABCQgAQlUawEFWNW6ebRzEpCABCQgAQlIQAISkIAEJCABCUhAAgqw1AckIAEJSEACEpCABCQgAQlIQAISkIAEqrWAAqxq3TzaOQlIQAISkIAEJCABCUhAAhKQgAQkIAEFWOoDEpCABCQgAQlIQAISkIAEJCABCUhAAtVaQAFWtW4e7ZwEJCABCUhAAhKQgAQkIAEJSEACEpCAAiz1AQlIQAISkIAEJCABCUhAAhKQgAQkIIFqLaAAq1o3j3ZOAhKQgAQkIAEJSEACEpCABCQgAQlIQAGW+oAEJCABCUhAAhKQgAQkIAEJSEACEpBAtRZQgFWtm0c7JwEJSEACEpCABCQgAQlIQAISkIAEJKAAS31AAhKQgAQkIAEJSEACEpCABCQgAQlIoFoLKMCq1s2jnZOABCQgAQlIQAISkIAEJCABCUhAAhJQgKU+IAEJSEACEpCABCQgAQlIQAISkIAEJFCtBRRgVevm0c5JQAISkIAEJCABCUhAAhKQgAQkIAEJKMBSH5CABCQgAQlIQAISkIAEJCABCUhAAhKo1gIKsKp182jnJCABCUhAAhKQgAQkIAEJSEACEpCABBRgqQ9IQAISkIAEJCABCUhAAhKQgAQkIAEJVGsBBVjVunm0cxKQgAQkIAEJSEACEpCABCQgAQlIQAKmbFuOE6czTyLvK9cX+T8v+l0hvIJPlawEJCABCUhAAhKQgAQkIAEJSEACEpCABNwCpuIhiv+xyfV879+ZEpPSnEZQ5cwNsbz/zc+1vDMur7BLoZW6oQQkIAEJSEACEpCABCQgAQlIQAISkEA5BEwFUiv3N+6fmXL/Nb73/Nz414QpKTnNaQy0Mv4vP7xyv6v7F7kpldc/xYzXKjJaqxz7radKQAISkIAEJCABCUhAAhKQgAQkIAEJnNICBcZT5Y2uyvup5wuTyYir8kMt1/dgSk5JdxYdfeWOr1z/7z29sOD8wmJZvZ5+SrPr4CQgAQlIQAISkIAEJCABCUhAAhKQgARKFyg42qrwc71HX7l/5xl5VXg0livAcgdV3qFV8V973qZoSKW5hOqwEpCABCQgAQlIQAISkIAEJCABCUhAAqUJFFzxqmi4lT+F0DvAcn2dkpqRO8jKM+Kq5PCqYHCl0EqdUgISkIAEJCABCUhAAhKQgAQkIAEJSOB4BIqOvnJvpfgQy5Salpk3hdAVXRWZMlg0qCp+mqACreNpLr1GAhKQgAQkIAEJSEACEpCABCQgAQmc+gJF7zdY/PRC7wDLazF3I8ByB1eu/8/zKv77gs859XF1hBKQgAQkIAEJSEACEpCABCQgAQlIQAJVJ1DcSKyCIZZrVFZaelaBKYTFhVmencwfeaXRVlXXcNqyBCQgAQlIQAISkIAEJCABCUhAAhKoCQIlTSM0jr3QSCwjwPIm8Z5CWJhKa2DVhM6jY5SABCQgAQlIQAISkIAEJCABCUhAAlUtkD+lsLQ7FXruSmhKz8gusAaWZ/cKTyGs6t3W9iUgAQlIQAISkIAEJCABCUhAAhKQgAQkYMJkDMAq8HAFWN4/KW0EVkmExS/qLnAJSEACEpCABCQgAQlIQAISkIAEJCABCbgFShtpVZJRgRFYpQdTWu9KHU0CEpCABCQgAQlIQAISkIAEJCABCUjgRAgUXsA9N/zKyLQVexfCE7FLeg8JSEACEpCABCQgAQlIQAISkIAEJCABCZQuYMLkCbAKP1FrYKnzSEACEpCABCQgAQlIQAISkIAEJCABCZx4gaKjsEoMsArsnBOKn0io6YUnvhH1jhKQgAQkIAEJSEACEpCABCQgAQlI4GQWKLRCexnWxypbgHUym2jfJSABCUhAAhKQgAQkIAEJSEACEpDAcQgkptiZ83Y8sQn2InfFO47N1fiX+Fjg3uvDuKxlQLktFGCVm0wvkIAEJCABCUhAAhKQgAQkIAEJSKAmCLywJJbfd2YY44NqwuGemGN0wjO9ojm/qX+53s+UmZWTNw/Q6V74Sg8JSEACEpCABCQgAQlIQAISkIAEJFDjBTo+/a+yqyroBV1vC6fdVSFl3rLJZKJAgFXaK4sLtxyZibz92kp2xxlppDuQNFt8CImI5uwWF3DFpc3wr5KQ0sn+//uYDXsD6XzvtfiaS9pzJwd/2cDHf1vofF8b/C1ltjmhT3TmZPLB6lUEXXw3158TdkLfW28mAQlIQAISkIAEJCABCUhAAhKQQPECHZ/ZL5oqEOh6W1iRAMsIqUp7lDnAKm4j6Ye206f/E2QGN6J+lHv+osNhJys9jbjYWDJDzuWJZx7h2ub1KnmwXQ4fT3mKV7YHsmTWGML8SjpIOxtmjmbWZgcLZr1AdFCJSVcVNEfZN5mTHsfjD/cm4OYxjO9+YSVblX0/9EwJSEACEpCABCQgAQlIQAISkIAE8gXuN0Zg6VHpAt3alm8ElrEDFQqw0g5to2//J7m4x4s8endz9wE5nWRnZZB45B9enziGTw9H0n/SNO44q/wLdJUslMNHL41gwV9BLJn5LGH+JQVTRoA1ilk/O1kwu/oGWLb0OJ5QgFXpfxDaoAQkIAEJSEACEpCABCQgAQlIoCICCrAqolfya6tHgOW9f9mHGdV/KDsCr2TOS4OILHGkVHlBFGCVV0zPl4AEJCABCUhAAhKQgAQkIAEJSKB8AscKsAJrB3DVmVZi9qTx6yFHsRuvVdePlo18sdgdHDyYxd+Hc7D/x0uQh9by48qzfHE4wWF3snd3On/HFb//5RMr27OrX4AF/LBsAiPf+pspc2dwQX33Al1ph//mrZWrWP/Nb8RlmGh8wTUMHdqbZnUC847U6Uhm7byZrPpkE8kOf5pd0oYBg7vRNMIPyA+wFk/pz3vzZvDW51sxRTTinh4DePCm5lhdswq9RmBNG8bGRTN4Y8NvmCIa0rbzQ3S77SL8vNbFctrS+GrNMpav+4J9CTmcc8kN9Bnci/Nqe62M78xh3+YNLF7xPr9s24fdrxZtOvZicMer8PHMZMzYwtDBq+k/82kOvP0Ki9Z8S52O45nSsSnYs/l27WIWrdrIoQwfLrv9AYZ2vYIxfTWFsGzdXM+SgAQkIAEJSEACEpCABCQgAQmcGIFjBVihjYNpe46VQztT+XJ3TpGdCmoSxsibfVj0ZgKJPj60vymMj9+LZW9S1YRF1jpBjL8Gnn4zjaJ7k797Z18SQdusJKb97iAgwp9n+4axePoR/s5d4ryiuqdfHU2r2Hje2m4vdlPVMsCK+3ElnUaupc+0GXRoURfsuxjWewKh51/JRec2JNjHzl+fvcmnBxsyaf5ozvI3YUvcw/PDnuRI7SvpcNslBJps/LP1J9794hCj502hZaTdNYVw5jeHaBQeRcsbbqBZ/RAOb/mSlR9to93IafS76rS8AOvljXs5PSKcM6++gYuaRBL/z6+8veYLoq/rw7hhbQk1gz1pJy+PnsD3yXW5767rqBdq4q/v1vPe/x2l26hxdGxlbA/+742XmfzJIW5ocwWn1wvHnBXH2tffxHxhd158vC3GMluOg+/Ssfvr1G9Vl+yculzWqiXNWl9Hq3qZLBs7itV/Qtv72tG8XjBH/trER5sSSY/5labtx2kNrIr+lej1EpCABCQgAQlIQAISkIAEJCCBShIoLcCyWEyENQ7i5qZWDu9K5ds9dmzeQ6t8LDzSvxbfLo/h54SCQ65MFjP/uySE5pEm/t2Rxtc7bJzbLAibj4XLG1vY/1cqX/xtwxJk5eYrQogw2fnxxxR22Hy54QIroRF+bN+UjLNeAJc08iH9aCbv/JjBdbdH06OZiY2/pbFuYzoNLgjm/DpmYv9JY+N2Gzm5u+EdYBl35Lup22nkbDzIl0fMtLkyhLp+Tn74MZldGRbuutaPpBQrDSNMbPoxmT/jHViCfbnzyiBCcfDFt8nszbJwz3V+JKf7EJmVTfQlkZyemcGvW1JYtSmbwjFWtQywsrd9wB2DFnHfhOk8fGlDVxcy7mhYYHX5nJ0MuO8xzn5iBUOvDOLI1o30HDaNIdNWcEvz4m6r6B6B9dKGg/SZMpuOLSLcXdOZxitDurHOrwtrJt+Df+4IrAnv7qD96KkMuLpBXhfe8dkrDJ34Eb0mLaH9hWF8++p4xr77LxPnvMSFdYNzn5fOunGDmbvtHBYteZIGvu41vpzG7Ru9/hh+WDGZsev+Ydb8mTSJsLgDrG5z8b+kK7Oef4Cw3KFZ+756jV7j1tL7+ak8cFmj3C042PHOeIbM/JYLuk5QgFVJRUabkYAEJCABCUhAAhKQgAQkIAEJVFSgxADLZOaqK0JoGJSfDmRn2Pjs+zQScoc+mYN9eLlbCOPmxnMUqBvtS4DFyeFYG40vCKONPZ35v9u5/vYodn55lP+1rYPf5lje3Gehf+8I3lwcw/nXRnLo+3i2O/0Y2D6ApR/nMLpzIHMWxbIzxcT55/jw91+ZtLwykqAtCXwbEMT0G2Do8lTqnhvCHaHZzN9ko3W7aJK/j2VLrHvklxFg3R+Qzms7nQSE+HDfNX4sWZZAkzvrwg8x/Jhg4cm7/Zn1bjZjR0TzxuyDbE63MqpjENNfTeaegXXY/Pohtjn8GHGzDy++k8ULI2vz0aLDfPy3jaY31OGSI3G8vrX4cWDVMsBK/W0t9w57nS4vT6fbBfUL9B2nI5vUlHSystOYMKQfAffNYey9DUnbu4mu/cbQ8q6BPN7rVsJ8C99l0B1gzd3qw6tzxxEZ4JkH6GTDtIG8uPl83ljajyiTewrh1O8zmD/3RRqEGQmU+5Edu5M+/R7nzDuHM6rrpUwb/jCb7Vcze3JPQrymFR7+cx39hy6l+7QV3N284EL0OVnppKRlsnPjckau+J1pc2fTrK5/7gisZdz68uv0Ps+Y8uh+fDxvNDM/TWbW4ik0Cct/k6zkvQzpNZCIOzQCq6LFRa+XgAQkIAEJSEACEpCABCQgAQlUlkBpI7D8g3249tIgIq2QlZ7DVz+ncTQjf6SVKcCHFwaE88r0WPbY3QHWWc1CSNyaQINro2llySHeCQFBVj7/8CgNW4fz2QdxJDtN3PlgXX59/yj3dosm53CWMZaG8Egrr36STqfWMG11CnazmYsuDeWyBhYiIn3Y9XEMa3IC8wKsi2+rw60RdmKynViDfPj1i6N8udcdKBkBVgdXgAUXXxZG2qY4Pjli4flRtUn+PYMMh4mGjU0sfDWFQf2CGDshjjinmQ4P1+bwF0n0aetL/+lJpJos9B0YxQ+rknhoUCjjxsRyxAFnn4wB1vb3ZjFo7g+Mnj2Da5pEQlYMb7+6nI0/78Zh9cXfzxerxcSuP7bQ7KE5vNC+MSZnNtvWr2b5Rz+x51ACAVH1aHbehVxz4y20OisKs9caWAXvQujk85mDGf9TM1YsHUi02R1gzf4FFs4aR1Rg/t0KnSkHGNxnCMFX9WFC/+sZN6gb/57WlZnPtMV7rfmEvd/Tb8AL3Pb0EnpcGc2BrV+zYtX77IxJx+rrh5+vD1nxB9iZYGXq3Nk0rxeQG2C9QadFy2nfKD+oevOlYSzfFMUrS5+hbn6uRU56PE/27Y3fjc9qBFZlVRltRwISkIAEJCABCUhAAhKQgAQkUEGB4gIs/0ArZzfwwYwTW7aTyAgriYl2LK7ZV04O7c3kSBZgMnFFu2haJKWy+scM0h0mzrssAvu2BPybhxH9TzIf7bfjH2zFnpHDrbdGseGDOFI9AdZ7R7ikTSQ/fRrH/gyIjLCQag1g4DUw7c0U/BuHMPkGM08uTea8ayJpvCuBtzIDmHavlacXJNHwonDOSU7jvR02fIKsmLLspNvcAZv3FMLASH9G3BnArJXJ3PRQbf5YfYTf4pxER5pJyvJh8pMRzJtymB3ZVh7tGc66lUk8+HAEy2bHsN/sw5Odglm0Ko0Rj4UwbsxRYhzQ+Mra3GpPYv4PBkTRR7UcgbVwVH/e3RXInHmTaBBqZserAxnwbgBTXp3MeSHukVUmUyZPdb0f092z3AGW59iM6XpOBwn7t7F87kze+79Uxi59lcvrm1wjsBb8FURZAqxpP2azcO5E6oZY89Ry4vfQp++jNLp1GGN6XsHkx3vxh/lmZk9+EK8RgMTs+Jj+g2bTcdJK7r8ggHH9OrE97G7mjutMsGtzJnZ8PJ/B8388ZoD1/qynmfdFFnNefYlGwV7DDFOP8Gjv3oS21QisCtYWvVwCEpCABCQgAQlIQAISkIAEJFBpAsUFWBHR/tx0kT/GcBVjZNTRZDsRYRbX90aA9df/JfFLQv4utLoqkj43hRCCg907Upn+diJHHRbuuy+aW860ELM7lclvJnHJVeF89VkCGU4TN9xTm+3rY0gO9GNo11qcGejk5+8TWPiLiW5XmVjwbioOs4U7OkbTtqGZv3ZksOO7JD6IgavvrE2fi8zMnn2E2tfW4s7mPiQdSOflNxI4kOYOsE6/MIybM5N5Zbv7+8ZX1ebihHje3W1mcM9anB9pZssP8cz90cGEoSHs22flvAYmVr0ew8d7cvCtFcjoHpHUM9uZtzSGTUkWxg8JZvKkeNeoMpOfL0P61qaVTxqPvJzg+pn3o1oFWMYd/X5cM59JS7+jdZ9xPHbXuVhNOXz+fCcmH7yat+cNwTMhL2vPe/ToN48mD7tHYLl6QKF1phJ3fk/3QS/w4JgF3H9ZdLkCrAkf7KbnuKl0aVUvz2vP9yt5ZMwqOj3/Cp1bR7Nh3himfpbIS7Mn0iw6b8/YMP1JJn8dxsylz3F2UAZPdulI+tXPM73vRXmdc93UEcz9MvaYAdaOT5cwYMpHDJ44nTsv9OyLk71fzGbwCx/QoovWwKq0KqMNSUACEpCABCQgAQlIQAISkIAEKihQXIAVHO7L5ef6YfFa7chhc5Jkc2BxmojZlcbOtAq+cTV5uSnYn5eHBDFuvDGFsPJ26j8LsM5qN5Qu15/hzhrt2RzZ+xefvvce3/6dQOt7+zKmz014xj6l/N8Cuj/7Ka0fHk7nS+uReXQn86auZPfR/TTrOZsX2jfiz08X8NxbR+jd8x6aN4hwTSn86Z2FLNxwlOfnzKDVaeZjBFjNWbl0ALVcUwhHM+WTHYQH1+bOPg9xZdMo4nf9wIxpy8k8txOzJ3Qmwgw5R39nxJBx7Am7hEf7t6dhqJnfP3mNOWu30vaJ8QxscwYmnCwd+whvbbEwfPQQmkRYOfzL+yxY8RV70gN5ee6sUqcQkrmfKUOeYENCHfoN7cOFDYI5uOVz5i77nuS0AzTrMFZTCCvv70FbkoAEJCABCUhAAhKQgAQkIAEJVEigtDWwKrThk+TFJn8fBrT3Z+mKFFJP5gDLlriPJwc9xu8HU3Efhwmz1Yfw6NM4r9Xl3NHuBpo3qYe/NX/tKbDx+8Z1LFn5Pnvic6h79sX06tuDb+c+g889Exh4eTjZaXFs2vghaz/+hl0H43FaAzjj/Cvo1r0j5zWOwIyDza9PZOYvocyaMJCg3Lv8GXvwy5sTmPR7CxY9fyeBJie/rZ7Cy99bGTuoDe8sW8Znv+zC4V+LK2+9l+7330idYJ+8bpN6ZBfr3ljBR1//TmIm1D/7f7Tv8gDXX9AY39xoNTNxPx+tWMbbX2wh0xLCedfcxf3nZ/H83G8ZP3MiTSJ8IG0zA/oso/ucqbQOK7gAfVbSAd57fRlrN/xMot2X5q1volfX23h70kiC241myC2NCtzh8CTp09pNCUhAAhKQgAQkIAEJSEACEpDAKSdQ0wOsqmrQEz4Cq6oORNuVgAQkIAEJSEACEpCABCQgAQlIQAL/tYACrKppAQVYVeOqrUpAAhKQgAQkIAEJSEACEpCABCRQAwXuf+pfY7KZHpUs0O22cNpdHVKurZoys3IqcRZjud5bT5aABCQgAQlIQAISkIAEJCABCUhAAtVW4IUlsfy2I8O1ZJIelSTghJG9ozm/qX+5NljlAZbTuKOgHhKQgAS8BEym6lP8VaPUNSUggcICqlHqExKQQHUWUI2qzq2jfTsVBRJT7cx9K57YRPupeHgn4JgKXvv5WKH99WG0bhlQ7veutABLF4HlttcLJCCBYgSq6qRMNUrdTQISqAwB1ajKUNQ2JCCBqhJQjaoqWW1XAhKoDIGK1qhKCbB0YVgZTaltSEACHoGKFrbCkqpR6lsSkEBlCqhGVaamtiUBCVS2gGpUZYtqexKQQGUKVKRGHVeApYvBymw+bUsCEjiWQHmLnGrUsUT1ewlIoDIFVKMqU1PbkoAEKltANaqyRbU9CUigMgXKU6PKHGBVxgVh8cthaY2symx8bUsC1Ueg6DpXlbH0VUkFTjWq+rS89kQCJ4eAatTJ0U7aSwnUVAHVqJra8jpuCZwcAie2RnlMyhRglffCsGBQpYDq5OiA2ksJnGiB/KJX3mCrcIilGnWi207vJ4GaIKAaVRNaWccogZNXQDXq5G077bkEaoJA5dUob61SA6yyXhS6AysFVTWhG+oYJVD1AibKG2gda59Uo44lpN9LQAJlF1CNKruVnikBCZx4AdWoE2+ud5SABMouUPYaVdzMmxIDrLKEV+W9KMwfmaWwq+wNrGdK4FQQcCfw5QumSi9unhpV2pxp1ahToe/oGCRwIgRUo06Est5DAhI4XgHVqOOV0+skIIETIVD5Ncqz14Wv9YoNsI4VXpV0UXj8F4snAlXvIQEJnGiB8gRWJQdRRYOswjWq6JRC40iLBuWqUSe6B+j9JFC9BVSjqnf7aO8kUNMFqluNcp1dFb+ocbFNVY6n1vSm1vFL4KQUqKoaVRjD+1qvSIB1rKJU3O+L/1nxF5AnZctopyUggSoSKH6UVbHDRXMrZEk1yvMa1agqaiptVgI1UkA1qkY2uw5aAieNgGrUSdNU2lEJ1EiB8teokpg813oFAqzSwqvCIxeKG8lQ2ugGLexeI3usDloCuQLHXsSvtNDKw2jUkZKS/sK/U41S55OABMouoBpVdis9UwISOPECqlEn3lzvKAEJlF3g+GoUFA64Sl9CxrheLFOAVTjY8v6++IvEkqbu5F2Glt1Cz5SABE4BgdLmRRctVEXmOhcafVXSXQiLG4WlGnUKdB8dggSqXEA1qsqJ9QYSkEAFBKp/jTIOTusdV6CJ9VIJnNQClVOjPAQlLS1TIMAqafRVecKros91lbJSm0Jzo0/qnqqdl0CxAmWbD32s4OrYCbz7ZKnkGlN05GjB55ZlTSzVKHVyCZx6AqpRp16b6ogkcCoJnEo1qmCwdSq1ko5FAjVXoCpqVEkDGAoru0ZglSW88r7QK/h1/gVhaWGX542LvxjUXQlrbvfXkZ+aAvnDSPOT9KJHWrBQeQdWBb/OD8JLDrUKhlHG+7vrSsERo4UDrGONFs2rXKdmM+moJFBjBSpao4zpzJ5t5NebokPh84HLVqNcVSvvRSWvMVq44XQeVWO7sg78FBVQjTpFG1aHJYFTRKBya1R+IFbwWq/YJWYyMm3FnvWUJ7DynGCV9Jqi4ZVOtE6RnqvDkEAZBYobVlr4Z/kFK2+RPpMpL4Dyvlg0ipwnDM//2iuwMrkuI/NeW3KNKnyxqMCqjA2qp0ngFBM4wTUKdwCWX5s89Su/JhU3FUfTc06xbqfDkUCZBVSjykylJ0pAAv+BwPHXKM/OFr7Wc/+8mBk7JQdYRT8BLP4isOAoh7KHWAUvHP8DZb2lBCRQ5QIlLehXtvDKVSW8Fm4vKdgq7iLQk+Qf+wKxuGmFCrKqvGvoDSRQLQRUo6pFM2gnJCCBEgRUo9Q1JCCB6ixQ8RrlHVJ5X+sVDbZyI63iAqziptwUDq88QVXpF4feIVjpF4RaZ6Y6d0ztmwTKLlD8nOjiiltxUwY9Pyv5jhSeUQveC7YXHMlQMBxXjSp72+mZEqhhNk5KAAAgAElEQVQJAiWv21D008PiPg10/0w1qib0FR2jBP4LAdWo/0Jd7ykBCZRVoHJrVNFrv2OFWKbCAVb5witwOMDhdOJwaFpgWRtdz5OABEr+oNFsMmM2g9l1LWnUleJDLe/QKi8ed5Uhp9ddcDw1yvjXIXYJSEACFRYwm1WjKoyoDUhAAlUmoBpVZbTasAQkUAkC3jXKHYYVvtZzf1/SWsklBljFLdRuhFveP7fZISzYD4vFXAmHok1IQAIScAtk2+wkp2biYylY0LxHXxVcA8uZt56Md43KMWpUiL9qlDqWBCRQqQI2m52kSqhRrvOoEH+sOo+q1PbRxiRQ0wUqtUYF+2O16lqvpvcpHb8EKlPAlmMnKSULX2vRaz1XpOV1oxzPl3kjs7xHYJU++ip/rSvjecaFYVCgL36+1so8Fm1LAhKQgEsgPcNGVlY2ZnN+Cu+9HlY+k/sOYJ7feYL2HLuT4EA//PxUo9SlJCCByhfIyLCRWYEaZXc4CQpQjar8ltEWJSABQyAj00ZGZjaW4zyPMmpUYIAf/jqPUoeSgASqQCAzM4eMrII1yju8KjqVMPeasLQAq7h1rjw/y8yyU7tWSBUcijYpAQlIAOx2BwlJafi4PvUreodCb6OC4bvxGydZ2Q7VKHUkCUigygSMpRPiE1NVo6pMWBuWgAQqImCcGx2NT8XX5/jOo7JtDqKjdK1XkTbQayUggdIFCtco73VGS1oLq8AUwqKLHXuPujLuBmZ8b4x0cJKRZadudKjaRAISkECVCBgBVnyiO8DyzI92p/Leb+cefeWKrPKW4XPXKCPAqqMaVSVto41KQALGunpO4uJT8PExapR7YXfVKPUMCUiguggY50KxcSmuAEs1qrq0ivZDAhLwFvCuUaWFV95hVl6AVdqaV97BlfE84/vMbAVY6n4SkEDVCbgDrFTX2jDGNELPw70OVn6QVXjqoCvMyh2BpZC96tpHW5ZATRcwAqyjRoBlPb4ala2QvaZ3IR2/BKpUwBNgqUZVKbM2LgEJVEDACLC8a5RxnVf6KCwTXgFW/mgr1wVg7nAG93oyBde/cgVYWQ7q1tYIrAq0l14qAQmUIGDUGNfohgRjeo6nkHkW9POMuvKEWvl3QPWuVVnZTtUo9TAJSKBKBDxr7bkDrNJqVME7NBeoUTanRrJXSetooxKQgKfWxB41RokeX43Ktjk1kl1dSQISqFKBmKPGKFF3jfL+n/GmBUZdeU3BKXOA5TlZ84zGUoBVpW2pjUugRgvkB1juVD5/ak5xU3Typw/mr4XlnkJYt3ZYjXbUwUtAAlUjkB9gJatGVQ2xtioBCVRAwHM+FHM0OW8NrIIXhAU37lmGwfs8ylgDq060zqMq0Ax6qQQkcAwB7xqVH2C5w6uCa2B5rYdsLOJe2vRBz5pXnpFY7imEDjS6Qf1RAhKoKoG8ACs+BatrdIMRYjkLFLKC0wi9R4kaIZcD45NDBVhV1ULargRqtoAnwIqNMwIs1aia3Rt09BKofgLeAZZqVPVrH+2RBCTgFoiJTc4dJepe87jgKKz8O9EXCODdAVbxU3AKj7oypvQYF5HGv0Yqr4tDdT0JSKAqBAoHWJ6i5Uni3SOyjHrkHpFlPN8oep4aZfxMAVZVtIy2KQEJeGqOcepkBFhWS/4JlmqU+ocEJFAdBLwDrPLUKO+lY3QeVR1aUvsggVNbwAiwjMEKxnrHJYVXhe9G6JpCWDjA8ozIyh91ZayD5R555VnEXQHWqd2ZdHQS+C8FPAGWsb6M58TLHWIZI7EK3okwfwSpsbi7506pkJ3jpJ6mEP6Xzaj3lsApK+A9AuvYNco9KtQI3L1rlC1Ho0RP2Q6iA5PAfyxQXIBV3vMo1aj/uBH19hKoAQJHjBFYuQGWp0a5gyzvaYSFRmJ5B1gFgyvXZ4yuk638kVieAMtBlk0XhzWgT+kQJXDCBTwnXZ47fFktrnKWW8jcAZYnxCo4/dl9kej5WbYN6tXR2g0nvAH1hhI4xQXyF2KH2KPGJ4fHWaNyUMh+ivcVHZ4E/gsB74EJ7ovD46tRthw02+a/aEC9pwRqkICnRhmDFNyhlfGvd2BVzNdlD7C8wyynAqwa1LF0qBI4kQIFAyz39Bx3YJW/mF9uhJW7W571r4xv8++aqgDrRLaa3ksCNUegYICV5Br6flw1SgFWzek0OlIJnECBggFWkmt0w/HUKAVYJ7DR9FYSqKECR2LdNarwXQjzr/uOGWB5L4Sc/7X32ld5a2Bpek4N7WY6bAlUrUDhAMvimhPtOvXKS+TzA6yS1u8D48RLI7Cqtq20dQnURIHCAZYldw2sctcou0Zg1cT+o2OWQFULFA6w8qc5l+88KseuEVhV3VbavgRquoARYBk1ylgDyziPKroWVtE7EhZYA8szVdB7FIMRXnnWbPB8bayFpdENNb276fglUDUC3gGWe4HkguFV/iLJ+e+fP/3Z+Jl7zT4FWFXTPtqqBGq6gHeAFXPUOPEqWqO875LqqkqurN1dm1SjanoP0vFLoGoFigZYx1mjFLJXbUNp6xKQAIdjjBFY+VMHPQGWJ8xyVS+vWTiurwtOIcyffuN9B8L8xdvz18BSgKUeJwEJVIVAyQFW/gmY532NkVkF18Fy35HQuEC05Zg0AqsqGkjblEANFyg5wFKNquFdQ4cvgWohUHKApRpVLRpIOyEBCeQJFAyw3EGWZzRW0cXcc8MsBVjqQRKQQHUSKBhguYeVehZx90zRKS7AKjzCwT0CK7w6HZr2RQISOAUECgZYiapRp0Cb6hAkcCoJFAywVKNOpbbVsUjgVBM4HJOYuwZW/iLulRBgGaOu3MPe3SOx3KO0TuYRWEeT7USFWnAvaaiHBCRQnQSKD7DciXt+gGWMsvL+Cy44Ncc9AksBVnVqV+2LBE4VgeIDLNWoU6V9dRwSONkFig+wVKNO9nbV/kvgVBTID7A8a/R5RmB5phUe1xTCogGWsRZWedaXObwzifeTAnjoYl+XuyPDxrI3Yvlkl51mF4cx/K5Q/MyQeDCNya/FsyfTzA3tounxP19y0m2MX55Er1618Ps5hgFvp2PPvXYNrRfI0GZ2tteNovOFPnz7WRyLvkzHp3YAgzpF0TzMyZRVSfR8IJJoC6z/IJ46N0Xw5fI4buhSixZ+p2I30DFJ4OQWKBxgeRZxr8oAK8eexou717AiOZkW4ZcwvVEjhv32Gt/aIcgnkuFnd6JF+g/c989mjPJTO6gpn559Lvf+9j67HGAyRzKnxR3M2b6CrbYcQn2jeOT023k4IvrkbgztvQQkUESgcIB1ImoUzhxY+iKMXAj+Z8DCefBGN+i7Di6qA28OhH/vgVt3w0UjwG6B5jfBewtg6jUwYzf4BkGX52Bee7iuJXyfBlhg3PsQuA6aPwE3RcFfn8PqBFg3CH7JMD4PAEsALPsEOp8HP0+Ez86DJ26Hf9fBiD9g+TOQvhVuGg/rX4d/PoaHvoJvJsCBNfCKHSZ0gPivYeQP0DcYLn0G7Fa46C54fw6ExEGXzrBxL3QeDlMfhn9fhXX14PpUeMsPJt4BtnQY+DIEfAKztoLDaRRh6PoCLO2vHiuBGi9QOMA6ETUq/U94+yPo+pibf9VDcOtcWHcLfPWl+2eXj4OHnoKMn2H6CBj4HoT4w47h8OJkMAfDuQ9Cr2kQFg/L5sM9nWDJAhgwBXyA5QOg/WzwT4CVXeGbL+HMjvDwKxDmWo9QDwlI4GQSMAIszyLu7imDFQ6w3KOtCv+vvAHW/q3xrIgP4slr3InRqhVHONIolHvOtvLnpkTWO4J5vjU8uzCB2+6J4sxgOJBs4tLmvuz+7ijf7rOTWjeMgVf6kphm58MVh6l9fW0ubWjlnw2H+blOFHcGpzP7TzPdrg3CEZ/O0m9zGNEtnPEzDmJtEMqIDmFsWBtL9F3RpL1/hC2nRfLoZT4ahXUy9XDta40QKD3AMgiMIaaeuw96RmF5j8Byf23cPaesUwh3Hf2E8RkNGBldj5jMBBr5W+m/7XOebnY/kdm7af/PQZ6IdvCB8zym1Q7Hx+RDaM5WHj6QwYuNLsSEhWBnIjdu/YoXmt9GI0ciE/d8ReuG7eltnJ3pIQEJnDICpQdY3jWqpFGi5a9R/PoqPPkbjO0FznjwqwvPtYPhn8HlDWDOAxDzANz6B6xuDCNugNl9wdIL/hoGd62AK0Lg9k4wcxX0vhle+QyahUF4JEzsDvP+f/j1zlsQuAkW2GD0VZC0Hobtgtn9IDoa/KyQ9RfcPx/WvgjDO8L7dvi/t+Djl+Dd0+HVjvD8QIjdCW2mQ7vToMuD0LobvDUdXngdfF+H986Gx66GGQ9BSFf4bjK0GQ23NoWFT4HlAeiwF94+G9rFwZ2T4YWF0Osi6Dgalo6EpMPQfTgsnQ+hERAWeMr0Mx2IBI5XoPQAq2pqVOr3sORd6D/GvddL74V2b8Hbt8Dlr8MZPuAXDv6+8GFfOBoJp98D11wGm7vAP23guutgx3z4IR0eGQiz5kDX3jDhRmjxFHR7FF7pAPcvgTVtIagbXHctJO6G6OshSgMTjrfL6HUSKF7A6SQzI4u0DBu2HAeuG/rl3inQarUQEOhHUIC1QnlK0QDLHWIZE288i7eXcxH3qgiwnEyYHUOH/nVoaoaEfWn0W57J07ebmfWtiakDwgnOPeezp2cxaV4CXXpH8M5byXTpFk241cGaBQeoe1s9rmho5Zd1B9hUJ4pme49y6ILadGhmjPJyMvuVI1zdNZrVqxNpU8fBrlqhRO5Opt7d0UT9eJSFh/0Z3yHYlebrIQEJHEPA6SQnx056agZ2X39CfO3EJeYQHOyPn68Zi8VcavEyTqZybDYSE9LJxI/6dQIwl/CWBQKso0l4blGff/fBkgIsd6jlmfJcngArPuMvBu35g+YhDWkd1oTL/NLpsnU9vc5si0/mTl5I8GNYaDxPH97PaVYLTULOY2ZdC7f8+T0+PgFYfBoz/4wWdPvzW+Zf0J6WZgfv7F3DWp/LWXJa/QoVdvVNCUigqIAtM4vDR7MJDnSSlGZ3nUSFhvjh71v1ywN4B1hHYt2fHHpOtNx7Wvk1ilmdwDwYBlyZi2GDu5sXH2A99ie0qgXrv4WpK2HpjeC4EwIT4VcnfDwRLr8QaAwBITBnGXwxHlrdBws+hMcvh9XAjPsg6wPovh3eyB1W4WmKBzvCgAkwchLcWxvq9oONI6DfQqj9OQz8FBbfC499CYuegpiv4cJOMGg1PHMlfD0WlkVAzwth0hNwbTcY9//Drk2/QRM/OPQG9P4Fno/IDbDi4YNQ+GsNPDcFRr0Eb08FUzzc3gc+fEt/JhI46QUcdjtHY5LJsfpRJyoQS0knSsc8ZfN8yAeei8OqrlFGgPXsneAX5d655GwY9Qe8fT38kwS+JrjuJbi+Ncx7BroOhZnj4LGlsK07HO4Abe8C50GY3BUemw2zcwOsxcug0b/QcDT8OgbumQ6z20L/zRAzHFa8Cbd/BtecedJ3AR2ABKqJgJOcbBtxcamkZTlK3SeLnx/RUUEE+h5fwTquACs9w2asbuV14Vfw66oYgTVz3mGa3VeHG2uZ2PNHEk9/Y2LqDTDi7UwmDq1NndwEfeu38Yz5II0GtS0kJ9i5vstpdG1qKjbAujY1kY8Dw3nkSn+wZ/PcvET69Y5i5qokRnQMZcWSGH5ONNH9sXrU/fkos3f7MeHBENyTGvWQgASKFXA6yUjLIDEli2ybA7vDSUhkGBH+ORw4mIbdmFliMWP18SE4xI+QQF/MBQYduF+fkGy83u6a6WGx+tOgQbAxcaWEt3TXICPljz3OAMvhALuj7COwjBqYbs8kzpbE4p1raFzvat7e8x23NLiK032DuCCkATtiN7CYi3mlTjgWkwVr1q/0OZjNzNMvNj6LwJITy/V/5AZYphym73yDwxHtmFBLC8nrr0sClSvg4OihBJKzfQkPcZJoXCnl3mbZNyiQOlEBWKtwkcvKCLDKXaPeexw+vhhmP5BLaYcu50OPtXBjUxh1MwQ9DtdthtfqwoN1oOsc+GoNPNEMblkM1h/g/WhY3hbOvRRe/z9oGQb+/jB2ALSdAbtehNEfQpthMK+UAGv5KJi7B27sCJ0DoPNbcFYIrBwHj3aAlbuhcRTsToAvjfexQJd2MHE1NAhxB1hTM+Cei+D0c+GCALjgZnjzO2hVFz4cAStqwdCc/ADr47PggQxo+wLUbgk/zFWAVbl/WNrafyjgsNk4EpOM67IM8A0IpG7twOOqZd4jsI43wCpvjTICrMVroc9oN+JrHeCONe4RWNe+C019wOoP25+A+auhVjQc+hs6fALh8/IDrPSNMG0WDJ/gFWC9Dv37wJRbICECnv7o/w8gvQZu/xTOrwvfDIe07nDr+f9hA+qtJXAKCaQnpxKbkOletqkMD5PZQmhECJEh5R+NVW0DrAPbEnjxcxst6low+fpyUT0Ha37KpH6UhbgEB23ujubqWg4+WHuUH5JMRPqbSPILIDorgwuuj+Bsf0iOyeClz+y82C+Mb5YdoNZN9Whd38LWDw6yKTqKzi1MzFqZgDPEQk6CjaiW4fS81JdxbyUzonME1uRMXliQwK2P1MP8WQzvEcqzt/iXOAqkDG2lp0jglBbITksnNiGDrJyC1atwgOWNYBQwYyREZFQgZGYSF59Ohq1gcl/5AVZ+6G7si3HiZpx45TjgtDLehXBX/FdMjk8jympie1oKQxpfzLxd3/N8i840zb0S/ubwep5KhNuD/An1jaZHmI0Hd27jsrDTMJmCuKtWffr9+T4tI5sQ7EjlgDOCsU2upvHxfSBxSvctHZwEKiTgtHFwX5JrNKd3gOXZpl9gALUiA/GrohSr/AFW8TWqXCF7yj7oOgDMdcEnBW7sB+dugzFfQOMw+P0ILHwVHEvhg3Ng5A0wqjNE9IXtj0GndXCpP9zSCaYvhl7XwWU9oHYA3NYDvp4CbSfD+cbUwV6QbDzvLsjeAP3+hMWPFGyy2J+gVQ94cz38zx+uvwJunwr9zodOz8FLo3ANp//8VXi/PrzVEwZ2gtGLoW4w/DgFPjsfnropd7tO+GAyzPoV6ofCn4dg0iwIXQNrmsCtibDxTHjmCtgwBZ47AF9NBZKgw0B467UKdSm9WAL/pYAjx8bR2BRSC4108DcC+VqBuG7GXI5H+QOsiteotJ9hxUfw8Ej3ji6/H25bDmtvNha/gkgzNLoIPnoS7n0b6kZCylfwyWa4Mh0+OAyNGsLBP6DVSLjmDHhlLnTqDstWw+DnIfVrmDQCnvgK9s2AD96HOmdB/F9w5WJo3aQcSHqqBCRQjICTzJQ0jsSXPbzybMSY9hceHUpEoLVcslUeYBkjIoyRCuVdA8sY4GV33+Pedecws3FB58xdd9NEgREbxoWna4323GLtPZrD+J3xWtemjHmRrovV3K2a3F/nfW92/97YZc823L9zsnJZDME31ubO+uX8L0K5mkNPlsDJLGAnZm8CqcUk76UFWO4jNlO7YQQkpxCT5B4Z4f043gDLfQdC9/YLroFV8QDLqAveNcpiMuFwOt1zr3N33pj17XmO8VPjhNL43kNkMZlxGHdqzb0/omsRwpO5C2jfJVBdBZw2DuxLIquEAMt1pmG2ULtuGEHHOaS9tEMvKcAqb40qV4Bl7JBxEmT8zyiExsmQ8a/d7j7xMb53nSAZJ1G5J1aerzFeY8k9KbK7Fzx3GK/LPUqzMR42dyF0z4mV8TvXyVPuyZrrxK3Qw3hv47Wuk63c7eadeOU+39g319Bb4z1zT+Jcp2Je++m9Wdfx5L639/Hk7kreCZ2B55lf5b3d6tpntV8SKEHAac/h0MEkMksY6mD1D6R+nfKFWCUFWFVao3KvwYzy4vkTN7525pYo1w8913ZeQ/BdJS23JLiek1vK8rZhyr2Wy92uUWpcJSu37HhOujw/U0eTgASOXyAnO5sDh5LLPPKqyDuZLNQ+LZxgn7JnLN4BljsnKsMaWOWZQnjcAdbxO1b+K51Ofvgjk/NbBBBYdtvK3w9tUQLVWsDOkb0JpNWYAKtaN4Z2TgIS8BYoQ4Dlvlgy566N5U+gnyXvg7GKYv5nAVZFd1yvl4AEqpWAMW0wNjaFtOzS15gxRmLVrlX26YT/SYBVrWS1MxKQQPkFHCQcSSQho/R65D69MhMUHEBIkC/+PiYOH0wgI3fGjl9QIPWjy35DFQVY5W8pvUICEihWQAGWOoYEJFD9BIypNocPJ5NZaGqzsadWX19CShi6brFaCfC3FlyjL3fdLPfdbcp+rAqwym6lZ0pAAsULGAu2xxxJIj03vDIuCH1MDrKNxUWNeuZjwZHjXjvUePgGBlLPmE5YhqHdCrDU6yQggfIKOLIy2HcozRizXeLDbLEQGORPRLg/PrlT3Jy2TP49mEreaZnZSv2G4fiV8bzqBAZYDmw5JurVCSuvjZ4vAQmcFALVKcBy30a1vEPfy7MG1knRJNpJCUiAnOyMvBtIFOEwmVx3BCzPw5gObDKb8PH1ISQkgEC/Y18dFg2wjq9GlXsKYXkOTM+VgASqrYAx8iomJpn03AXbjfObiOhQzCnJxGW6FyIIigonyJ5OTGJW3nEYIVbd6GOPxCoaYKlGVdvOoB2TQDURSE9I5nAxS7+4ds9kJiwymNBAH3wKnGc5SDycQLyrbnkeJoKiI6gTdOzzKeMV7gDLWAXBeH6VTiFUgFVN+pp2QwJVJKAAq4pgtVkJSKACAqUGWOXcrl+gP/7ObJK8hsu7FoCPCsSvlCBMAVY5ofV0CUggT8CZk0NsbHLegu3GyKuwqFAigiwkH47PD7BqGReAkJKQQlyKLW8kVlkWdleApQ4nAQmUT8BJQkwSCek5xb7MLyyU08J9yMrMxmEyRrRbXGvX2bOy+PdQSpFRW5bgUBrV8s1bR7i0fVGAVb6W0rMlIIESBRRgqXNIQALVUMDpJC01jbj4zPzh6se5m0HhIUQHOfj3QBq5s3ZcWzL7BdKwXiBe6wwXeAcFWMcJrpdJoMYLOEmOSeBoumeSjonQqDBqhRh37XKSVDjACnbf9SrpaBJxqZ4LS2N0QyR1gkoebaoAq8Z3NAFIoHwCTidHYxJJzvA+G8rdhNlCvdPC8bFlse9Iqms0VnT9SIyylRKfRGyyrch7mfyDaVzXv0w3s1KAVb6m0rMlIAEFWOoDEpDASSTgut18XBrpGTmlrtNQlkMyAqwoPxv7j2R6bctEQFgIdSNK/uRQAVZZdPUcCUigOAFjxMLhmFSyHBAaEUpUqE/uKIWSAiz3LfqS4lOIT7Fh8fOjbp0QSrvBqgIs9T0JSKB8Ak7ijiSSVEyAZUxdPs1YlD0nm8NHUsgx+1Knbgh+xg11DiaRVUzmZQoI4fQ6fhqBVb5G0LMlIIGKCWgEVsX8qubVjuw01r/7GWffdDtnhJVtbnnV7Im2KoH/RsCYQrj/YOmLjJZ1z6w+PpjtNow1lI119swWM8GhQUSF+pa6CQVYZRUu7XlOsrOywOKLr1W1rDJEtY2TR8CebSPDbiIowOp1gVdKgGUcmtNJeno2PgF++BzjT+ZkDbCcDofr7mZ6SEACJ1rASVJsEnFphacQmoiqF0lY4RXZnU5SE5KISS5+yqFPaBgNI33KdBDVdwRWThpr5szi8x2xeJb4MpmsNLu9JwNuOQewsWn9e3z89a8cTXPSqGVrunVpS61iPl5wZiXw+dq32fDzbswRDWn7QGeuaFLMYvKONL5cPIs/69xKvzsucP0HwpGVyFfvrmPjpr9Jdfhx1kVX0eGe64kOyC2WThs7fviMdzb8yP6EHM655Fo63NuGWoUaLT32L2bMWsd1Dw3lsoZ+/LlxNfPe+SlvfrrRWiaThQat2jO066VlXoX/6M6fWLj0Iy7vOpRrzy5hgfycZL5c+yYf/bgTn6jG3NapC5c3CS6ScDrT97Nk+jLq3d2H25rVcnWguN2/8c57n/LnnqP4Rtbn2rs7ctN5tYsM73NmHGLZtIWE3/YQd11YzzV8+cMlU/lo88G89jNu2XT+TZ3oc8fFZeqcetLJJlBDAyxHFtu/eIfVm7IZ+EQXooodoZ/Djh82sm79jxxMzCKqcTM6dr6Hs6KDXI2cEbePD9/5gJ+37SPbJ4wLr2tH+xtb4ikzFekJCXu/oXefVxi4eAk31C9pglNF3kGvlUD1FihtDSzXbZ0DPaMZynIc7tDKx8eCr68FH6sFS+5ddUqNXpzuMxnjnyOx7sVHj+dGE+VZxD3t0E9MmbeJ+4f159wwT2FysP2TFazbE87Qh9rh7ykJzkzWL5jJ4Qu60q113WIPxZGTyILJM3Ce14GH2jXDmMBU4OFMZ+3s6fwWcAMjel2Kf/nWxi8VPytuN0vmLmLT7jiaXN2d4T0vL/r+ZWm+Yp6TlbifGdOW0qrzYK4/O/Q4t6KXSeC/EDhGgFWOXaoOAdaB3zYyc/UW+j8xiMbh7grz75avWbX2c/YnZBBZ/2zu7HQfFzYIcV1nfL9uCSs3bOO0S+5gUNdrcM2e1EMCEjhhAlnJKRyIz79phPHGPoGBNKgdWCBnsGVlkZiYQVpmToHsI39HTYTXiySyjLchrLYBljMthqF9BvJnShAXNmuUi2DmjDYP0PeWM/h2cj/GfplNkyb18SeT3X/9ja3xHSye2Y963mdNzmyWj3ucRV/HcsGF5+BM3M9vO9MYNHEyHS5tUKCBt364gAET3iT8ip6sffEBLOSw+sUnmPnxv5x/cQtCzZn8+etWQi9uz+IJvfBxZvPDG9MYvfBbap/RlOggE4f2/oPPOQ8wf/x9BOYWUnvaQeY9NYyVmxPpNGYxg248jT82vMmy9b/nTUFwph9k06//Uu/KgSyceBelTFN37XNORgzvL13EwtWfk5AN3Z6dT9+bmhTpsE6HjdWThjNv4780b3k2trh9bNvvYNTs6dycG1K5X8TqbPUAACAASURBVJTD2ilPM2Xt71z+yHQm338OZG6hV4fRpNdqTN0If5IO7WXH/nSGvjyH+y6p7/Vedj6cPYbxK/+PS/qMZ2q3/xlLtDGhX0c+2R3IRReejk/uiew5V99F73YKsE5YZTmhb1TTAiwnCXu38NrCRbz5xTYcgc2Z98E0Wha5qnOwddUkhi7azOlNTyfYx86BHdtJDG/N7FdGcXZQKuMe7s1PaVGcXjccW3IM23Ye4MY+zzHywdYVbEEnv68cyYgvz2TF3F6EV+IFZQV3TC+XwAkTcDrsJCakkZSSjQMzvj6QbXOvJ2OxWvH3LRTsmnDdYdDfz+r6XxnyqWMey38xAit570Z69HqJ8x96idEPtHB98OTISubZAX346kgYc5ZOp0WUv2vfM/esp3OPWbQaOZunb2xY7PHYs3bzzKDx0KIjzw25iW0fzmPYrF+YuXwOLWpZwHGYKUNH86vpOmZM60xEpdUbB6+OGcjSn6F7r/Zc0upSWjSsvKApbrcR8o/l8oHTGX7PuSW3pSODVc89yQeZLVk0oe8xR7Qcs1PoCRKosMCpE2DlJP7NM4NH8N1+B+NfWcbVZ4UQ++NrPPzMKvybnscZUX7E/buDbYf9eGbGVG4I/o6+43+he88b+WLBTCLueY7Bt51RYVFtQAISKIdATjb7DySTnXdDQRORtcMID7TidDrIyrSRkpJBanpO/oCWYjZvtvrSsEFoieuIFn5JtQ+w4hvcwpIJvfHc3Mf9iSXkpMSSSgjBgcaaEw6+Wzmep+f9xPPL3ub6M/zyjtOZ+AUP3DOJM4YuZOwd9SDtX57o+gj7mt7G6pf65o0kcib9zMOdR7ItyU7UlT1Y+2JnLI59DL2nL4euHctrQy/GioMtS0cwcFU689+fTdN9n3Jfr2mc/fBYxne8AKsJbNmZZDt9Cfb6RHf9vGd5/rXvcWLmgTGLGHSjEf44cTqcuY1p47uX+vPUx05GrVjIzXWPPUoi6a9VdBn6EZfe1JIv3lnP/SOLD7CyU36mR/tnqHPfOF7s/T9I+JOHOzwGtw7i1eF35KWjKb8sotOjq0nMMXGFJ8By2klITCUwOAgfi5n0PT9xT89nubjbU0zsfV2ecdqW5XR65DXibSYuLRBg3c+3aTey7NV+RHg+FTEZNyDX49QUqGkBlo2PJj7B7K3+tKu3k9d/b8DcYgMssKcnkpDtR1iwr6uWxf68kK6PvcP9U9/ioVYBJCUk4hcY7BrNYYTZT/Uawp7GN7H6pX4V+3txxDKpy0NkdJrEs3caI1f1kEANFTDWXdiXRBZ+hIc4SUzOLhbCZLESVSuEEONuOZX4H6v/IsByZCbwVL9+7Am5nCVThxJohdRDn9O9y0QOZ1tp89QrjG1rnI84+Hr+GEZ9GMvCJVNpGukOtYp72LKzweK+JfaXy8fxzIKfmLz8TS5v7D7vstuysZuslTvFzxHP4x07s7vlcFY9ez1lm2Dg3vuc7GzMvr6lLgqbF2ANmMbwe5uV/AeSk8LLgwfxhf0c3pz7VKl3nayhf2U67BMucIoEWLZE5g4bzOu/HMHkE+gOsJr68Obw/sw/fAbvLB5JoMVEyr9b6N1vBOfeN5Knm37FU1taMW1gG76fNZT3fDswvs/VJ7wF9IYSqOkCaQlJHEnyLMruDrCMuzUfjc/AZvdkHaUrBYWFUCciP785lmm1D7D2Bzaj8zVncjApm+gmLWl746WE+nkCHgeZqWmkJh9h1YyJvLWjPgtfHcOZIflnnY4D73Bv5wVcPm4Fw68OhewYxjzYj422pqxcM4kGZrClHGLqE8PYf/rlWD55n12X5gZYznSmDOrJ5+ZbmDu2M7Wtyaye8DSv/9uQN5aO5p83JjN0+TamTHmCmK2/82+yg+atr+Gqlg3yFldM3LKW/s+v59qOF7Fu+lraPesJsPKbJmHXd65P/+re1o9Zj99VptX3jVQzI8tO7NZ3efix+bQvIcBK+WE6dz/5DX0XreT+s4yhIZm8NeQ+ZiVcx7qlj7tGZCTt+YlH+o/hottv5pPVH9NyUO4IrNxddORkkZaWxvav3uGJyavpOmYGvduc5fptyv7feGzASM5scyNfrfmIsx/yHoF1P1/EtKTLfU1JjMsk6vSW3HpTayL9Ncb3WH+YJ+fvqy7AsvoH0aBuQIl/G56LQ4fDSezRJCzHOT0nxwGn1QkvM7/TlkGGw4ffpnflyY11Sgyw3Bt0kpWeTlpqPF+/9hIzPjcxccnLXFLL/ffgdOaQnprOkR0/MnLkDBq0e4RJA24quC8Z+xjxwECSW1xJ4JHt/LIrlqhzrmDAvQ1YuXQ9Ow4mU6f5tYwe9yjNIiykbvuQTo+u4Ol5M7H88gazXv+SFIdRP3049+buPNfvesr+n4sys+iJEqh+AscKsEwmAoIDiQr3x9fziVklHsV/EWDhzOHLOaMY/WE8M1+bzvkRVr6fMYgxv5xNx6bbeW37BaxcMpBoZxpjBz7MjtAbmT+xJ9+vfJnl723iUGIaWIJofvXdjHisI7UtqTzVuyfOqx+h+a43eO3Hf8jItuMfGEhk4wuZMXU460b3YkN4H1aMvo6/Vo7iybUO2lwE332zleQcP1rd0oVRg+/AP+MQS6ZO4/3vt5PpE8qF115J5k8bMd87kamdmuZ/uLbvN/oPeZ59R1NwWv0IDK7LsBkzOH3XWma99gl//puA2S+I5pfdwOOPdqNhUCrzH3qIH+pcQePkbXz5RwLD5i3njnPd07WNhz1hO1MnzuHTn3diDT2Nluefya9ffk6bwdMZfu+5rJk7kTUbfyUmOQOTbxgXtLmfEQ9fwOx+j7Fxfwo5TjOBAX6cdXMPXu5zKXMmTeHrX3eTkpmDf0R9bukymL53NM8beV6J3UibkkAhgVMhwHLy67uzeGrpPm5o5cc767fmjsAKYsuy0Ty6JolnpzzHZY2D2fntOzw+dhl3jJhFnyscjHpyBqbatdm3M4Eeo0bR5qzKG5mpriYBCZRNwGHP4cjhJDJsecOwyvbC3GdZ/PypVzuYwoPhS9tI9Q2w0mN49OGBbD6UTWREKGZHFglxqTTv/BTT+l3t+gTu4DcreOCpV123xbaGNeSZaVO48azwghe5jiMM7/wwm7PPYcTTPbBt38js1z4hwd6YGR/O4X/WHL5fOZExb2cw7ZWHWdKhD9svyQ2wjPf49UP6DZlOnD23Ucwh9B77Er2uPZ2Ppj3D5PW7OSvEypEcEyZbOnEpPvSeMo9u/wsnO/YPBj74BKf3epaHLtxHz4cXcXuRACuHd6cMY9J7hxi7YAnXnxVcrkbfu+ntUgOsmHeepv3Lh3luzSLauBbncfDN+I48/eO5LFs7lsbOdBaOeoT3M29hycAIuvR8iRbeAZYzjuk9erB6VxaYrJx522CmP34LEb5mnPZ0Xh/7KKvir2HxsEb06PZCoQCrIx/+5W4/i9NGXFwiF7V/hKlDbq/YqJJyCenJJ06gaIBlrBXjH+hPVHiAa7pFRlomSSmZZNkcGGFTfqkzU7thBCSnEJOUPzLCbDbjG+BHraigMt0950QHWG5bB99PevCYAVbyPz/Tpe9I4tLtmKwB9Bg5iZ43npM7XNbBdy/3ZPiaQ65pxUFn3cKcqY/QNLzgWANn0l/0vGsw/0Scz6S54zj7wCoefPR1UkPOZ97Scfj9uZz+o97itifn8ujtZ/D14hd4cWM2i+Y9yPiOQ8i8fyZzejTFlrifzQfMXN7iNP0tnrg/EL3TfyngzOHQv4lkOIsZgWUyERIeQnRY6QuxV2T3/5MAyxiBtOcTOvSYwbnD5vHC9WkMvGcYdfqOp2eTnTz0+DIemb2CG6J/o8eDE2j95AIeu6keW77dSHrtC/nfmRH88/UyBo1eRZcJS3nwEiuDOnbGdukTzB1xA98VGYGVzvju9/GJX3c+mH8/W2b354k39nFTv2cZ/WArlj43lCU/JTN7wRxsmxcxZNJHtBv8PI+3P49PZo9hwupfqHf/RN545KKCdclxiCHte7K/1dOseuYasvf/TreHnsL/wnuY80Jv0n5Zw6AnFxB093MsGdSIF9r14JP0IG7u8QgP392a08ID8pvOmcUHYx/hxa/T6Tt5Gp2am1g1fjhzN+6l3aNGgNWMHzZuwO/MVpzXKJTNa2fw2LRPeHruSm4711JkBFZORhKffLaZ8664nAahZl59figrfzMz/9UZnBGuD+sq8jej15ZF4OQPsFJ3rqfP4MW0nTCLRlsW8MziH3MDrFCwxzP9icdY/dOBXAwrZ7Xtz/ThdxBmAWd2Mn/vOEjdpk0J8yuyfkNZAPUcCUigEgSctiwOHk4ly5OXlHGbZquVunXD8DemsZXjcQIDLCe2HKhXp4SFxgvvtD2Tr957n8zTLuDKC5rgY0/hgymPM+XLAKa9NZNW4Sayk4+w5a/9ZGcm8817q1j/l4lxM1+mdSOvkxVjAcBfNzJ9xhI270vjnMtv5a7IXxm/MYAl70wh8Kc3GDRpPX1fnMLNZ6Ty5M0P5QdYjjimDBnGhuQz6df1RqIsaXy26lU221owb8FTbJkzmjGrfuGa/qN45r6LsaYfYcyjQ9kVeDMLp3fnoxcfZemBi3n1pe44960pNsBK/X/snQecFEX693+T0+7MZjbAwpIlo4IBVDD/zelMmEUUFQGzYlbkFD0TIoqK2ePUO7NiFkVFkIzkzOad2cl5pt+3urd3etLuzAbY8PTnvB1mqqurvlVd1fXr53nq709wxS0LkHXOo3jppsPjgrfXbvgJT7y+BEEW+VWmxuGXTsdlh+c20mpOwLJ++xjOfmwL7n7/TfxfMXuYCuHb+87Do5sPw+LFd2Pnotl4+lcOz85/CCU1P+DMK2IELARRvmkjyh1+VG1ejnmvL8GEG+7DvRcdhj/fnYs5X1vx5LzH0NfxB86aJBWwOCz/5jPUZw3FuBGl0ITt+PCRW/Dy38V4/X9z0a95L8k0ujEl7RgEIgIWG5BMJj0ydEqo4naL4hAKhuH3B+By+uD0BBDmogUslUYNY6YWeq0SSqW8WZEl3gJL1uD+I/6VQyZr3A6Ct4ZiR2RRySEcBtK1wEpHwAp5Hdj49za4vW5s+fVjvP+zGdc+/iz+MVIYE+37N2FLpRvO6u1YtOB9qI+4EAvvvzSq7qKAFT71Frx19xlAYB2m/N8dMJ/2BP5z6yg49q7EtdfNwqgrn8D9l47EUzOuxLa+N+HFaYMxf9r1+Lw6H0ceegiGjRyFEyeORY6OHvg6xr1DpWh/AhystVZY3MooF0KFSoXc3AwYNG3rMhhbn3gBq2VjVDpB3IVBzo1Xb70K71aOx+xrs3HvE5/hsZcX4ohsM264cgaKz5mJ84IfYOaSPLz23iPopwX2rVuK/3zyI/bWOuFx2bB1226ce+eLuPmU3PQFrA/kePazF3G4UYYV783FzDdW41+vvIjy9+7EU99osfDT5zDEKAfn/AuTz7oXznOaF7D2/vlvTLn9DUx6ZCGunsDidfnx9u2T8MqmUXjv42uw6OyrsLT0HHz60lToY56JOW8NZl1zM7YUjMeHz97Cj681W7/D5KlzMe4mwYVw2/Jv8N+vfkOFxQmXtQ6bd1Zg2pOv46KxpjgBKxz0YtkXH+G7P/6GxeGDuWI3Kr16zHt9IYYWkn1r+9/X3f0KHGzVFpg97JlGhoy8bBS0MJJ5fBD39h+jQj4LZk+fhpoBl+OpGafgz/f+GRGw+mvx++tz8Pjne3HapEswotiA/et+wZufrcF50x/C5JMHdvfGp/oTgQ5FgLns19U64E7REkup1aAg1wBtc1ukJqilIGDJIOeDlAp/ZTK21hM2yJH+x07n/+3mbcQiC0DpIpB9lv7HLCJYWvY3LQELbLvkIFQacXcgDhv/fR9ufGk/Hl68CMfmBgGlujG4avmqL3H5zGdxyX0v4rqTBPc28RCG9Yalpr8eL027Hl8pxuF/L1yPBXdOw7+X74lDY+g5EovuHYOp097H/83/AFOHCgu94NbFOOu6D/CP1xfj6L/nY/LcH3HNC/Nw9chivp7P3T4ZP5oHYeH9w3H9Nc+impmHSQ+ZCoOunIvXJg/h3xzMv2s6Pt6bjQVvP4n+LEBFzGHe8hteeOd7BBoErEMvmILzR+Y0pmpOwPLu+QQXXfUKJtz/BmYcnw/4qzHn0ivxW+lF+M99x+PmybdgS40n5qoy9Dv2Irw5+2q+3RSKhreIwRo8et7VWDngPHzw0Bm4dcpUrN7njCtz6dizsOjJm6DgglCpRAuSENa9PAM3fchh3lfzMJLWzR1q0GmbwnBwW13wKdQwNsR6SiXfcCgEtzsApUELmc+HoEwJPYs/k8rJDWk6uoDFhQIIyVQQtTyfbRemTLoB2ac/jKenHgkEg3wwaeEI4LvZ1+PhVfn47wdPIF/yEl8UsBRn3obXbjsFCG7A9f93G+znPoN3bxwC+95VuPa6e3gB675z1bjmwtk4/bk3cUFfJXz2avzy4y9Y9/dW/L3mL9Tkn45Fz1+DXDISSKOnUdLOTICZuVutAag1gMcXhkar5ncgbAePwThMB03AArDx6/m4ec7XKC0rQC03HG8unI58lQ/fzr4Zz27ToKx2B7gz7sS8GycCno2YesEdsI64GDefNwqK+q149ImFOHnG85h2an6UgPX7O7Nx7yt/4Mm3PsDRfVjcrAQWWB9qMf+rZzBCJ8PK95/CjEV/4emX56Pi33fhqSUqLPz0BUHAsq/ANWffB/e5zQtY+1b8B9fd/jomPSwKWD68ceuleG3rYXjvf1fzAtaygZfgi2evitupkPPW4r5rbsJmiYBVvXkJJt/4L4y/+VnceaoXV5w3C9pxV+Da04fBveM3PPj8h7jpiddw8dgsPDPtZvwQHIAPXprFvzHev3Q+rn7gOxw/+UacOrIYaz59DW8tq8ULry/EMBKwOvNw0WnKHvJ6YHEEwMkUMGbroW3hgHYwBCzbmtdw4S2L4RT21Igcci3OmvEg6hbPgfmQc/H6Q5P43zh3FW675mbYh5yPVx+4pNO0ERWUCHQbAlwYdqsLDneA3ywnzqlQJoNKpYROr0G2UQtRYkiXT7sLWKKYla6A5TXvwczp98E46jRceuaRCO5fgWfmLkJF4Rn4z0vnY8Hkmdjf+2hcct5EFOr8+OKN+fjvH+W47bm3cXp/Dx6//2mUnjMTV4/z4O5pCzHs3Iswto8BK754D6998hfOmP4Ebjt/BFyWGlTUOYQtHUOVeP7GR7Fr2Fl44a6L0ce0A9ec9yAcIy/BM7MuRKHKjg+ffhAvL/Xh4Y8X4ThsxLSLbsPO4hPx5MNXwbD3W9zx0FvIPeVevDjjCJjLK2DzBPk2Me/+Bg8/9gnGX/8Ypp47GnkGJeo2fYyrb1qAQ/4xC/+cekzE9ZFz44O5j2BNyaV4eNKIxFtFc2FYLRbsWP0F7nr0XZx2yz9x+YT+yMkxwrzlRzzw9Ne4bNaDOLokhHsmX4UNwUF46KGpcCz/EA+/vARn3/UkZp42FJaqctQ5/bweGa74EzMefAv9Lrodsy46Atk738JVz2zBif+4AMcMK0bl6m/x+PyP0ef0G7HwjjNRX12OWrtPOLd6NWbe9ypKz5mGBy4/FiW5Ltx79Z3wDz8Nk04bA1Svx5NzX4Wz7GT898XpaD9HjXRvAUrfFQgcLAGLC3lRZ7Zh5fxb8PhveZj9xkMYYTIhyyDD+vefxiubCzHngUvw8WP34qvqLFx26Rkoy1Vh1ScLsfDLLTjpjldw9/j9mHr9QvQ88TycPn4wUPM3/vXUq6grGo/PFt4VFbA4dQHrn5hq/BCT/puLj167FRnBGvz80w6MPf5I6BQc1rx9N6a/JcOCL5/AIelERO4KnYXqQAQOAoFkApa4MQ2QmpVo2hZYADz71+KSa+9BrQs4/p438MjpBfwLguDej3HBZfNRJ9fjnucW4PSRheDsS3HpWY/DdNU8vHhVP6xaPBt3zluKs+98IU7AWv/pPEyb+wUuvPUxXHFcbxiMOjx17T+iXQgTClgvQbPpXdwy5zOcdvOjuOOC4fjyufvw5H/XozgFF8JA+QZcfu1d0Iw4Gy89fh0cKxdj6t1vIOcfj+K1qT15F8JkAhY4P76aPQ2P/+TCdU8+h0lDgXceug2v/lKBM259DndO3IPzz3kWQ255GY+cX4pvXroXj737F25+8jVcfFQe3rlzOl7ZGMZDz83B8FwNHEv/hav+tRm3v74IZ/ULY+60Kfhyp4IErINwj9ElW0cgmYDVnmNUOODB/n2V8DTsCrvqy9fx4icbMe2Bf+LUI3rgjek34VNLAe7/5/04uozFwPoUd89ehAFnzMDT009pXYXpbCJABNqNABtPmIGC1xuEPxjiN7JTKhXQ6pRQymWQt3KXHKmAFbG2akMLrJYKWGGfE18tfhOffrcc2/fWIKTKQP/hR2DytOtwZG8tVn/+Ad758hf8vaMcTr8MeT37YsLZk3Dt+UcA5hWYes1s9D7nLjx8VT+8+8x8fLZ0DWqcQeQU98Vxp1+Aqy44BlnqGBuPcC2eu+J6rB05Ga/ecRrk4LDqq3ex8P0l2LavDn5OidySMpx8/qW44bwj+QfAinXf4vmXFuOvLRUIKDNw+PFnY/q0S9HLEJ23Zdf3uG7qyzh/9su49LBsPm7Oz89cjyf+6oknn78Pw3IkPnXhCsy+6hZ8bRmDxZ/eBd7zL+awbfkQl9+wEGaJmZ5cbcRDLy5AadX/MO3xJbjy0RdwyZGF2L/6e8xb8D5Wbq2AzJCPMSecg+lTzkYPQ7QfX7j2L0y+ajaGzPgXbj+pD8KWTZj//+Nj/LJqE6rMTigzsjH40HG4YeqVGF6SGVWisHkdrr/iAZRdPwf3nsV28fHhm3dfxUdLlmPH/loEFXr0HTYG19xwLcYPym+3G4Yy7p4EkglY7fngxSylvnnqHjz68To+bpV4qHsci0X/noGV90/Ha7tLMP/dBxH842u89cHXWLN5N2yeEDLyijHulAsw9epTkSOrw4evLMLnS1djb1U9wkodSgePwmWTr8HJo3pGN6hnH2ZdeiMCZ96FJ68ZD4T24p5Lb0Xgkucw95wSuKs248Yb7sFh19wD/Odh7Dvudsy9biI45w48P/tF/Ph3BVsnQ6bOwclX3ogppw1Lecva7tmzqNZEoG0IpC9gsesKFu38J/YwGAZaImAh5MDiB27Dmzt74IU3HkU/0bONc+P5W6fiW+sQLJh3B0oM7GEjgCWvP4OXP/odcmM+ygYOwa6VS3H6XS/gyqOzcO/kq4GJszD7ypHw127Ds48/jZ/W7UXIVIZn5s/GsqduxvfZU/DOrGOxdfGDuOMDNV56fxbKVMDWr1/FzfP/wNMLnsUhmU68M+95/O/nDfBqsjD2hCNR8eWn8JzxBN69eWS0BS5nw0PXXIea8Q9g3rXDIOeC2LH0E7zw1mdYv9sMhc6IkeNPxYxpF6NE58Sr10/GT70vw1v3nZtw44+QdRtefOolfPHHFqiySjD26MOx9vuvccptz2HK8T3w4Qv/xLtL1kJlysPAAWX4a+nvuOmZV3HGyHxYt/yI2XPfwIqtVcgcdjoWzT4Di+Y8g6V/18KYW4BBvQz4fZMLLyz8F/rnkKl529w9lMuBIJC+gNWGY1RDBVd/+hJuf2k55i58CYf21MG550+8+NK/8evqrbB6gtCZ8jH8iImYcv0kDMonF90D0S/oGkSgIxJokYDl8Qa4WLdB8QEr1oWwpQJWR4R1IMu047cPcfc3mXjnoVNol7ADCZ6u1SkJpC9gxT94sXViMMTi9KW+C2GHheWvwfPTH8SQmx/FiUPzOmwxqWBEoLsQaAsBqyuNUeFQAC5vEHqd4ELgq/4V1148B0UzXsXcs1lIBjqIABE4kATaQsDqSmPUgWRP1yICRCA9AiRgpcfrgKXetuIHhPuOw6BcesNwwKDThTotgSgBy2yDgg/mJwTtE45Y9xxRwIoIWfTg1WmbnwpOBDo8AamAVVNn7fZj1L5VX+K2Jz9Gj5IiZBsUqNy2EXtDPfH8wn9ikIn8mjt8h6YCdjkCUgGrusYKhYKeo7pcI1OFiEAXIdAOAhYzdQ9HBXIXTN/TDeLeRQhTNYgAEWh3As0JWGxnCmHjCalrL3PPiQhY7JOw0UQXsMBqd+J0ASJABNIh0JyA1d3GKC7gxppfvsevq7eh2uJEZmE/nHrOWRjZKzo8QTqMKS0RIAItJxAlYNXGi+zdbYxqOUk6kwgQgfYm0LSAFR0Li5WFj5PVtAuhVMCKFrP8AbY4FLaMp4MIEAEi0FYEYgUstrWqOGAx0UqwxGpKwBKELBKw2qpFKB8iQASkBGIFLBqjqH8QASLQkQjEClg0RnWk1qGyEAEiICXABCyVUljfCf/JIZeLa782E7AEIYsELOp8RIAItAeBxAKWYP4eEbBiryy1wCIBqz3ahfIkAkRAIJBYwKIxivoHESACHYNAYgGLxqiO0TpUCiJABBILWKJYJQpYoqDVYHXVEEomRQsstjBkboSiBRYJWNTtiAARaD8C6QhYbCwTXQfFhaX470BQRlai7ddMlDMR6LYE0hGwaIzqtt2EKk4EDhqBdAQsGqMOWjPRhYkAEQAQscBqlYDFLwMb4l4JbxqFgVCIfSX8myywqMcRASLQPgSiBSw7lAp2nYgKL8a+aozpzltEiONWxDpCcCEkN+f2aSXKlQh0XwLRApaNxqju2xWo5kSgQxKIFrBojOqQjUSFIgJEgCdQVWODSsmsrJiAJePdB4VwMWlYYPHLwEbRSvjMhCtRwBL/+gMcLQ6p4xEBItDmBOIFLKnZu3Q3wsilpQKWIMCLQdxJwGrzBqIMiUA3JxAvYLVwjAoBRQU0RnXz7kTVJwJtTiBewGrZGBUMAYU0RrV5+1CGRIAIRAhU19igVArCFROtRAFLjInFUsZ9jg3inkjANmkS4gAAIABJREFUEgUt8S8TtPxBjh68qPcRASLQ5gSkAladxR6zRb34EMYPZw3B3IUiRBaVvDkWxelr85ahDIkAEYgea4DaOlvMFvVpjFHMSpQWh9SpiAARaGMCyQSsiFWDeMGmn6OYJTsJWG3cOJQdESACUQSqa5mVaLxwlYaAxT+aNboPRj6L30X++pgFFj14URckAkSgjQnECljC7jnColB4+BLFK/HCgmAVa4VFG020ccNQdkSACDSMNZExhwlY7M1hi8YoErCoRxEBItAOBGIFLLbDV0vGKBKw2qFxKEsiQATiBKzoXQilOxLGjl0N68FoC6ymBKzoIO4kYFHvIwJEoD0IRAtYDkl8GcE/WjziA4+yQU7YcIKJ7yRgtUfrUJ5EgAhIXQhr6+xQKgVRXRDZUx+jaHFIfYkIEIH2IBAtYNn5+DI0RrUHacqTCBCB1hKorhXGKCEGViQWVsRwQWrEkEDA4pd9fPyraCErsgthJBaWPxAms9LWthidTwSIQEICYuw9s8XR6J4j+kXHnyDjxy020Inx+lgaFqePTN+pgxEBItAeBMRnpVoz22giEl9GiOEgLBaZkC5+pjGqPVqB8iQCRCAZAVHEqmEiO41R1FGIABHooARqatmLwPgYWFKrUdEDp/Gv1AJLFLCkQpa4A2FsHCyfnwSsDtoPqFhEoNMTkApYzbnnCJZYoktPRIAnAavTdwOqABHosASkAlZz7jk0RnXYZqSCEYEuS0AqYNEY1WWbmSpGBDo9ASZgqVTRboOJdiHkXw02hJKRCQIWL1nxABItBKPFKyGNIGAZOz00qgARIAIdj0CjgFXPXAiFbVXZGBWrwIslb9CvwKxFmWLPzicr0Y7XrlQiItBVCIgCFttogsaortKqVA8i0HUIRAtYLXuOCgTD6JFPO6V2nV5BNSECHY8AsxJVKYUxSnQbFAO4x1leSQWsWOEqXsiKdSvk4PWRgNXxugCViAh0DQIRAcsJMbCfULPkO3zFjls+P3MhJJG9a/QIqgUR6FgEIgKWg8aojtU0VBoiQAQkBglscahWiQJWes9RzJK9Rz49R1GHIgJEoP0ISMeopiyvIht5AbwFlrDw4/8/wd/EMbHYoFaQl9l+taGciQAR6NYEQqEw6q3OhhhYQmA//tFLJsa8Yn+FcUuMNyO1xAoE2RhFD17duhNR5YlAOxIIh8Mw1zsb4svQGNWOqClrIkAEWkCACe11FmbJzl7+tWSMAq31WsCdTiECRCB1AnVmBx8DKxLEXXAnFNd8iXZQjROwBDErkTthtJAVDAEZeg00Gn5rCzqIABEgAm1KwOnywe8PQC6P+DxHW2BFX04YtwRXQ/Y5FJbBoNdAS2NUm7YLZUYEiIBAwOX2w+vzQ5HyGMU/YfHnNo5ROg20WnqOoj5FBIhA2xNo/RgF6HUa6LSqti8c5UgEiEC3J+DxBOCJeo4SY2FJ4l1FiVm8rBWxwIoWroSHLOluhOLv0l0KQ5wcmQZNQ/yH+DaQbuPa7VuIABABIpASATbu+ANBOFw+KOWCKBXZSrVh4OIDt7PBLWI9KmYuHaPCbIzKYGOUotGCK6VCUCIiQASIQBICbT5GsecoJY1R1OE6DwGpK8fBKDWtL5qm3jhGOX1QKlr3HCWu9VQ0Rh2Mrk7XJAKdnkCi+YKNUYFACA53/Fov4kYYWfNJDRj4+FiiC6FUwIoWs+JdCEULB5ZZmAOCQa5x+3rRhafT06YKEAEicOAJyAC5XA6lApDLxC3opRZY0Z8johU/avH/lArvbJALczLJGHXgq0RXJAJEoAsR4McoGe+S09IxSnzGYovwxjEqxCEciox5XYgYVaWLExBejjf4+LdbXcW1SLtdoOtkHDNGieNMVPwYMSaDpNbSDb1ojOo63YFqQgQ6EgFxvpArxOcoYf0mBm3nZxM+mLvUhTB+HRgjYEkXgbFuhMJvonWDuDNh5LtkuxjGLiwj/44sNjsSWioLESACbUEg+vlIHIjEnCPB2Jv2c441IY3sRhgtlke7DyZ7EBMfyiIPZ2J5pOIXjVFt0f6UBxHo6ARojOroLUTl6zwEIgJWAm2kRdWIzPHdV9ilMapFXYdOIgJE4AARaO0YJVpbsReDongVa20Vu4EX75UjtcCSLu5iF3rSBR/bqj6xe2GsWCV9YxKZgOKttLrv5HSA+hddhggcYALRb2MjA1yqQlZiqyshgLvgOig9Iu6EUiE9Eg8rWrCKtdSKFrGEtLG4aIw6wB2ILkcE2plAsjGKf4SSjDHJxHYao9q5gSj7Tk0gdq5PrTKxL59SO6urpuqgY5TkIUnaXvEvDuk5qqv2TKoXERAItM0YFTFkEDaaiHYhTBwHOYGAFRGhIos+wfJK/HfsYjB6AIteHEoXg0IeiReC5HpINwMR6BoEEr99TfR2NtEiUfxO+lv8gpL/piFLafD2yHgTK5hLx7DIGCeNo9Hc214ao7pG/6RaEAEao6gPEIH0CLQ+5lXsnB65fluIVl0tJtaBGaMEt53I2k546UfPUendG5SaCHRHAk2NUYILoJRKorVddHzjWJdBFk5GWOtJ14+Sz7EWWLEDV8RVMHp3wsSiVUTkakqVF6tEC8Lu2OWpzt2JQPwAl9wCK95kNEIqdmCTMpRaZEUL7dKHsaatrpI9QNMY1Z16K9W1OxJo/RgVcWuOfdiSPutEC+7i8xSNUd2xz3WVOrck9lWsEJau8JRu+q7AmsaortCKVAci0HUJpDpGJYtr1dT3kTkjWhSLs8CKPHDFW11FVHqpmCV+jqRPrt7zv8S1IC0Su26nppoRAYkMlWAnwOZcdSLufFI3RGH3wcjOOoksqcQdChOJ7emOUdSKRIAIdAcCiaxE2mqMijz/iM88NEZ1hz7VuerYmvhVrbfSSsyqNaJV11tfNDdGJdp6vrnnKOGceMODyE7P9BzVue5jKi0ROBAEmrbCkpYgRnziTxQCtYt5JDJUkH4XO7/IvL4gl2hyCLPtBSViU/QCURChpGniF5ARi4do64ZoAavrTS4HosvQNYhAxyfQsoEt8WIxahgUTd5jvK8TjWNt8dBFY1TH72tUQiLQEgLtPUbFlonGqJa0Ep1z8AmkF6C9OSFLvA9STddU/Ztz/T/47FpXAhqjWsePziYCRKB9CSSzvhK9amKND4TSSNd6cjR4CyZ3F5TsSijWJqGAlUisYidI3XNiH8SiXQ351I3EYicYWhC2b2ei3IlARyeQ2De6YVhL4O+c6IE3OnaDcK40XaIxSuTSfLDRjk6QykcEiEB7EqAxqj3pUt6dgUDq1ljJ41s15zLY3O+ROTv1jVS6yxqDxqjOcBdRGYlA9yAQOx7xMlUTcbASxbZqygpLyE/yMoVZYIkLv2RmutHCVUScYpMEx4QqyWwhLgzjF4/SBiQrrO7RnamWREAk0PSORHGmoTFPzsLvkV1Nkz30ijE5mhKvpEJXbPt09be51B+JABFIRoDGKOobRCB10YpfTjQTFkA6/zcnQEXiwUVEq8h6o6nvmmq1riVm0RhFdygRIAIdh0By66v43eIFd8HYXQtFV8LIXJHIrTC2xnwaUcBiP4bD4YRUpNZVYoLYtLFppAvBVBeFXWui6TgdjEpCBA4UgdY//EYr7PwjsugyKEjtcQOgVJCSDo7J3JqlLNLd/YjGqAPVk+g6RKB9CByIMSrRwl4ca5KNUdJxjMao9ml7yrU1BFonnrD5OJnLYKLfmnsJFS1oxQtdranpwT63Pcco3uaA95CJFx9pjDrYLU/XJwKdg0DzY5R0vki8I2H0fCCDXB4rbskTvCAR+LAdChsFrOjduyIA44P6RQdrj4+VJUwkiYIBJgrg3jmaikpJBIhA+xBI5nqQ/M1uMkvR2CCk0Q+4yTaPaO6tcPvUmnIlAkSgsxCgMaqztBSVsz0JJBOw4u+PWNeQ6Dk7kj72BZIwh0vDjyTy1kjmwdGd53Iao9qz51PeRIAIpEsg2Y7z8WKWVLgS5o6mYyE3uhlKXQgjC77oLeelC0FhcokXqMTvEy0am3YnTASlO09E6XYSSk8EOhuB5PEyErsksPolf+gVat/0781ZWjX3e2cjTOUlAkSgNQRojGoNPTq3MxGIfusdW/LUgojHi1tNB2gXr5n8WT/RzsLiS/Cm5uvmraS7yvqi6TGKfyqKa1p6jupMdyaVlQh0PALpzBdNCVHROxBG1nCx30ev7+JiYKW2CyHLRBS2IlZYEcst6e9iMOVEgdwj6Tpew1CJiAAROLAEmnZLSC5oRQdsTyiDN/Ekm6pb84FlQVcjAkSg4xGgMarjtQmV6MARSLYDYfTiRCqYJBavYsWTaIEl8Q6dyV+mJ94oqruuL2iMOnD3A12JCBCB5ASSzReCO6AYpzh+vhDmh8jc0bSlFn++xxtI+Doi2a6CsYKVkE6YNJresj7xxNL82xLqKESACHQvAk29WWwZCbKwahk3OosIEIFEBGiMon7RdQkkj2+SOJaJsBgRFy7NBXaPBGtPx2Uw0ctyflXRsP5I1Brde31BY1TXvUOpZkSg4xBIzUo30RwhFa0i41WiuSRhAPhEApZ0QpDGuIqNkxUrXPG7EnJCIPhYCweyeOg4nY1KQgQ6JoF0H7iad0OIrScJWR2z5alURKBzEKAxqnO0E5WybQkki2ciXCV+63PhPpEGZ49sxsJ+E9+bR8Qs6foiNp5lohi9FGc3WQvTGNW2fZ9yIwJEID0Czc0XYnB2cayKF6+kIlYkRlb02BZngRW7wBMtrCLCVMSNUBCq4v8deSESbf4rfRuSXNDqKv7p6TU3pSYCXY9AvK908ztXNE+hqZ2Mmj+76RSJ39jSmNRarnQ+EeiYBGiM6pjtQqU6sAQSxzWJnq+TL0qiBax4AUW6GJHuJCwKXMk3kUq23uBXHzyiRC+lkltedca5nMaoA3sv0NWIABFomkDsmJQoBiL/akMSh4/5B/L/i3nhkVy8kslEt0OpW6Lkc6wFVqIdQMTvRGusiNsgPxUhHAbC7P/oIAJEgAgQASJABIgAESACRKBbEWBbm8vlbIHCu2PwdZeKW+yr2JdY4ndxLoL8joS0vuhWHYgqSwSIQLchED1fCHOD6CoYa9Wb0K0wmYAVH+tKeOMhjXkVDMtg0Km7DWyqKBEgAkSACBABIkAEiAARIALxBJhs5XB6oVKwT9ExTgSrqUQxsITvpNZU/PpCr+FT00EEiAARIAJdjwCbEZwuL9RK3jZLEsi9effCKBfCpqyvooO1cwgEAYNeLQnc2PXAUo2IABEgAkSACBABIkAEiAARSI0A88hwe3xQ8NZYwsJE6joYm4s0pAhba4TCgF6vhbwtYg6kVmRKRQSIABEgAgeBQJjj4PX4oVBE5gvpjoTJYiw2KWBFgrRH/NBFIcvnD8Fk1B+EqtIliQARIAJEgAgQASJABIgAEehoBNg6weF0Q6lgMUxiAu/GiFLRL86FuLqBYBgmo6GjVYvKQwSIABEgAu1AwOH0QKWMzBdS0SpewGpwNZS6ECYKyM7KKYhWwn/ivz2+ELJNNMG0QztSlkSACBABIkAEiAARIAJEoNMRYGsFu8MNtUpYkIhH0xuwsJhXbI3BwecPI4vWF52u3anARIAIEIGWEIieLyKuhMliYfEvRkQBK2JtxUtUjUIV+16cVCJCFuBlAlYWCVgtaSg6hwgQASJABIgAESACRIAIdDUCooAlfaMu1DF6t6po10Fh7cG+8wdIwOpqfYLqQwSIABFIRsBmF194xAZyl8bFimwKwsfLighYybarjQRulwpZXl+YBCzqi0SACBABIkAEiAARIAJEgAg0emrY7S6oGiywhJ0G47dal+KSenj4AxxZYFFfIgJEgAh0EwI2u0tisctEK/G/6J1soyx6mYAl3fkjkRuh1IVQsMgKw+fnSMDqJh2LqkkEiAARIAJEgAgQASJABJoiIK4h2IJEtMCKBHCPjofF8omOtSu4EbIYWFmmDAJNBIgAESAC3YCAdL4QA7hHRCzx5Udkp0KGhLfASrb7oDixhMOCX7pUyCIBqxv0KKoiESACRIAIEAEiQASIABFIgUC0gBVZeEhjmQgWWUJm0pfm4pqDWWBlZ5GAlQJuSkIEiAAR6PQEbDZmsSu1vIp85t0FZdGWWCkIWFLRKhILiwlazEedJphO32eoAkSACBABIkAEiAARIAJEoNUEpAKWUiFaXEXcQSIXEBQslp4tTiIvyoFAkASsVjcEZUAEiAAR6CQEmIClVMogl4tWVuLn2JhYEiFLaoEVbcobvfug6DooBnX3BcLIoTcknaRrUDGJABEgAkSACBABIkAEiEBiAlw4BI83CKVaBbVSnjYmqTeHlb1RV0biXslkQn6STQkl7oMsnejpQQJW2uDpBCJABIjAASbAhcPweAMtni+kxRXnC8FtkM0Twg62UndC0RKr0SIrmYAlFbOiY2AJVlm+AEcC1gHuLHQ5IkAEiAARIAJEgAgQASLQ1gQcdXWotPihzsxEn6LMtLOPFrCcEgFLsMASDmFREh17l30v7EDI/gaCIA+PtOnTCUSACBCBA0fAZa5DudkPlSEDZSXGVl3YahPmC2ncq+gYWFI3wobP0QJWZCfCpgQs3oUwmLqAFQ6E8c139Viy0YcAm7wUMowYZcTlx+mhTf8lT0qQXOVuTFtghsaohFYJ+AJArzI9LjzVhH7J5uVQGJ98Xg/tISacMlCZ0nUoEREgAkSACBABIkAEiAAR6MwEPDYbymvd0GWZUJKnT7sqTQlYkbfngoglHPG7n7O1RzCUnoBl3u/B4u/tWLM/BE7GQZepwtmn5+CEvu3/HO+yefH6Ej8uvsCIfOl6JuTHnKfMOG5qIY42ivVNG2ncCZzDi5e/8+HKc03QAfj10yp8GDLiX+fq0U7LqdYXmnIgAkSgyxHw2m0or3FDYzKhZ37684UUSHoCVoNbYXIBKzKxiL7p7K9ojcWCLOZkpxZk0Vzhwt0v23Hp9T0wsVgOj82PNeXAmCFqyEMcXJ4wghygVsuh1zBneA42FweNGvD6OajUcmjlHJxeDgqVHJlaYTII+MNw+TjI5DIY9HI0WCvzv1l3uXDTIituu7EIhxbKEfYGMH9RLf4M6PH8TVkwyji4PWEEQoBcKUOGTg5fvR9zX6+FcVQ2rjxCC1OGHAFfGN4AB04mg14nh0bR5fogVYgIEAEiQASIABEgAkSgGxPgdwAMhKBQKqDgY5Gkd8QKWMljYIkug9JdCAVBK10BK+QP4akFVag06DHrsizkq4Hdm12wmrQYli+HKyiDSSeYfNndHDIMcgTYs79MBi4YhkwlhyrMIayUIegNA1oFDHIOLm8YwTCg0cihV8v49YYnKIMSHHwhDmqtAjoZhz17HHjsTQ+mzsjDoAwFMtUNzII+zHrEjAkzi3BSdjRLnzcMT4AD2NpFJ4eqQXnyeIT1hkIpfM9e/rt9HMIANFq2DgKsO+y4/b9ezJqahx5aOdRcGE5OjpyGOjrdYQTC4NdNBo0MMnBwNKyn3F6ONyAw6uWNEmJ6LUypiQARIAICgdbOF1KO9VbBAkuMgcX+JtqFULoZSNQuhII4JU4igoAlFa04Lsz/zv76A0hZwLJWu3HPAivGnJSFk4dqUWySC28KOA7ffFaH/+3gUGrkUOGS4eqL81Dm92Lmq/Uo7aOBxhNAeVCJfllA0BvELqcKd07LQ5HZjWf+64ChUI2glZlXGTHtRC3EuSNWwGKX27Pejrs+cODum4uQVWnHy7/7kZshw859QZx1QS6y9zjw+jIPVDlqDCjW4tJj1Zj/bys0OUp4rEF4sgy4/9JMZKY/r1N/JwJEgAgQASJABIgAESACHZKA02xGhdkHjdGI3oWpvaCWViRewGK/RtwH2aJEugNhwzKgUbgSzmcuhLKU1xeuOhdue8GG86cW4aTC6IfzTb+b8fQWNV68KhMypxt3vODC9DtzsfaNanxvF4SjY07IgnxlHZa6lZCHgKPPyIduowU/VgCD8mTYY5PhlitzsP27Ory8OoSBJQo4zQFY1TrcebYW//3GhpXbQxg8VIPRR2bjjLIGNSqJgFW3341n/mOF3KQCZw8i8xAjbj1Fj/0rrHjhFy+MuUp47BzOOj8Hq78yw6xUQB8KoTKsxs0XGPD95xb8tD2EEYO1GHWYEXm76vG+PxNzT9fgp0/q8MleDkUmOSpsYZx1Vh5OKA3irifNMBSpoA2Fsb0OmHJjDxyevodoh+yzVCgiQAQODgG3xYL9dd4Wu5zHC1jS2FfRYhY/k/AxsSQ728ZaYEW7DoqB3CPCVUsELGZRtfYvO75e50OtPYSAUoFjx5twWlEAM1914qaZPTBcz+HLt6vwc04Wbh8O3PqqGVdPLsGRWQHc81wtjrqwCBcP5PDwk9UYclkRMpbV4st6FS6foEfY4sWCH7x4aGYh+hgEJIkErLrtTkx704oZNxRjdC6HfdVBOH1hrPrWjIqBObj3WDXmzK9G1phc3DheywtslZUBmN1hVO/1YCG7xl1FGEwD/8G5W+iqRIAIEAEiQASIABEgAm1OwGO1osLshdZoREkLXEKiBSwHmAVWdODdSFB3sfCxa450BSz7fjtmvOLGzXcX4tAYL5YNS+vwxGY1Fl5nhNzhwvRnXJgxKw+rF1bhd60eT12dBRU4LH65HEszs/DUxRnQ+L24bW49jj47G/01wPJf6qGcUIiBW814czMw56Y8cPudmLnIittnlKBP0IU757tx5wMFiIo8kkTA+u6jKnzoz8RzlxgQMrtx14s2/OPaPPzwdjVyjszFLRN0vGclBw6WuiCq7SywfgjvfGzDqZOLcGLAgSnvefHkHQXIlQHLP6vCmz4jnhwHXD/PgmsmF+GE3jJ8+l41flMYMOdCNW59xIIJU4pwdjGHl+dVwHlsMW4bSQ6HbX4DUYZEoBsRYC6EFbUeXsDqWdAgvrSw/vVWR0MMLBa8XRCypNZYKQpY0XGwBKusVgpYDRXiY2cFOOxbZ8cj33kx62QNHvshgJduLUCmAli/pArz6gx4dLwCt71mwS3TemKYJoD7XqjByVcX45SiMOY8XYXS84rA/VSDDVo9LjtKDWYMK1fK0bdEBXXDmJxIwFr/Rz0e/8qDB2cWYfeSKizx6XDhWC32LK3D5l45ePD4aAGrfL0ND3/pwWnHG5Hj9ePFJW48cEcxhppa2EJ0GhEgAkSACBABIkAEiAAR6GgEOA5+v7ALYQs8CHmXEvGw2pILWMJiJLH7oBjEPSc7tTfFHocXdz9ThzH/KMJlh0TH+OAFrE1qLJxihMzuxPRn3ZjZIGBtLTLigXOYlZkgYG0bWoD7xqsRsjhw08seXH6REbznn0yO/CI1Nn1fh/d3KvDEjdkI7HPhloX1mHFLCfqF0xGwOHywqALr+xbg4eNUCHgCuP/ZahxxZgF++qQGR5xWgEmjBT8SZ50PD7xWhwGHmXBkLzne+ageE64sxmlwYMq7XjxxRwHyJALWw4dymPZaPe6cXoJDC2RY9UU13qhR47krdLj1USsm3V2Iw7Uc3ny5ApWHFeLuwykeSke7/ag8RKBTEWiYLxQqFRSt1MObErDidyNMEgNLnIBEd0JBvBJcC8XPTIhiu4SkGgOrdq8Tb/zqx8A+amTrZNi+0YnfzUo8dnkGXltkhnFMFo7KCePLr2woOj4f5+QFMZMJWLf0xDB1AgHrgmIcWl6PF/4M4sJTjDByYeytDWPiuAyYVELzMwHrxtfrcdpJ2SgzAlZzAD+sdKNoTA6mTVDjs0VVWF9kwiWDZPjfhxb4RuTgoZM1eP2VamzS6XDB4RrILT7M/92PG/6RBctmB95Y5scDd5KA1aluMCosESACRIAIEAEiQASIQJME3PX12F/r4YO492rBG/VYAYvF0RK3QY+4EjKRS+rqJw1dwoonri9SE7C4EIdP/1eLT3eEMXGMAbkaoKLch5yhRowMuvDQFwFcdmYmnJvt+GijDA/cJ1hgxQpY24cWYNZ4NbhwEP98vhaGEUYc10sBc10A2YdkwPGbOaGANVjhxT0v1mP08VkYWqLG2DKlECKFt8CqQ8nJJgw1sFhUgLFAC/luK55ezuHqUw0IlrvwwUYZ7pmSjZWLq/FbWIOLx+vgrA8hN1+B+e/U45Rzc9E35MWCT5w4/bpinGH04LZnrRh1ahaGF6rhW1OHt3xGPHeKEo++UIOsUSZM7CPH519ZkTEqBzMnyDCTCVj3FOJwDQlYNAQQASLQNgQ81nrsq/VAm2lEaQtczqWliAhYYuwr0QJLdCtMyYUw1gKr9QJWOBjGst/s+HatB9UuDr36GnDZ6Ub0MchQX+XBa5/YsMsJjDjMhCuO0YGz+PDgu3bccF0+SuVBPPuuFadenIfhGRzeercO/U/Px9FZHDassOGtn93wqJQYf0wWzhuthqphXvSbvbhvoRkWFqRdLkN2nhonHWvEiYOEtxsOsw8vLbagRq3BRYdw2KjKwFVjNfDWuPHch3bs9spx69W52P2LBZ9sCWHMSD3W/h3ArTfkoqe2bRqfciECRIAIEAEiQASIABEgAgebgMtiEWJgZWa2aEFyMAQsnhnHYd2fdiz+3Q1bWIZ+A/SYdGImchDGOx/WYaUZmHiyEVtX+DD5chO2f1GLDdlGXMdChYDDsi9qsb9/Di4aJOxa6KzxYtHnVmys4VA6wICp5xpRvcKKf+9T4e7zDeDMPtz/lg03TClAfz2H336qx+KVPuSNycGsiZqGGL9BLHypFsvrWQh2dshQengW7j9Bi6U/WvHpWh9kJjWuOTcbQ/LkQDiEjz+px3dbAygZaMDk0zNR+acVby73In+QETqLF+PPycVhRmDV7/VY9LMHfY/IxhkZXiwJGXDTkWqEHT68/KEVG+rCGHKoCddM1EOPAJ5+w4ELr8pBLznwzWe1cIzMw/mlFMz3YN9vdH0i0JkJeOpA8NAuAAAgAElEQVRZDCwf1BkZ6F2U2guHZPVlAhZzOY8Eb2euhOILENGtsNkYWMkErMgOhOlaYHXmBqKyEwEiQASIABEgAkSACBCBrkyAeVn4fEEoVaqG+FXp1VYqYIkLkogFFsuLLUSassCK7EKYqgtheiWk1ESACBABItAWBPgN/XxBMBdCId5hy494AYuJVZF4WOI80kwQd6mAFRGtBDdC4T8SsFreSHQmESACRIAIEAEiQASIABHoSgRSF7BYrcUFT/Tu5yxcSTDEQpS07o1+V+JKdSECRIAIdGUCTQtYolthWhZYJGB15Q5DdSMCRIAIEAEiQASIABEgAq0lkL6AFXlhzq4txtslAau1LUHnEwEiQAQ6DwESsDpPW1FJiQARIAJEgAgQASJABIhAlyCQTMASArizKoouhOwz+4IErC7R8FQJIkAEiEArCLRIwHJ7Amx/Qf6yooug9HOs6yBLSy6ErWglOpUIEAEiQASIABEgAkSACHQhAm0hYIXDQChMLoRdqFtQVYgAESACTRKQCljs5YYQzD06eLsQ1F1wPec/k4BFvYoIEAEiQASIABEgAkSACBCBlhIgAaul5Og8IkAEiED3JXAABawwAkEZcrIzui9tqjkRIAJEgAgQASJABIgAESACvBeHeAgLEuFNeTouhGSBRR2JCBABItC9CIjzhVwu5+eLdrTAIgGre3Utqi0RIAJEgAgQASJABIgAEUhMgAQs6hlEgAgQASKQLgESsNIlRumJABEgAkSACBABIkAEiAARaBUBErBahY9OJgJEgAh0SwIkYHXLZqdKEwEiQASIABEgAkSACBCBg0eABKyDx56uTASIABHorARIwOqsLUflJgJEgAgQASJABIgAESACnZQACVidtOGo2ESACBCBg0jggAtYChahkQ4iQASIABEgAkSACBABIkAEujUBUcQKh4KtCuKuUIbhcXoATg6ZXNg6vaMcoWAQBqOexRpO6Qj4gpArNM2mZey8Pi8yDBl8QHyv1wu1Wt3seU0l8Do8UCqVjdvPp5pZmAXkl4WhzVDyp3g9AWg0+ri28Lhd8Mm8CIdDqWbdonTBQAh6jYG/fiDkR5hL93oyaJQaqO0u+DL18Id8KZdDxWmRaTBi5cqV0Bv0KCoqglwmg8/nR0GPggY+XqhUwpo4GA7AFXDyzNUN36V8MUpIBLohAZ3cyM8XByyIe1EPUzfETFUmAkSACBABIkAEiAARIAJEQCQgtcCqqrG2SsDKNVmxaeV26DIy2VaGHQpy0O+H32/HsCOGQ5nCi3y72QWnTQ5ddk4z9eBQW12J0t59odFqsW7dWhQXl/ACVEsPv9sH604z9Dp9Wlmwtqwx12DUiez6CjgcHtTXK1Fa2jsqn917d2Kd7TcEuUBa+aebOBQMQ+fKQklZEWxeCyzu2nSzQJYuB8NW7kVd/17YprMjlKLopg9kY8LQU7Fq1SoUFxcjIyMDt99+Gx5++BH07i3w2LVrJ4wGDdRqFbxBD36p+IHvtgU5mdBpVGmXlU4gAt2JQHH4OBKwulODU12JABEgAkSACBABIkAEiMDBJtCWAlbVtuXQGUwNb+QPds3irx/0+aFQh9B3SBlU6uYFpt2bapCRVwJFM2JUOByGy+VCaWkpPG4HyiuqkZub2yoAFRv3IkObCXmqJmMNVwsEA1Bnh9BzkGCsUF7uQEFBX6hUEUGGWYktW/8jbJqqVpUx2ck+nw8qpYq3vHKZfRilKkBGwItNhXL4gt60rzmqRgnIFdjYI4xAKDXRTcbJ0Us2GIcOG8Nbxt1zzz0YOHAg/7m8vBwTJkzAuHHjsH3bZpQUFfCWV1WuSmywrIZKqUBhXiZvsUUHESACiQmQgEU9gwgQASJABIgAESACRIAIEIEDSqAtBSxH1dYDWvaWXCwcCsHpqMPIo0Y2K2KFQ2HsWlcOXX4JdAZDk5errKxE37IyaHU67NmzB0ajsSXFazzHZ/Ogcks58nLz0s6n3lqPEScU8u6SHk8AFeV+9Os/ICqfiooKrKz4GUF1+oJScwWy1tt4qyZmLcXci3x7lBh9+CCE1HKU23bxIlI6R1n2QIQRRrltN4LhYMqnKoJqjCmciA8++ABz587FJZdcgpkzZ6KwsBA//fQTbyU3dOgQhAIe6LSCu+hfNcth8dahKM8ITQoiZ8qFoYREoIsRIAGrizUoVYcIEAEiQASIABEgAkSACHR0At1NwGLtwYVC8AUd6DuwLzKymnfTc9R74Kj3AnI9dKashE3KrLBqa2swcOAgPg7Wju3b0LNXaaua37K3CjKPgrdmSucIhUJwBWwYOr6IP61inxX6jGJkZUeXfcWG37EvvDmdrJtNyziwOFNejxfBYBC5eTlgroRZyEcZ5Nir98EedDabj5iAWUaNtOjgzM/CrnB1yi6E4vn54VKMGTyOt7BiYtr777+P9evXY86cObxtm0wux5Ytm1BUkAOFQoF6nxkrq/+AQi7nrbCYNRYdRIAIxBMgAYt6BREgAkSACBABIkAEiAARIAIHlEB3FLBEwC6HGYNGDoA+s3kRi51jM7tQX2mDPrcIKm38OW6nDcasXGRmZoJZZHFcCDpd05ZbTTV20BdA5cb9yDJlQZaGKyETsOwuG/ofngu9UQgov2ePG71794+6XF1dHX7f9R0CGk+b9Tm71c4HTfd5fbzVFDtCwRB0ISOOrfXBMrQMu1CXsiWVXKbAEVvdqOvXE9sVZnCckGeqhzyowpDMMSguKuHdCAcPHoxJkybh888/w1lnnc1bynk8HpTv34Me+UK8s82Wjdjn3I1MvRa5KQicqZaF0hGBrkSABKyu1JpUFyJABIgAESACRIAIEAEi0AkIdGcBi9Xd47KgdEAv5BQ0F6xdaEx2jtPmQe0+B0xFvSBXRCx02G/79u7BsOEjeIufrVu3okePHq3qBdbyenjNbmQ048IoXsTjdiOs9qP3sGxoDerGWPoWiwvBoAkFBcIOfGJdNmxahx3+tQjL090hMHG1KiuqeNc8xiI7OwssHpZWp4VCpgBXoUK/4WVwBp2odVamxEWlUGH0rgBqB5dit3sfOAjuhyx/m9XO1y/TmMl/53K6Gj9LM9f6MjG27Dj4/QGsW7cOr776KsaOHcuzuOqqq/ike/fuQbZRx3/2Br34s3oZ/GEfSouy05AOU6oSJSICXYIACVhdohmpEkSACBABIkAEiAARIAJEoPMQOBACFrMIqqqugc1mTzv+USKSJpMRRYU9eJevtjjcDgd69stHbmEuLzylcoTDHGr3WhAIaaDOMEGlFiydfF4vgqEQevbsiZrqarg9HphMrdv9ff+GPcjSNZ2H3+9HIOxFZg81SgYkTrt6wz4MHTga6oaysvIG/H78vHEJ7Iq6VKqdUhqb1QZTllAGt9uNkJeDw+JCXmEuBhX0hWlvFbYVqeAKNO9KqFXpUawrRlDOYa91R+P1Wb7sYG6BrO68sZdcBmODmBVdUBnKlEORl1mIxYsXY8qUKbyV3LRp0zBv3jyh3Xw+bNnyN/r0Kub7wB7Hbmyt3wiVSoGiXCPk8tT6RUqAKBER6AIESMDqAo1IVSACRIAIEAEiQASIABEgAp2JwIEQsGpq6+Dx+jHxlNOhlOyG1xJOLMbST0u+gFIpQ6HEmqgleUnP8djtKOybjx4l+WlntXn5HvQYOLjxPOaaN2CAEDR906ZNvKUPE1paejjr7HDutyEjU7A0ij3sNhvUWTIMOKzpsn+3eTn66UegrLRfVBY7d+7AWtsycIq2scKSClh71lfAmJeB7CIhqH2eoRC9d1lgGdQHNp8VFndNk1gMqgwctrIcu44ZhX32XY1pHQ4n9HodLzaxoPHsL2/pJZdDrRHEROmh8utweMlxKCoq4mNzPfDAA7yl2COPPNKYzG63w1ZfiyyTwPmv6j9g8ZmRn50Bgy4+z5a2J51HBLoCARKwukIrUh2IABEgAkSACBABIkAEiEAnInAgBKw9e/cj05SNI4+d2CZk/vpjGeqqKlBW1rtN8hMz8bqdyMozoFf/nilbYrFzfV4/LLVyaDME4cPv88BiteGQwYfA6XTAYq5FpjG7VWUt37AbOoU+ynrK7XFDoQ8ivzQTpnxtk/lbPXb8uO0P6L3ZGD/kRBgyIrG5mIXcn+uXolK2B5Clt0Ngsos6zC543F5kGPXQmwTXPHbIZXJk6XJh0uYgd+MOVPfMRrXMDn/QlzArozYLo//YjW3HDkeFfV9jGlZmZtHH7KKYRRmzxlOpVXA4HMjKShxoPzdYgqOHT8SCBS9h5MhRqK6qwq/LluHiiy/GUUcdxee9c8d25OcKYpvFa+Z3JVQp5SgpaJ0VXasan04mAh2QQKcRsIJBYbBgDsdZJiMUCjmqa+rA3JF1ei0yMwyw251g6bKzmbmlHB6PF06nG0ZjBjQaNe9/zNLodBoYDKkFTeyAbUZFIgJEgAgQASJABIgAESACnZoACVjRzRfwuKHLV6F3n978OieVg1mFVe52Qp8diXdls9YhN7cHMo1GbNy4AQX5uVCqmhaZmrtW+do9MGWYeAsiT8CN7GINivoJYktzx6bqndhUvY1P1ls2DIcOOzxKpLPUW/Dbnm/gl7cuoHswEOJdKxUqBQpKk8cV06n0KHVpINPo4DMZYHZXwRFwxrmYZmlzUFbhRWWfXFRJBCxWD8bd7/NDrpDz8bCYqMWsqvLycxPikIeUGJ1/DHr37INFixbxgfbvuOMOXHHFFZg7dy4++ugjXH311aiq3I+iHnl8HqvrVqLOXc1bYOVlZ1A8rOY6Gv3ebQh0GgFr6S8reGGqvt4GrVaLQw7ph5Ur16Nv3168eMWEq9Vr/kZhYT6sVhuOPWYsPvviB4waeQh27tzH/3vJN0sxYEAfrFixDmedeQKJWN2mm1NFiQARIAJEgAgQASJABDoSARKw4lsjGPBDoQxg0KhBKTdVxfYa6HIjFmGMq8VsRv8BAxAIBLBr107k50cCqKecsSRh3e4auGrsyCnVobDMBLU29Rhg32z5FU6fi89NE9TjmH6nwiiJzcXEoL/WrsA+2WZAnt5Of2IRrTUOeGw+5PXKgkqrbLaKSrkSOfoC5DrCyN24DbuPGoYadxX8oYg1lkapRamyB2ReH3YpzAiEAo35igIWcx1kh93uSBIDK1IUnScLRw8+Hueccw4+/vhjaDQanHnmmfzuhNOnT0e/fv1QUVEOjRK84UUwHMTvVUvhC3lRlGeEWpU682YBUAIi0IkJdBoBa936LRgxfBBvUfXT0uUY2L8PKqpqUFiQh959SrBt2x6U9emJjAw9Fr35ESZOOBL79lbg2GPH4ocff8fRRx+GP/5YjQnHHYF16zfzJp+DB/XtxE1HRScCRIAIEAEiQASIABEgAgeWwE+rXNiw3QOOA4b20+L4wzNaVAASsBJj8/t8kMt9GDB8AFQaVbNsmeXR/m1WmIp6Nqatr6+HyWhEbl4eKioqoOTd3FoXS6lu9z70HZ4NhTJ1IcXstuKXHSsQ5gRhSsbJkBfohSNHHguVJCaZx+PBkhWfwK22QqvXNFtnMYHfE0B9pR1KjQK5JYnd95JlJoMMRq0J+R4lQjk5kHs8qAs74AjYG8vbm8vC4B/WYNUpo1AbtDZmxfous0YT68C8fnQNYlZThe+rGg55QI23336bDzJ/3HHH4phjjuXdEFm8MhYUfveuHSjqIVhy7bbvwDbrZug0avTIbdl9ljJMSkgEOgmBTiNgMZ7MBfA/H3yJE44/CjW1Fui0GphMmbzlVW5uNkaOGAy1WoXFH3yB/v168+aph44eip9+Xo7Ro4bg7007cNSRo7B3XyXq6iz8b3QQASJABIgAESACRIAIEAEi0DyB8poA5rxRizsvz0detgKv/M+C8483oVeP5oWW2NxJwErOm1n4OG1WHD5hRPONAqBqrx0qQ35UwPaqynIMHMQCvMuwcuUKDByYulVXoosG/X6oFDZk5aUupPyw7U9YPfVR2cmCSozOHoc+ZdGGBDt2b8f32/+HvALBha65o67cChbvqs+wYshasVOfXKZAj8wSlK7bBZXLg11HD0OVYz9C4SB0KgNG7XDBmZ+Fvw1O/rvWHEq/DhMGnoZt27Zh5MiR+O67bzF58nWYOnUqZs2axWddXV0Nn8eB7CwjOHD4teJHeIMe3o0wgwK6twY/ndtFCHQaAWvnrn3Yvn0PLzrl5WWjttaM7GwTQuEwPvvsBwwc2Af9+pbyu0K88dZHOO6YI1BeUYVjxo/BDz8wC6xDsfzPtTju2LFYv2ErlEoFDhkcvRNGc23qdPmh16kQCoXh84eQYVCj8btwGD5f7HccfL5gYzqdTgUuzMEr/U6r5N9gpfQdAK83kp9Wq+T9oT3S7zRKFiYste/kMng8gcbyaTRKKOQyuKO+U/C7ajR+5/ZDo1Lwvvnidy63nzdrjf2Obf/Kgg+63MI1WLqE3ykV/Pfsd5aO5atUyOO+Uyhk0KiVPHMxXcLv5DKwuojpPN4A5LL47/hdQ2LSpfIdawN2MP7iNVj7sQcxnVaV9nesj7AtkVn/EPPz+YMIhTi+vyX7zmBgcd1CfH8U0xn0agQCIQSjvlMhEAgjEAyB/c7yM+hVCATDfFrxO71ehWDsdw393S9Nl+I9wOrD6tVW9wDjzY62ugdYH2FbE0ffAzH93eWHRh3dt51J7gHWh5VKOdzN9fdE90WCe4DdT+y+kt4XrbkHUunb7F6JTxfkxxTpvcLagIVa1bXhPRAKN93f2T0fe1+wvsv6ZqJ7IK6/t/Ie8AVCyGi4f1KdBxLeA1oVP1a0dMxv3T0gA2tjce46aPcA398jc0PyMb8D3QMJx/yW3QP8mB8zX7Dv2v0eiBnf050H2u4eaN1zT9w90MrnnpbMA00996Q0D6RzD6gVcDX33BPzfMTmNVav2Gehls4D0ueexd9Y8MEPDmhUMjx7WxHe/NyKs441YmBp6lYz4vN2RxKwNmzYgJqaGowbN4537Up2tFcQ90TXCwdD8PkcGDiqPx/vt6nDZffC7dZAqYnE+PV43LyFEHMfZLsF2mwWZGSmZ6UUe017XS3yeshhMDYfS5gFb/95x3J+rRZ7GIP5mDD8VChVEXc/Znn2w/IlcGTUNGnl5bZ7Yam0IqvAiIzs5svR3PpO/D1TbUSOJgdypRoZe/ajvEALm9+GAn0RDJwKdnhR66riRaUWH5wMJk8Rxo+egCeffBKlpaU499xzsWrVKt4i67TTTuOzZgHd83KN/DrP6qvHqprlkMk5lBRk8c9kdBCB7kyg0whYn37+PY4YO1IQDjQabNq8gze3ZGJWZWUN+pb1wt+bd6CkuAD79lfhhIlH4bPPf8DRR43Ghg1beVfCr75eitGjh2Dpz3/i9DMm8rGz6CACRIAIEAEiQASIABEgAkQgOQGXJ4x3vqrHl785wF6mDOipxqlHZ+KvzR7cPim/Reg6koB13XXX4fPPP8eaNWvQo0ckIHpsxQ6kgMWuzRjZLNUYctgQZJiaFmt2rd+PrJ4Dooq8Z89uHHLIED50yo4dO5CTk5PWLoeJGtZt3oeS/s1bSe2tr8DKfesT9g15WMEHdB81YnRcQPel275CWOuPOy8cCsNW64Tb4UbJgMIW9bnmTmI7FRZklKDPqu2oG30IvIowzO4aDN3pgjwYxKp+egTDkVhYzeWX+HcZRhjHoX+fAXzw9w0b1mPGjJk44YQTMHPmTBgMbGMyO+pqK5Gfmw2OC2NN3V+o89TAlKFDtjGys2LLrk9nEYHOTaDTCFjV1XW8CyE7mJVVTo4JtbUWfhcIJmIxMctssfLB3PPzcnhrIKfLze86yEwwmV+y1+tDvdUOg17H70xIBxEgAkSACBABIkAEiAARIALJCWzY6cWL/zGj0hxAfpYSU87NgV4rh0YtQ68eat4aqyUHCVipUWOcfG47eg4pRk5WdtKTavY7AFkGVPqI0MXiNDmdTpSVlcHhcKC8vLxJgS6VEvndLqjkLuQUZTaZ/KtNv/A7FiY71H4DjhlwMkymiFUYq+vKDX9gH7c56jSXzcPvMNijTy50ma3bUbG5OjJLReY6mK8vRNa+amjMVthGHoKeX/+CTRNHoMJb3VwWzf6u92XjmCEn4fHHH0dJSQkuuOACPlbZ4sWLMWfOHF643LlzJzINaj5kjj/kx2+VPyEQDqI4nwK6NwuYEnRpAp1GwOrSrUCVIwJEgAgQASJABIgAESACHYiA0xPGd386sPhbG/xBDkPKNLj2rBz0yBHcvrRqWauseQ62gMXcBteuXcvX5dVXX+Wtr2bPng2TyQSlUomzzz6b3/lcehxoCyzptZ12C0r7lSCvWAjwnejYu9WGzPxo66R6iwU9exZDrdFh165dyMjI4OvXmsNavhcl/bOg1iaOfbbHUoG/9ie2vmq8LidDiXwAxgw9Kip2l9Vqxe/bvodHY0fQH4Kt1sH/7VGWvN6tqUuycxVyJfIVJhRXOuAY1B9ZDg6ODBn2OPbAExB2VWzpIePk6MkNwohDRvMuq1u3bsWbb77Ju7AyN8L169dj2LBh2LF9K3rkC6LlHsdObK3fhEy9BrlZ5EXUUvZ0XucnQAJW529DqgERIAJEgAgQASJABIgAEWhTAnfNq8SW3T4+4s/15+bguMMyII2V3dkFrMceewz3339/QmY6nY63gCksjBaDDqaAxQrqctiRX5SJnv16JSw3C2yu0BdF/cassPbs2YXDDx8Ln9eL8v27kZ2b3E0y1U7ksVajuMyYMPnyPetQbqtsNitFUIVRucegd+/eUWm37NyENdXLsHdrBcpGlECukDebV3slUCvUKDSWonDLPmTsLkfl+EOxyb+31ZdTBjUY1/tk/PjjT3jvvffwyiuvwGKx4MUXX+Qts5grYVVVFUIBN4yZGbzr4i8VP/J/87MzYKCA7q1uA8qgcxIgAatzthuVmggQASJABIgAESACRIAItDmB39a58Ppn9aitD2JomRaXnpqFfj3VcdfRquWtCih9sC2wmDvdvn37+Hoxt61ly5bhrbfe4uNEyeVyjB49mg+CLj0OtoDFyuLzOpGZZUCfQfEiFnO1s9mU0GVGC0vMfZAJIrm5ubwVFrP6YSJdaw6vwwaN1oecgmhXQl/Qj2+3LOPd3lI5soNFGD/8hCjWXq8XX/36CcL5rlZZ+aVy/VTSKOVK5Klz0L9ehaBSDrvXgvJcJex+eyuCusuQ4yvBoYPGwuVyY968ecjKysIVV1yBJUuWYPXq1Zg9+zHs27sXBflZULJwOZ46rKlbwW/SUJRv5DffooMIdDcCJGB1txan+hIBIkAEiAARIAJEgAgQgRgCgSCHz36x480v6qFUyHDMKAOuPy8nKafOboElrVhHDeKeDH7A44XaAPQf1i9O4NmyYjcK+g2GVF1kYqHFXIN+/Qfx6bdu3cLvTtjaw1q5Fz37Z0Oljrgk/l21A5trtqectTykxLCsI9C/bGDUOUxoW1//B4JKb8p5tXfCTI0JBcoclP64HBXjDoVbp0K1qwKBkL9FQpYsrMDQjCOwaeNmDB8+nI/tfM899/AB3SdNmoSNGzdi1KhRqK7cj5xsQZRcb16NKlcFWWG1d2NT/h2WAAlYHbZpqGBEgAgQASJABIgAESACRKD9CdRag3yg9vU7vNBrZZh6fi6G9dNCpUxu4UECVvu3S1NXCPh9gMyHwaMGQ6GMuNh5nF7Y6lXQZERvWOV2uhDiQigt7Y3a2loEAoFWW2GFQyEEXFUo7B0ROr/8+2d4g+mJTjqvEeMGnQijydRYZSa6Ld+wDBXctoMLOubqcpkCOpUeufoCZNbakLGvArtGlMHsqkaIC6ZdVkMgGxOG/R8WLFgAl8uFyy+/nI/N9vbbb2PatGl8XCzmzmo0qKHVauDw2/FH1S+8EFmYlwmNqnXxzNIuMJ1ABA4yARKwDnID0OWJABEgAkSACBABIkAEiMDBIMBxwI5yH559vw77awLo1UOFKefmon8Cl8HY8nUlAStV9h3BhVBa1mAwAKUqhD6DS6FWC26e4TCHqr0e6EzxQc9ra2tQVtaX37197Zo1KO3dOyqAeqocpOnc9XXIzAKMOUJg8fWVW7DLvA/BcCit7PoohuLQoWOjzjGbzVi281sENZ608mpJ4lAwBLPZgry8XHi8Hvi8Pqg1aj7ofaKDCVm56mz0sAbgKimE2u5ALeeCjXMhFE5dyGIB3YuDAzFy6Gjs2bOHF670ej1vicVEKnYwsXHnjm0oLszj/73LtgPbbVug16pQkJO4fC1hQOcQgc5AgASsztBKVEYiQASIABEgAkSACBABItDGBJb84cBrn1jgC3A4crgeU87JgV6bWsBsErDauDFamB3HheFx1WPY2GFQqhR8LnUV9fB7tdBlR7uA+nw+sP9Y0HS/z4+Kygp+18XWHjZzDUr7ZvCxmdixt74C6yq2wh/ypZy1KqDFEb1OQEFBxLWRWWGt27AWO0NrwcnDKefVkoQup0uIwyUDnA4nsnOy4XA4YTRGx/iKzZvFx8rPKELPzeUIKxSoHdQLda5quCU7Ffr9AdRb6pGRmQGDQY96ixWZmRlQNlhPyYMqHN3zJKxc+RfGjBmDvLy8RvGKuRUyDvX1FoQCXuh1GgTCAfxZvYy/RmlhdiP3ltSbziECnY0ACVidrcWovESACBABIkAEiAARIAJEoBUEfH4Or39mwde/OyCXA5eekoUzxifeUS7ZZTp7EPeW4OtoFlisDsFAAJD5MWhUf96ySjxq9lsRQia0hmgLneqqKvTsVYKMDCN27NjBC1jS81rCJejzgfPVoUDiSujwuPBX+XrUu1MPdM6Cmh814jg+yLx4MOujpRuXwCavjSqa3+/ng58zIyVmsRQOheHz+WHKSq8fi5ky0Upv0MPj8sIf8MGUZQILfp+KwCeDDAZNJrI02dBwCuRu3ImKfvkwc5KODCkAACAASURBVC54gm5YzPXIyjLB6XTBaMrkhTGAQ2ZmRBzLC/XC0cMnQKmMuAR+++23+PTTT/nA7ocddhg2bFiPXsX5fJoqdwXW162GUilHUa4RioO4U2NL+gydQwRaSoAErJaSo/OIABEgAkSACBABIkAEiEAnI+DyhPHEWzVYu82L/Gwlbrs0H32Ko3fbS6VKZIGVCqX2TcOFw/C4nRg1bkjCC+3fUfv/2HsP8Liu+8z7nZk7d3pvqEQhCIAk2EWKFIsaRau5RZFcoshlk+xms4+9SfYrsbNJNvEmnze283mzX4rW8VpylSJLli03FZKi2DtBovc+mN7LnXtnvj1nCJIgAQIDDEgMeM7zQKAuzj33nN85987MO///e6BQ2aDW5dP7porP58WaNY1IJpPo6elBdfWtOxoW2vOwzwOHk4PONH13wzPDrRgNu2kU0VyFpNNttT6ImuraaVUH+vtxKXoUWdn1tMRQMEzFIFKI+JRKpaFWq2EwGha0O2YkTHZq1CIcjtDoKJ/PT0Usrbaw3RrNahuqPSmkbRZk9Bok4iF0untgtpgwFeWVQ47212QyXou0Imb2zdr70Ny0Fh6PB3/9139NhcWvf/3r01n0dcNuM9Njl7zn4Em6YTFqYdKr58LL/s4IrAgCTMBaEdPIBsEIMAKMACPACDACjAAjwAjcnsDAuIC/+6EPQxMC1tapqFm707IwE+hSEbDkHI+aNc1FWRqjA71Ix6Ooq6spSnuLaYSIV7GwH+vvXwe15nrE0s1tekdDyMrN4DXXhZhwOEzT1Ii/k9vtpoIPz8/exnz7mfCPo7LBMq068cLyxgIgQpY4D28ofdqOvS37pxnMS2IGxy9+AK9yGJDlhTASzTSVskiitGQ5GfWsQg5QawsXc4jnVTAYgsVihkqtgntiEmXlrvkOfVo9pZyHUW2BSaZF5YlL6HlgHdz+CUTTYQgZgV6DpBWSSCqOux41p82YsW/th6h49eyzz9KdCeUkRPKGMjQ0CIOWh1LJIZIO44znOJ2/6rK8qMUKI7DSCTABa6XPMBsfI8AIMAKMACPACDACjMA9T+DE5QT+9rtekOiPzY0a/PvftEGvmZ/f1UzwSkXAMpgs2Lnv4aLM/7JJIcyRCJ4omresAa+aO3pupNMN3uACr9VSDsRXaWBwAJs3baaRUWSXuxu9pxYKK51MQEyGUV57a0qbJ+rHpfFORNMkfe42JStHnaIFm1u2XotOIrX9fh+OD7+LjOK6oTuJwiKeVcS7irhvEdPzRCIJm32699d8xzPp9sBVlvfgWoyANXU9DaeFmUTAqTTIjY1B1PBoDw4jmU7SPpMILMUNAhaJQFulWItkSMDly634/d//97SpQCBAo+UqKyupoXtnRxtqqsvpeDuD7RiJDkBDDN0t+mnM5jtuVo8RKCUCTMAqpdlifWUEGAFGgBFgBBgBRoARYAQKIEAyt358KIQfvR1GRszhkwdM1O+KU+QNtxdamIC1UHKLPy/kc2Pd9rXQG6enBt6u5bEeL1RGFxRXI60kSQL5cblc8HgmqfAzH7+nuXovZTKI+sZQt+7W6CUSjXV84AJ8cf9tm1GKGjy45kkYDdf9rHLZHM5eOIlRRfc1Q/eMQPy/QCOZyN8TyQT1w7o5ammuPk/9nQh7U+fe+O/5nj9TPeqPxRtQNpGCKZOFb20NukbaodbPHPHGZVTY6tqHgwcPUjHqzJkz+Ku/+it885vfxJe//GWaVhiLxRAOemA06KkAedx9BEkxhjKbESp+YRGVixkjO5cRuJMEmIB1J2mzazECjAAjwAgwAowAI8AIMAJ3iEAkLuG7vwjh4NkYdBo5PvdhC3a25KNwFluYgLVYggs7P5WMYVVTGcyWwlPGJgZ8UGrsUKjy6YQ+7yTq6hrobni9vT2w2ewL69RNZ2UEAULUh4p684w75LW5e9DjHUI2d93T6sYmSDqgQ6jFrq17pxnMJxIJfND+DuJ8gFafErDo7oEANXUnPlbLseQyQKVtFVQKFVQd/XDXmRFOBWb0BrNnq7F306P4sz/7M/z2b/823nvvPYyPj+NP//RPqcE9Edd6errhspupeft4bBRtgUtQKZUod9x+18TlyIb1iREohAATsAqhxeoyAowAI8AIMAKMACPACDACJUAgJeTwl9+aRFt/Clq1HH/yWSfWVPNF6znbhbBoKOfdUCoRhrPSirJV5fM+5+aKAxeHYayogVypRiYtIBgOoqmpGaFQCMEg2S2vcGFsps5kRRG+wX6s2VoJ+Qw75E1GfDg72oa0mJpxLDJJgS3WvaitqZv29/7BXlyMHKW7+JVaIRFVDm0Z6q6MYHLzWqSkBDzxCWRz2WlDkUtKrDfswPFjJ6jJ/uHDh6mYtXPnTmpUz/M8TSkcGuxDZXk+5fHU5DFE0iGYDBpYDIUZz5caR9bfe5sAE7Du7flno2cEGAFGgBFgBBgBRoARWGEExr0Z/D8veTDkzmB1lQp/8KwVFfa5vZIKwcAisAqhtfi6qWQcjnITymvKFt3Y5IAfvLmKthMMBlBeXkGFkc6ODtjsdurPVIySkyTE/eOobpo5siuaTuD86BX446EZBSmz5MJDGx+fJoCl02m8f+5dxPSeYnTxrrSh541w6Mtgv9KDqEWPQYOElJiY1hdVyoDdjftx6NAh7N27F6+99hpef/11vPDCC3j++edp3YnxcfDKHHilEvFMDGcmjyMLCZVO04yRb3dlsOyijECRCTABq8hAWXOMACPACDACjAAjwAgwAozA3SBA/K6GJwV89SUvxrwZ3N+ixR/8pg28cnF+VzONhQlYd26GhWQSvBlobF5TtIt2n+6Hrb4Z2VwOkVAY9Q2rqY9Ub18PrFbbtNS9xV40ONyPqiY7ePWtwpggZtA+2Yeh4Cik7PSUQnlWgTX8Fqxb2zLNnNzj8eDUyEFklNcN3Rfbxzt9vlLBo0o0wBhNI1JbgUDcQ3cVJJssTJU65QY01azDl770JWzcuBGf+9zn8Ld/+7f0t8PhABHzenu6UF3ponzaA60Yi41Ar1XBbp6/P9qdHju7HiOwGAJMwFoMPXYuI8AIMAKMACPACDACjAAjsEwInO9K4hs/8CIaz2L/Dj0+85QFSq744hUZLhOw7sykS6IIpTqLhvX1RbtgKiFgtNsP66o6KnyEgkEYjTrY7C6kUyl0dnaisqqqeCJWLofA+CAq6qzQ6GZOYx0OjuP8aNst6XS8oMWehgMwmy3Txn/m8gmM5DqLxuRuNCSXyWHTOqFXGVFx9AIGdq6FOzp2zRtMmdFgW/k+mtZJzOlTqRT1xHrxxRdhseR5kLTPaMgPi8UIKSfh6PghCFIaZXYj1MzQ/W5MK7vmEhNgAtYSA2bNMwKMACPACDACjAAjwAgwAktN4KdHInj5F0G60+Azj5jwm4+YIFsa7YoOhQlYSz2jgChmIFdksGZDAzXrLkZJxQV4xxPQ26f7aPn9PtisFlisdgiCgOGhIej0eppaWKwS807A4lRBb57Zo2ky5sOV8R6EU5Fpl6yRN2Nby65px0LBEI72vANBHStW9+5KO3SXQpURq/wSUlXlEHIZTERGqBhFikWowAMbHsJbb72FkydP4tlnn0U8HkdTUxMqKiponf7+XtjMerqD4kR8DG3+S+B5Bcrt13dxvCuDYxdlBJaAABOwlgAqa5IRYAQYAUaAEWAEGAFGgBG4EwSkbA4/PhTB938ZhIqX4Xc/asWezUufPrQSBKwcybmcpZDIpJvLuZPH4HOPo66uZsmnNpfLIpOJYt22dUXzMxJSIkZ7/bBU1s7Y/4mJCTidTtjtec+q7q52WG0OKBRc0cYbHBuGvVwHo2323QKPDZyHJ+q7lk6nFDS4r3wPyivzvl1TpaP7CjoT55GTz7ybYdE6fQca4hU8KnVVMA9OoL9CQ3coJEWWVWCTZTeqK1bR/3/44Yexa9cuDA4OXovEikQicE+MoNzloMLXiYkPkBTjsJq0MOqKJ0DeAQzsEozAnASYgDUnIlaBEWAEGAFGgBFgBBgBRoARWJ4EXnwjgJ8fi8BqVOAPnrVhbZ0a8iWMvJqiUOoC1rlz5/CVr3xlxknlOA5f//rXsWpVXjSYKndKwMplsxCEGJq2NoBXFmfnyGRchHc0Cr29DDL57NFckXAIkMnp2CVJwsjQEJQqFXS64omi8aAfWq0Aa9nMOx6KWQldnkH0+gYhZUWK3ypVYHfLI9MM5slOfEfb30NU6V2eN2eBvTJwOqzvCmFoUx0mYqPXztakLdjd9Ag1cne5XNTY3WAw4KGHHsKDDz5I642ODEOllEGtViEhxnHSTXZqzKLcYQRXpOi9AofDqjMCS0KACVhLgpU1yggwAowAI8AIMAKMACPACCwdgUQqi3963Y/3z8dhMynwn553oK6iOGLHfHpd6gLW4cOH8fnPf37GofI8j5/+9KdobGy84wJWNptFOhVC06ZGqLXFiZ4RUhLcw1EYHNPTBmebZxLRwyk4lFeU07S0wYE+yOQcFU1mikybz3q5uU4i4IdaL8HmMsx6ui8ewKmhS0iLAuQShxbzTjTUTTeyHxoaxCXfcYjK9EK6sazO4eQcKow1UMjkGA4PXBPvSCdXydaBz2lw4cIF7NmzB9/85jfxjW98A0RsJUUURQz098LlsNA56gxewUh0iEVhLasZZp0pBgEmYBWDImuDEWAEGAFGgBFgBBgBRoARuEMEooks/uY7HrQPpFDpUOLPf8cFg644HknzHUKpC1iZTAbRaHTW4ZpMpltMzO9EBFY8GsT67U3gVcURI1MJEWPdbliqV9828uoWgSmRQCKZwJqGNSCplp5JD1LJJIxm03yXyJz1EtEIZEIQFQ3OWesmMymcGLyIUDIMTdKEB5ofBZmbqUL61t3Xhe7QJWT4xJzXXO4VyrTlqO6ZxHCjC5PxiWvdJYbuu+seQ29vH7Zv306P3ywmTk5OIpWIwGoxIS0lcXT8MHLIwmU1QK26dQfI5c6C9Y8RmIkAE7DYumAEGAFGgBFgBBgBRoARYARKhIDbL+Jr3/eiZziNphoVfv8ZG8psxfMomi+GUhew5jvOG+stpYBFhJh4OIi6ddWwOKbvuLeQvpJziHjlG4tCZ8+bfRdaUsk4orEEamtraeoeEUgSiTgsFmuhTc1aPx2LQo4InNWzt5kS0+j1DqPPP4QqWTO2rd8xrT3CLhAIoHP0MnzSGCROKFr/7nRDak6NZq8ckfpKDIcHIWYz+S7kZDAly7Fny0NQqVSzdquvtwd2q4FGzo3FRtARvAyVkoPLRqLn7vRo2PUYgeITYAJW8ZmyFhkBRoARYAQYAUaAEWAEGIGiExhyC/jC18ZBPofWV/H40887oVHd2cirqUExAau40yuJGSQTYWzevZGKD4stJG1wtMsNy6qGxTYFt9tNd70j/Qr4/RifmKA74BUrnTAnpSGE3ShbPXskFhlEr28IPcPj2NNwAAbjzKmHvT1d6ApdRlpFdiec3aR/0VCWsIFyQxXUnAb+uBcRITTtShv1u9FQPz219cYKJKrQOzkOh92CbC6Ls54TCKdDqHKawHGKJew1a5oRuDMEmIB1ZzizqzACjAAjwAgwAowAI8AIMAILJnC5N4VvvuKDNyhi/w49Pv0hM7TqxQsdC+2QmpcvKqLjxh0A3Z4QyGfrvCAiu9ouaX9KgCDH8/+eOo/8zmYBKQtE3d0zDmNoeBQGkwU79z280GFOO28pI7DIhbKiiEwmjqatjeD5had8pZIiPEMh6B2VBaUNzgaJpFuGQ35UVdVCo9UgHA5j0u2Gw3l7wakQ6JlUCkJkHBVrXLcV8IKJCK4MjGB92TZYbbdGbZF1QfrXNdwGtzQASXE1gqmQztzlugbehPVdfrhX2TCoCE/rjVawYN+6A9BqZ9/Fsa+vF3qtElqNBv6UD+c9p+hOluV2I5RMxLrLs8suv1gCTMBaLEF2PiPACDACjAAjwAgwAowAI7CEBC71pPDVlzwQxBwe3a7H80+YwSnubj4Qi8BamgknJu6JaADN25qg1WkKvkg2m8NQpwfm8tqCz73dCaRfExMTqK2tgV5vQDwWx8DgAN0Vb8pIfLEXJLsvJkNjcNVYwXGzi7NEpDrX0QerphzVVfn0xptLVsqif6APfdErCGf9UHBEEJVBEARav1jRY4sd80znK+VKNAomZBUK9HNhpKXUtWoyyFApNuO+zTtuK/T19nTC5cgLfO3+VozFR2DSa2AxFr6mlmKMrE1GYKEEmIC1UHLsPEaAEWAEGAFGgBFgBBgBRmCJCZBdBv/xx34k01k8/4QFT+1eHl42TMBauoknQk48FkTjhkbozYUJDkTcGep0w1RWX/QOEhEr4POjorISOr0O6XQaPT3dcLnKiiZikVTKuG8EVWtcVHSarYhZCQOeMUyMxdFStwVW68weWvFEHOcvn8GQ0AFexyEUDMNkMkK5iAi3ooOdoUGnrhw6lQGpdAIT8dFpNThJhV3V++Gwzx4BR/zKRCEOo0GPRCaOU5NHIeUk1JQXx1/tTjBg12AEZiJQMgJWMplCb98QVZrXNNTSsNq+/mGQ441r6uhDs39gGKlkGo2NdfTvHm8AY2Nu1NZUwmIxIRyJYXBwlOYEV1S42IpgBBgBRoARYAQYAUaAEWAEliUBUcrh0NkYvv2zILK5HJ5/3EJTB5dLYQLW0s9EMh5GdUM5rM7CTdPHe73gdA4o1YUJYHONiohYPq8bVpsDDocTJL1waHAQeoPhtubic7V749+lTAbJoBvOVWaoNLffoGAi4kHX0BjK1HWoq66HSq2+5VKkz0Mjg+icaEWcDyKZSkCnnz0Fr5C+LqRuRsggFovTU/UGHSRRopFhRpPxWnOcXIn1fg6iUoEuY/q6mTupkZPBlq7CA1senBZ9Fgj44fX6qF8ZKW1tV1DuskLJcRiM9qEn2AkVz9FdCUlKISuMQCkSKBkB65e/eh8bNzTBPelDJBLDhg1N6OoaQF1tJSa9fjhsVnT3DGD16hpcutSBp596BD9+41f4yNOP4v0jp7D/0d14/Y23sX//bvzkzbfx8Y8dgGkW879SnEjWZ0aAEWAEGAFGgBFYPIFcjvjwLL4d1gIjsBgCZB2++m4IP/h1CMTP+wvP2bFzw937wD3TWEpBwPL4/PTL7gcfewIKbuGeUlQzyOVw5J1fUCPsMqdjMdNb0LnhQAB1zeWwlxd+zaG2cags5VBpir92fD4fdDodNXMnAtGlS5fgcjqhuY03U0EDBxCeHEZNk33OdL+4kMTR/gvgw0Zsbd4Bk8k846WISHTx4gX0Zy6BNyxuPRQ6lhvrkygwoylvQh+LxpBKp6FWq2G86bNpFeeEMQ0Ma1KICRHqD8cLWhgFJ1ZX16KyOp8m+q1vfQuvvPIKXaMKhQKvvvoqTCYTMoKA8bEhWC0mWu+0+xjCQghOqwFa9d0b/2LYsXMZgZIRsIZHxrGqugLBYASnTl+kkVgtLY2wWc04eOgEKiqcNDJLo9Hg5e+9jt27tmHS48PuB7bRvz+waytOn2nFvr3b0d7RS2d+3drF78rBlhAjwAgwAowAI8AIlD6ByYCIn30QgZDJYcc6De5bl//AR6JgUukcUkI2/+FBef2HfYFd+vO+HEdAUgVffCMAkjpIyh//lh1bm4sbRVOMcZeCiTsRVtyTHoRC4Wvm74sZu9lsQpnLSUWCO1nSyRgsDj2qVlcVfFnfRBSJGGC4TbpZwY1ePSESIaIKUFNTQ/mOjAxRY30inhSjEFP7SNCHsgo1NHrVnE1eGu3G6KQXqzRrsLq2cUajc9LPsYkRdI5eQVTlRU5Gnu3zK2Q9pZIpaHVaKowSQUyv1xW8HohopVDkI8sEIU1eWmj0GvG3Uqmvj9OktsCudkFKy4AMUG6rhkFrgN5wPVKLtHHo0CEcO3YMAwMDaGhowBe/+EU6djLWQRIdp+GgVqvgSUziku8sFWHJroSsMAKlSKBkBCxyA056/Dh27Bweeuh+vP/+KezbSxR2A976xSFUV5Vh44Zmmjr4yr/+HI0NtTTcetvWFhx+/xS2bV2PK2292LVzM4aGxxEIhLBl87pSnDPWZ0aAEWAEGAFGgBEoEoGMmEMkLuHr3/NhU6Ma8WQW75yJwaJX0N3eiGn2TEUhB+wWDuU2JcrtHFZX8qir4KHXKqDXyqHX3L3d4YqEhjVzFwjEklPiVQx2M0fFK7KulmMphQis5chtoX1KxxMw2tWobqguOP0r5E0iFpGgsxYexTVXfxPxCFLpDOrq6mmAwcjwMP0MZjROF1nmaud2fw+7x1Beo4dKO/e90OcbRpdnAOq4FRvrt8Jqsc1odi6kBbR1t2I004sMl5xX96LhKB2bwahHNBqlIlEsFoPFUpivFPlcS0RVUlQ8nxfAZKDG+GRnRVlWAS6nhE1eheayNbCYzZCpbk2NvLHTL730Ep555jeowf7Npb2tFVUVLhrJdtF3Dt6EGwadCjaTbl7jZpUYgeVEoGQErEutnQgGw7j//s3QqFV4/8hp1NdXw2G34v0PTqOi3EW9rvR6Lf7lf/0rDuzfg76BYTz84E68d/AE9uzehuMnzuPhh3biwsV2aLUaNDXWFTQXwVASRoMaoighkcrAYtIgf0wFUcoikbx+zGBQQSLHEhlYzPl6Br0KZGeQeEKYfiyXQzx+/Zher6KK+bRjuvwDO3ZjPXJMBsRi18/V6Xj6cIrF0teuQY7JZTJEbzym5SFXyBCNXq+n1SqhUMivHwsnodUowSnkiEzVI8fUSnBKBSKRFL1GKJyEWq0Er1QgPHUskoJaxd1yTMUraO71VD3ym+cVtG4onG8vHE3R89QqJW176hjZ9lWjvn6M9InsUEL6SPiSepFYmvb3xmNk3CTPW6flr9Wb7zHCmxS97vq5sx3LIUdfDKb6QuaZzDeZ97mOSdkcjDfUI2tJFLN0bU2dmz8m0TVIjplNGqRSGQiiBNO1Y2qk0iIEQYLJOFXv1mPkb6ROShBhvlqPHstISKVEmE35c41GNTL0WIZe79p6F7Mz3wM3rnd6D+SQuHm93417gKx3+fR7QKslbxhuvQdmXO/c9HuArEPlYu4BFYfw1Hqf5z0QiaboN2YajRKhqfVe7HsgnqbPD/0N98q874GEQJ9bC7kHyBoRl/AeMJnUSN90XxR6DyRvfuYv+T3Ag6QQzfU6kH/m3/o6MOMzf0nvgRTU6luf+Wqeo8/4m5/5qvncA5yCvrZMvQ5M3QPTnvmz3QNyGcg9PvX8vPmZbzRqcK49hmOtCfSOZkBEg3BMosxvLhwng1Ylg04tp8/0jARqpp1M31qZiFoatRxatRzVTiW2NauwpVGFCmf++Ulep2Z6baDPdyl729cBs1mD5EyvA+kMfXbf7nVg6h5IC9Ktz/z0TK8DNzzzr74OLOU9MOP7Hj0P5GZ433PTe6GC3vcU6R6Yet8z/XWgsHtg2vueq68DCo7Df3nRjSv9aTjMCvzhp2yoq1TT+4e8LpP3OEpOfvW9UP4YWdvkvRu5L8j7qPwxgb6+TTsWF6Ag98UN9cjznTzzddrr5+aPgb5nmmovlhDI281px8g6Nul5KJULF2rJa8ZUcXtC4MhneJq/K7uaxkt2jZuqQ47n/z11HvlNon2kLBB1dxf0nr5UK2fSafCaLBpaGuZMq7t5jEIqg5FOP6yraoueJ51KpeD3+7Fu3TraL4+HRL354XSW0flcbCFznQh44axSgVfPLWIlhBSOD56n70ErFQ3Y2LRlRtP2XDYHf9CH812nkNAGkJVLs3aV9CEYCEGtUUMhV0CSRGi0GviIlY3TXvAQBSFD1zkRr8hnxlQyCb3KCH3GhlrXGlSVVdO0wmJE+wUCPmRSCWi1aqSlNE66P4CYE1DpNEFBcpRZYQRKiEDJCFivvf4rKlCRQvJ4XS47Tp9thU6rhd1mhtliwpmzrXSnBRKFRSKv3nn3KFxOO+KJJHbevxkfHD0Dg0GPoaExfOjAXmg0t1eyS2geWVcZAUaAEWAEGAFG4DYExn0ZdA2lcbYjiba+FILR/AcVkhLosHD5Lxx0CtSWK9E7ksFvPWFGQxUPlXLmD1/kQ3MoKiIQkejPmCeDca8Ib0jEhC+DSDyflsJzMmxco8H2dRq0rFajwqEESz1kS/VmAp6AiK//wIvOwTTW1anwhU/aYdbf2TS1QmelFFIICx1TKdTPpFPgtTLUNtZCyRe2RoiI5R1NQGWygwimxSyZdAbhaJimE/I8TwUtv98Hm80+YwRUwdfO5RDxuGEv56Ezze3plRCSaJ3oxmTID61gwbrKjShzVcwoCJForO7BDgzFupHm4sA14fR6L4lZvZgRqWk6MWCXyYnQKqMCENmRsdAyJWCpZFqoczpYlS5U2qpRVlZ+Lb3wdm2mU0mEIhH4wmNIJAVsXb99VrGLpD52dHSgwmWlX4b2hXrQH+mGRs3DZV0+G0MUypDVvzcJlIyAdW9ODxs1I8AIMAKMACPACCyUAAnwIKLVSz8PoH0gTZuh8R0yoL6Kx+O7jHhgo5YKSsT76vXDYZo2+Dsfs0HDLy5qoGdEwMGzMbx/LkbjRqaCTVZX8XQ3uc1NGiZkLXRiV9h5iVQWf/zNCYx7M9i0RoM/+Wzx07yWAhkTsJaC6vzbFJJhtOxcP/8TbqjZf2USlsq8AXgxiyiKGBoawKaNG6Hk1RBSAnr6e1BRXlG0y8R8XtgqOGh18wtE6PUNoXW8EwpRiYpcA7Zt2TGroBaLxHC68yjCmknkctO9sVKpNAL+AB0HiXp0lbng9wVgsxe+QyRtQ1RBl7CirnwNVq9ePW8+oVAIvX098ApjSGkiyMklyCUOa/itWL/+9uuhu6sN5a788+Xo+CEkxQTsZh302rn9xebdQVaREVhiAkzAWmLArHlGgBFgBBgBRoARuLMEfCER756O4cTlBAYn8qngVqMC0rcvlgAAIABJREFU97dosblRg1UuJSzGwiIXFjoCkm7YOyrgUncKp9sTIJE2RBojUV9bmjR4fJcB9ZVzp8Qs9PrsvOVN4GJ3Cv/jVR+N3Nu7WYfPPG0pGf80JmDd3bUlZgRIYgprNtZBrS3M5D8jSJgcCoLX26BUzx3NVMhISbQPib5yuVzUzJ14RY2MDMPpdBUlHY70JR70Q6OVYCu71e9ppr66I15cGu9CIpWEVjSj0bEBdTX1Mw4rnU5jYLQPfb4OCJooiEXIjSUaicJwdbfA+QpYspwMiowKyqwaZrUZVoMLdqMTFot1zug0wpPs+JiWEogJYfQHuiDIE8jdFCWmEU3Y23gAev3sEVWjI0PUCkap5OBLeXDJe46mG5NUQlYYgVIhwASsUpkp1k9GgBFgBBgBRoARuC0BupPg0Qh+eSxKdw8kXlRVTiWeeMCAnS2agj1jio2bRGERweLd01H0jQkIXU1j3LdFj+f2m1Bm46DkFhf5Vew+s/aWhgBZC0cvxfGN7/uot9Oj2/X4Nx9dWCTH0vRw7laZgDU3o6WuQXyZUokgmrc0QaUpPIpmrHcSSl0ZlOr5RTMVMh6vdxKVFVXQ6fUgkVm9vT2wWm00Ba8YJRH0gfia28q183q2C+kMTo5egj8eoBFLzmwtWpo2wqAzzmjTFQgE0D54AT7ZOLIK8VqX4/EEdLq86BcORWAyTzerJ2IVMWFXyDiooIUuZ4ZV7YDDZoHZ6gA3j9RNutthKokJzziG3YOIcj6U2VzQJTMYl0URzURvQUiuu4pbh63rts/Kg6RBtl25jPravC3PWe9JhFIBmA0a+sMKI1AKBJiAVQqzxPrICDACjAAjwAgwArcl8J23Ajh4Nk7N2Ilw9eh2HR65T08jnTjF8hKFsjninyXhdFsCP/h1iKYvqngZNX7/1IcsuG8t+yCx0pf7T49E8L1fBmlq6W8/acZD2/QlJ14yAWt5rFIidgiJGOpaVsFgKszPiAhgEV8MyaQaKkPxdg0kZEi/gsEgTCYjHA4nMhkBgwMDsFhtRYvESsejyIkxlNea5zUZYlZCm7sbA/5R6nuok0xoMG1Aff3qGUUfIviMuUfQPdyOLGY3eJ+6uDynhN3shNPmgtlgBscpoVKp5iWwTTEbHx/HsKcfIUxCkCeRlZNUxhwMvAnb3+/G4PZG9HP5HQxvLlxGha2ufaiqqpqVB9k1MRSYhMlogCAJODZxGNmciHKHEWTDLFYYgeVOgAlYy32GWP8YAUaAEWAEGAFGYEYC0UQWx1vj+PHBMEj0lUEnx4Nb9PjQzrxwVQolI+ZouiOJxhkcF+iOapvWqPHRfUZsW1vc1J5S4LHS+0gEqx++HcIr74Rg0ivwwpNmPLBRd3XXvdIavZrPm1gvtLBdCBdK7tbz6O7lkQDq1lbD4ig8ks83HkJa4KE12YrXqastkXRCktZGUgolSUJ/fz90Oh202uI831KxCOTZOFw18xOxSLeGAmNoc/cgJaahEHk4FavQvGo9Tem704VEpxFfK3dwDBOhESQUYUhcPvX9xsLJlVilrUZOIcdkYhyJTGLGrlqlSuzd+OisIiFZK319PbBbDLROX7gb/eEe6oNF/LBYYQSWOwEmYC33GWL9YwQYAUaAEWAEGIFbCFzpS+GrL3sRiee/FSdRS//xU/ZlF20136kjwkZbfxrf/lmAmnkTXaCxWoUvfd657Hejm+8Y7/V6aSGH//Y9D862J+nul//l91yoqyhd/zMmYC2/FR2LBLCmpRYGS+HRVLFgAp6JJCzls0fvLHTEJOqHlOrqavqbpBPq9QYanVSMQnZmDE2MoHHL/PueyqRxuPcUEpkk7YIqZcBqYwsaGxvn9KUqRp+JmDc8PIz+8R5EtB7kFJk5m7XrHLBIGiR4OcYigzPWJ+mRTdptWNu0btb2kskkBvq7UV1ZDjEr4P3R95BFFi6bERpVaXz5MycsVmHFEmAC1oqdWjYwRoARYAQYAUZg5RFw+0W6q+Dx1vy3z9vXafH0HgMaqlVQyEt/vMT0/VJPCm8cjmBoQoBOI6c7Jf7GQyZUOIrjHVP6lEpvBKOTGfz9qz50DaepL9t/eNaOmvLSnk+WQrgM12Euh0Q8AleVFeU15QV3MBlJw+eOQ+/IeyQVs0QiEZpWWFNTQ5sdHx+DKErU6L0YRcqkkY54Udkw/yiyuJDAYGAM3Z4BataukJRwyqqxumItHA7HoiIMbxwTEauIp1YkFqKeU5F0CHExDFGRnuavNRcHuUyODR4FZByHDjuQlvLi282FTxqwp2k/zObZo9ImJiag5CSolDz8aT8uek6DU8hR5jBAvojIyrnGwP7OCCyWABOwFkuQnc8IMAKMACPACDACS06AmLKf7Ujib77jodciIsDzT5jproIrtfzk/Qh+fTKKYCQfZfaZpyw4cL8Beu0KUOpW6qTNMK5hdwZ/+a1J+MMiait4/NGnHbCbS99rhglYy3cRJ+MRmGxa1DTWFCzCiJkshtvGYaqqg1xR3GicZDyGeDKFuro6amY+MjIC4jNFhJbFpKNOzQRJx4tMDqJuXXlBUVTd3gF0TQ4gk81HQamTBqy2tqB2VR14fn5RkqT/JD2PiHRkTCkhBX/QC49vEqG0H4IqDkmZXvSisWtd0KtMiKUj8CXcEDMiOCVHr02EMrlcTn9Wydfivpads15PEAT09XahstxJ61z0nYUv6YHNpINBV5zIuEUPljXACMxAgAlYbFkwAowAI8AIMAKMwLImEI1n8Y0fekHSBoln1Ef2GfH0HiMMK1zIIZu3hyISDp6L4bX3wsTHF5VUuLNg14bi+Mcs64lfAZ07fC6G//lmALFEFo/vNOCTB0xQq1aGAMkErOW9QDNCEko+i8ZNTQV3lIgwI91+aC1l4OYp4Mz3Iul0GiQai6TqkUI8snw+H5zOvJCy2JKVREQmhrBqnasgs3hP1I8zw61IS3n/KZKKZ8jaoJXPnY5JxCs5ZNQYnhivJxBFOpdAViYiJydPcvJTnKLmNKjky8DH4uiU+eD1e2gUWyqZgoLjkBEEGE1G8KIW28r3oaKiYtYLE/Yk7dRqMSGeCePExDG6I2MFM3QvzmSxVpaEABOwlgQra5QRYAQYAUaAEWAEFkuA+EKd6Ujg5Z8HMTKZQaVDiU8/bsa25pUbdTUbs1FPBq8dDNOdC7NZ4MGtejzzsBE15fOLDljsXLDzCyOQSufwxuEwfnwoTHcafG6/iQqvK6kwD6zlP5tCOgWVWobV60k0VeHC6XhfAHK1GSptcc29SfQPEU9IJJZGo6HpdX6fDza7vSiRWGRmopMjKK8zQ1mAp1NGEnFy6AK8sWBRRadir5QavhyufjfaaowIpwMgomAsGoPT5QTxt1KrSUq9AoaUE3s3PXpbr7HBgX5YzFqQ9MS+UBf6I73Qa1SwW4o758VmwNq7dwkwAevenXs2ckaAEWAEGAFGYFkT+IfX/HjnVBTZHLB3iw7/7jesUMgXvuvZsh7sPDpHhJDeUQFf+54X4ZhEWXzyMROee2z+u2/N4zKsShEI/Nf/5aFio0opwx//lh0bGjQludPg7VAwAasIC+UONCFJIqIhD7btuw8KrnARa3IwCEmmg8ZYHK+qqSGTKK/R0RE0N6+lAks8Hkdb2xU0NKwpjoiVy8Hd3YH6zVVQqefvN0dS8S6Od2DQP0p9sZZjUSnUKDesQkwIw5/wIBqNUD8xrU6HRDwOk9lEGcqycqw33I/G1c2zDoMY7I+ODKCy3IW0lMJJ91FkJAEVTiOUXOmnOi/H+WN9WhwBJmAtjh87mxFgBBgBRoARYASKTMAXEvHPbwSoAFBm5fCJA2ZsX6cp2R0Gi4wHoaiEw+fieO1gCKIENNWo8NyjJty3jqUVFpt1oe2196fw4k8CGBgX6A6Dv/sxK+orV2aUXKmnEMrlHHiNhhpWZ7MSpJwckARkhMJ8ipQqLaRsDjkpjRwJj1yGhYhYuWwCDS2rwasL9zcKeqKIBrMwOF2gOWZFKkTEIumDJM3NYDDQ6CGyM5/FYoFSOX/R6XbdifvGYXFqoDOpC+q1O+rDxdH2a7sUFnTyDZVJSl8kGoXVYkEsFgdRsglBvUG/oCZ73RqM+HkIGSMEIQclHwePODbWS8ilJmEyG6f5dqlTJuxuevS2ZvnDQ4Mg97NGo8ZkYgyXfZegUMhQ4TBBfg9/abSgCWInLTkBJmAtOWJ2AUaAEWAEGAFGgBGYLwHywf8//7ObegY5LRy+/DknnNbiGgnPty/LvV4gIuEfX/OjfSBNP0A/tduATzxmhknPvjW/03NHdIv3L8Tw//7QR3fDJBFXJPJKyRXvw/6dHtNc1yvlCCw5p0A6q8Cv336XRq889dTTuNLaij27dgJZAbmsBJlcDpL/SSJyyL/Jb2KOTQoRXmQyOY2qC8dTOHr8FD7y+KMQMxkqhi3HQsS1eMyPtVubodEVnoYtJAV43BK0JktxIqSuQiJcR0aGUV29ClarFSS9sLOzEy6Xa94G6nPx9k9OoLxCA52xMPEulIzg/GgbyO+Flkg4SsfBcQrE4nGYzSYEgyFYLIVFzibTcvzsgg3+uAFGoxEadV6Qy+WyiMWSiEQCuL96ANvWkvTB65FjRC6ryDVi+4adsxrbk/U80N8Dh90MUv+C9zR8SS8zdF/opLPzlpQAE7CWFC9rnBFgBBgBRoARYATmS+DYpThefCOAUEzCvi06vPCkhe24Nwe8tJBD+0AK//R6gKYVErHvtx634KGtzL9kvutusfWI2PpPr/txqi1B/a4+87QFezfpoOJXrnhFmJWygJWVKfGd7/8Qn33+0+AVChqV9PZ7hwG5HIlEAs/9xkfR3tmFcqcLer0GXT392LihBW0dnWjv6MRHnn4Sv3r7XYQjIezZswfvvHMQOq0GzU0NWFNbC0ksLIprsWtwvucTESuVDKGmsRpmu2W+p12rl4qnMTmShNFZRiOJilZyOQSCQajValRWVoLsJtjd3U2jhrTaxUeWEpEsHvDBZAaM9sIin9KigCvubgwFxhY03Fg0Co1WS03Wye6ERpMJkXAY5gIErEEPj/euWKA1liGTUyKTzSFLxVWABEiRKEINJ0MiFoZVM4kPb4uCU1wXsZSiGtsrH0aZq2zWMXg8HiTiEdgsRoTSQZyZPA6FXE5TCclvVhiB5UKACVjLZSZYPxgBRoARYAQYgXuUQDKdw69ORPCjt8PUc+Qje434+EMkdeEeBbKAYZO0S2LyfuRC/KrJuw7P7TejylmcNJwFdGnFn0I+PPaPCXSXwY6BFFw2Dp9/2oJNjYVHt5QirFIWsMKJNDp7erFn+zZkhBRUGh1+9qt3sGvnTgTIzmyJOALBMDZv2ohKlx1vvPVLPPfMM/iHf34Rn/nUJ/Drg4dRXVWFxobViMSieOm738d/+qMv4q2f/xIfeepxRIP+ZT2lyUQINWuqYLYXFgVEBpVOCJgcjUFrdkChLG56LDF2J4LV1M55/f39NHpJpyuOIB8P+WEwZGEqUMQi425396LPPwRi9D7fQoSzcCgCXsUjHo3BZDHB5/XD7rCD5+f3bE4JMvzgAytUxhokREC6IUuVaIjkOTRVtEo5xHQcax1D2NWcuP6HnAyGhBP7tt7e0L23pwt2q5Hu3tgRvIzR6DB0Wh52s76IiaPzpcfqMQIzE2ACFlsZjAAjwAgwAowAI3BXCRBT8qOX4vSN+B9+2o4d67RF/XL/rg7uDl6c8BucEPB3P/TBExBp+trnP2zFEw8YGM8lmIfXD4Xxw7dDEDI56kP2R5+231Ppm6XsgRXPZHH02El85In9SCcTVMA69MEJPHD/DviDfnR299Hn0aZNG1BVXobXfvImPvnsszhy5Ag2tzTjn77zPfybF14AxBSi6Qxt66NPfggnzp3HI3t3IxzwLcGKK26T8WgYFbUOuKqcBTecy+Yw3O2B0VVb8LlznUBMxYmhe1NTE61KPLGIEESisYpRktEI1MoErOWFtUe+XJGyWbzXfRxx4QZxaI5Okb77fQHY7Faaejkx7kZ5xeyRUDc394vTWvjFeiRyPESyowmNfpRDz3NALoss5AgnMzSNnBQdL0dwchgf2RHC6rLMtebkkGOtbgeaVq+dtceEu8c9BrvNDCkn4eTEESSlJCodJnAL2ACgGPPF2mAEbibABCy2JhgBRoARYAQYAUbgrhCIxCX8j1fzqVcVdiV+7+NWNNcW5lFyVzq+zC9KTN7fPhXDr05EkRKyaKlX49OPW7CWsS3KzA1NCHj5FyGc7UjQFNcP7zHi6b0kzaYozZdMI6UsYCl4FX7y1q9hMZtgt1vR3NyM48dPTROwysvL0NvXi+qKSnT39eHzn/kMPvjgA2xobkBn/zCGR0ZQUV6GisoKnDhxGh954kBJCVhkoaUSUVhdBlTWVRbsayVJWUwO+6FQO8Crixt1SISUVCqJ2to6cByHsbExavBOPLKICLTYkoiEwcujcFTbCm6KiFcXxzrhjfmRzc3PtD8fdZW/ViEClj+qwMvvWWFwrkIyk7+WjpdBlgzggXoLHAYVroyG0BsGMgotBJH4tMlg4gGrvAOPb4tPG582Y8Gepv3UMJ+UmViSqDedRg6tRovh6CC6gm1QKZVw2fU0VZEVRuBuE2AC1t2eAXZ9RoARYAQYAUbgHiSQSGXx1Ze9uNidxOr/vUvbX/xbF5QK9ua4mEth4Gp6GzHGJ9Ekn/qQmaZnatX3mNJSJKgZMYcz7Ul87XseyrPcrsT//RkHHJZ7c5OBUk4hJEtCbzQjlhQQT8RRUeaCmBEgZQTI5GQTBBndhS2WzEClIqbYMnBKjnozJcIBqDR6iDkiAKXgdDmoOXdOzIDXaJETRSTj4SKtuqVvJp2Mw1amR9mqigXtODfW44FCY4NKV5i31FwjI2buoVAIDQ0NNKWN7FZI/r9YIpaYSkCeC8FaTkzp5+rN9L8T/6nWsQ4MBsfmLWIVdoV87fO9SpzoL0NObafRV5xcBo0YxhcfrceBDdXXmvzPr57C5YgawWSWPptMGg65aC8+81Agn/pH/kN+cnK40vXYdd/ua4buUxsT3Ni/7q52lLvs9NCpyeOIpIOwmrQw6grbyXEhY2bnMAJzEWAC1lyE2N8ZAUaAEWAEGAFGoKgEUkIOf/E/3egYSGNdnRpf+IQNZgPbOa+okK82RlgTX6zX3gsjmpCoJ9Znn7bgvrWLN0Zeiv4u1zZJSuY//NiPy70piFIOnzxgwv4dBug1964YWOoCFv1cT5ULGd3JbaZCdhqc9rcbTYdkZL+2/LnX6t1sSrRcF/RN/RLSSah1MjSsb1hQj4OeGGIRQG9zLOj82U5Kp9NUuCIiFhESiYBFzMadzsLTHme6hpBMQEx5UVHnWFBk11jIjXOj7RCz11P1igng3XM8BmJrEM/y1LRdr1KgQhHCt39v37TLHG4bxV//sgcCb6FCl4Z4YYUn8G8fG86Pi6xVYvZOhNksj/srH0GZq/xaGzeLWF6vF0IqCqNBj7AQwjnPSchkOVS5CvdMKyYP1hYjQAgwAYutA0aAEWAEGAFGgBG4YwTGvBl89SUvhtwCtjRp8MVP2uluZqwsLYFxXwbf/mkQXUNp+g39Q9t0+I2HTah0zM9IeGl7t3xbJzs7vncmhh/+OkTTc2oreDz/uBktq1kkQimnEN684uQKDjK5DFJmaYSI5bvCr/eMilgaGWqaaqCcp8H4jeMKTMaRiEnQWV1FHS7xkCIiFtmdkJi5RyIRjI+Pw2az0fTCxRYiYmUzQTgrTVBwhX+REk5G0TreCW88sNiu3HL+22cVGIw1ISrlBSyjmkMNH8KLvzNdwDraOYa/eLMdgspOdyhUc3Jko+P4nQf7AZmcRhCS9S2Ty2nklTVTiT2bH6YG+aTMFIXV2noJVRUOcJwCbf5LmIiPwaBVw2ZmX34UfaJZgwURYAJWQbhYZUaAEWAEGAFGgBFYKAFvUMKX/nGCGow/sFGL33/GRo3GWbkzBMjuVRe7kvin1wM0GkvFy/CpA2Z87EFTwSk0d6bHd/cqrb0pfPUlD+KpLE0n+81HTHjyAQN4JVuzZGZWQgRWfoXJAIUao+NjWFXhQFaS7u7Cu4tXz2WzyGSiaNmxfkG9SMbTGOqchKs+b8BerEJELLfbjdWrV9NILJLK2dnZSUWtYhQy50n/GKqaFhZBRrywTve3YyI+TnfSLVY52SHH6YFKZHgbjawiafaqtAdf/8RmbK67LhR+5V9P4Pgkj6Ago7vQkhTCbKgDn9gxSsUpIszJFXnxinhkKWQ8mrXbsGH9RtrVmQQswnhkuB92q5mmSX4wfhCClEaZ3QD1AgTOYjFh7TACTMBia4ARYAQYAUaAEWAElpxA36iAv3nJA29QxENbdXjhKQvzYlpy6jNfgJjn//RIFIfPxxBPZukOes/tN2NLowbyezcj7hqsSz1JvHMqhuOtCbqz184WLT72oJFGX7FyncCKicCSyRBOpHHy1Fk88eheKkDIFBp09XTDYjajssyJSCIJr9eHbDaHptU1NKqls6sXck6B+lXVyKTnvyvdcl9DkihAklJoaKmHWlt4pGEmnYF7KAaN1QmFYvERUlO8stksSGqbw+Gg0VeJRAKjIyMwmc3XIokWw1ZIp5GO+lFRYwTHFx6JRUS2yxPd6PUNLqYb0851+4GX39WBszUgRUzXABj5HJQpLx5tssBm0KJnIoCzbiDFmZHKSNTqyq7noA0fw77mIJQ8R8UrEq1GdhIka5Z4ihlgwd7mAzAYjLNGsg0NDkKrVkCtVmEkPoRO/xVoVEq4bHkTeFYYgbtBgAlYd4M6uyYjwAgwAowAI3APESBpg1/+RzeCEQmP3Kenuw2ycvcJjHoy+PtX/Bj1CCDRWfu26PCZpyywm4v3ofPuj3J+PSBRC7FkFq+8E8JbRyP0JJeVw+c+bMXmxsI/xM/vqqVda8VEYN0kYCEng0KjRzyewHuHDuIjTz+F7/3gRzjw2MM4e+4StmzeiPb2DricLnj9PtTX1aDCtrK8gUgkViToxYZd66HWLGz9D7ZNwuCsgrwIaX433ilerwcuVxmMRiONlmvvaIfD4aSRWYstpL24fwKVqy1QcAtT83/R/j5SYmqxXbl2/t+9ogBnW4ewcD3y06DioFJIyIoCFCotIgkJafIQB/JRWpkg6pVn0VwWpemgnIqDkghYPEc3I1Ao5FByPKrQhPu37botu9bWi6itLqfC7rGJQ3RsNpMOBt3ieRcNEmvoniLABKx7arrZYBkBRoARYAQYgTtLgHgv/eW3JjHhE/H4LgM+ecDMPK/u7BTc9mrEkPzklQRefTdMUzuNOgVN7yTzZLlHjPUnAxm89l4Ep9sTCEUlaFQyfPwhEx7apodRt7APsctoipesKytVwOKUKly40kEFLGIY/tGPPo1Dhz/Ak489givtnUhlBPzyl7/G7t0PIJfNob6+Fg7jyvMFIiJWOhVFw4Y6aPWFj08Ss5gYjIJT66DSFS9ih0Q6hUJBqFRqmkIoSRKGh4fo/2s0mkWv9yzZaTLkQUW9iQo9hZbh4ATOjVwuWiph+2AO77TVIqEwIyNe32yAmLMTY3bijXVj1qKeBxITV/BI9WWQADpepYRSpQSnVOb/zXNQKjkqbGkUOtxX8RDqautmHWYwGEAqEYFep0VcjOHkxFEaqVvuMFJvLVYYgTtNgAlYd5o4ux4jwAgwAowAI3CPEBgYF/BX/zIJf1ii0T0k8opTsDe8y3H6SSrhTz+I4IMLcQQiEqxGBRVx9m3VwawvPJ1mOY7x5j6RyMCDZ2I04ors1mgzKbBjvRYf3Wdku2LOYwJXmoD1znuHceDRh2AyW/Dnf/kV/Omf/AkOHzmCDx14FO8fOYYDDz+Ijq4uJNIC+vv7sWXjJrjKXNBq1EjHQvMgVnpVyA6LJBKLpBNaHJYFDWByyI+swgR1EUUs0hEirPC8ChUVFbRfPT090Gq10Ov1C+rnjSeRSKzw+Agq11ig0hSWOpzKpHGo9xSSmeSi+0EaiCZy+PYveUiGdQinZt4tc+pCRFAyymKwx86gwTwEcDnw/FXhSqUEr1ZREYtXK6FW8eB4JZzyajxy3xM0rXCmQlI3OzraUVFmA6dQ4Ir/IjV0Nxu0MBsWFp1XFDCskXuWABOw7tmpZwNnBBgBRoARYASWjkAolsX/9ffjcPtFHNipxwtPWph4tXS4i9ZyNJHFa++F8fapKG1Tp5Hjs09Z8dj9i/9QWLROLrKhCV8GL/08iIvdKSTT+Q+EZEfGp/cYoFHJmaH9PPmuGAELMvBqHTp7+6kXkMvpgFLJY2hkBA2rV0Oj5hEJBKHTqZEWMtQHS6fXYmBkHNFIFOuaG5GOh+dJrTSrxaNBVNeXw15hL3gAJGIqHEgiHlVAaypuqmUqlaK7EjY1NYFcZ2xsDOl0GlZrEdLUSb/dY6hdZyt4zO2Tfeic7C34vNlOePNwBj2hWoRlFrqL7GzFouUgeS5jH38eOY2EjCwNJUkf5JVQqVVQaVTQ6FTX/k2PK1RYp78f69fPbtxPotx6eztR4XIgLcXxwdj7IGFf5Q4TeOXcX3CQKLGMKIHnOPZ8LdqquHcbYgLWvTv3bOSMACPACDACjMCSEBiezOAr/zKJyYCIB7fq8NmnLVQYYKU0CJDPR30jafzieBSn25IgaYbVLiVNqdu7WUe9oUqtkCjAM+0JHGuNo70/TcdEoswe2KjD/h16lNlKb0x3ew5WjIk72YdQroD8qudRjmiaOdD0KGLin5VEyBUcslKG1pOB7PQmQsEpQdK4JFEEiVRa6YWkkdnKzKisy0c8FVpC3giiEQX0FhsWrGKQiDD3BPSu8ms75xEzdyJk1dbW0iiiyclJxGIxWC1mara/qJLLIeKZgL1CA52xsGijt7uOIZaOLeryUyenBeD/+4kSWdN6BBLijG3S6Ku7z85OAAAgAElEQVRcCIbgCewKtkK0GRDQZWn6oErN00gyjVYDrV4DtU4NtUZFhS0lr4BeZsGeNQdgMppm7e/Y6Ag0KgVNPxyJD6PLfwVqaug++5cbRFT0hYOIJGLIiCIViO16O0xGLTWbZ4URWAgBJmAthBo7hxFgBBgBRoARYARmJBCNS/g//94N4n1FxKvff6bwb68Z2uVDYNidwcu/CKJ7OA0hkwOvlOHpPUY887CJRmcRD5blWkh/STokSY1851SU9p+ksJJUwSd3G/DwNj0dDysLI1CqAhYRnaYK+YB9S6HeQkSmyheSQkWKTEbWu+yaWDXjuQtDWTJnERHLaNGipqmGsii0JGJpeEeTMDjLCj6feHL5B7qx5r4adJzpg6OmEQplPr1PEASMjIxg06ZNUCqVCAQCVMhyuVwFX2emMYXGR+FYpYO+gJS5wcA4zo9eLhTRrPXPduRwuKcOkawBgnTrujVr5JB8bVid+BnsOrIzoxKiTIQkF6h4RXzMdHoNtAZtXsTS8nmDd6WSCkvV8ibc17JzVl6iKOLihfNobKiBlJNwevIY4pkYXDYjNKqZvwCIJZMY9U5MG5NcLkeNqwKqq3NXNECsoXuGABOw7pmpZgNlBBgBRoARYASWlgDxUfqzF93oHRGo5xWJvNKqF/kN+NJ2mbU+DwIkWonsWHjkQhzvno5RIcikV2BNNU93ldy1QQv5MjHzJXrE5b4UTrQm0DWcwrhXpGmCJAJw9yYtdm/SobZcySIC5zHvc1UpxRRCBaeC2+dDLB6HzWqBy25HMp5Pl50qWZkCvmAYCgVHo7Aseg0VrfQWB/r6B1BRUQYZchCT8bkQrci/C6kUFFwGTVuarkVBFTLQVDwNz2gcBmfl/E8jkVcTQ6hudkJ+1Vh9vD8AhdoMXqOj7RCBJRDwo7a2ju6qFw6HMTg4iKqqqgX18+bOJYI+6AwSzA7jvPotiBmQKCxBSs+r/lyVYgngv/9rDjlLC0I3bXKo4uQwymNQj70Bq9gLrVoHi0wFTq1CnBdo2qDOqIPepIPOqIVWp6bphLyKp1FrZMdFTlBja9keVFVVz9qVaDSKUHASZqMRwbQX5ybP0CC3SsfMhvfuQAihWACSmKObIhhN+bkqszpg1hfP2H8uduzvK4tASQlYPl+Q5jVXVpZBEDJ46buvQ6/XYU1DDdaubcB7B49DEiVs3bIeNTWVOHr8HLweP+rqqrFpYzMutXZiYHCUmi0++sgD4Li5c3ZX1nSz0TACjAAjwAgwAktDIBiV8F+/7UHP/049I0bYX/gEMXwt/Bv6pekda7VYBCJxCW8cjuBcZ5LuWkiKXivH/u0G7NqoRaVDCYP2zomWZOf4QFiEOyDi5OU4jrUmEIxItF8kQoykO25bq8FjO8iOgux9X7HWAWmnFCOw5Jwa33/1NezevQs9Pf2w2Sy4f+tmSFIWuWwGmayM7mY37nEjGIyAk8mwtrEO4VgSJrMZp0+fxf07ttMP/UIqgWwOiMVj0GtUVNQSxByEjASdToucmKbphyuxiBkBSlUW9WvroFjA5ykhLWK81we9o/JaFNVsnIh4GJscwaq1zluqjPb5waktUGnzwgjxapp0T6CmthZ6vYF+biQiFvHEIlFGiy1Rrxt6owLWsvl5Avb5htE60Un9uYpRPmjN4lh3JUKwIXNDFJZZI4Pcdx6OwK/AI0E/45ZlNTBAhmi1CSodB4NJD4NZTwUsjVZFDd05JUd3WpwSBS1SOfa0PEqj2GYrvT3dcNiMVBRs81/E+G0M3X2hCHwRH20qlchCffW1ocLmglGXnzNWGIFCCZSMgNXZ1Y8TJ8/j/h2bsW5tA4aHx5FIptDUWEdDHds7emGzmWm+88vffR1PPfUwWlu78Nj+3Xjv4Ans27sdh98/hf2PPoCTpy6izGVHff2qQnmx+owAI8AIlByB7qE0RiYFPLzdgGUSJFFyDFmH5ybw5X9040pfCtvXafEfnrNBxVKz5oZWwjVItN3AhICfHomgtScfDqDkZFQ0Imtg90YtWlar6bHFFPLs6hvNoKFKiSpXPl2IZHRd7E7ibEcCl3pSCMckJFI56ldErtawSkUFqw0NaujUcpYmuJgJuM25pRiBRQSsV994E5/+xHNobSPpXTKYzSYoZHLYrVb865s/w8c+/BSOHT+JyqoqajodiUURCoUgZtLQaQ1oaVkPFa/C5dZLCEaiNIpFrVLh/vvuwyuv/RgtG9bjypU2vPDp55CIrFxzd1HMQEiH0LJ9AxVCCi25bA4jnRNQ21fNLpjkspjs6kDjjtprIsuN1yHCkHs4ipxMDY0h799EUg3HxsdRWVlJhSsiYrW3t9NIrGKIWMlIGPJsFGV1c6fHZ3NZvNt9HLF0caL1iAz231+RENdthTdGvNeIVxtglwfAT7wHY+w85UQELJPOBKvZBo1RRQ3djVS80kFr0FATd57n8jzkuBahJs9yWKu/D00Na2edzmQyif6+bqyqKkcsE8WJiSOQy+SocBrBXY2OmzqZRKENTY5TYXGqkJ0Ma8uq6I6GrDACCyFQMgIWGZzfH4LXF0BzUz0uXuqA2+2l+b1EuBJFCRtamuj//+iVt6jIJWQyuG/bBhw6fBLbt2/E5ctd2LVzCwYHRxGORLFp4+w350JgsnMYAUaAEVhuBH51Iore0TQ8fhH+SBa7NmgQiWdpSg1JA0pncvTDIHnvyXMy8LwcRp0cFoMCZr0CTitHzZtJuhArjMBMBIh48LXvedHam6KCwRc+Yb+jEThsVu4+AbLTZGtPEhe6U2jvT9HnCikqXoZVLh61FUrUlvNYVaaE00KeJ/I5U/jIB7MTlxN462gUZTYFNZNfW6eCLyRiyJ2BdDX6gNjwkCirhmoV1tersK5OXZIm83d/FgvvQalGYL38o1exedNGJOJJ2Ow2qLVqcLkcHHYHjc569pmP4/0PjqKurg5qXokf/+RNfOn/+EPwag0OHTyCNWsaqADQevEiHn/yCQR8XnzvR6+ivr4eqyor0NRQhzd/8Q4+/MRjiEdChYMtoTMkSUQum0Td2hpodNoF9XxiIABwRqhvTinLZRH3jaOqcW6hyD8eRjLJQWe9vkui3++H0WiE0+mk6YX9/f3Q6/XQaDQL6ueNJ6WiUSjkcTirZjc9n6rf5RlEm7tr0decauDIuRSOdFchJC+DIGbh0Csh856GffwVmspNBCxi2m4wGVDjrEaZUolEmQq8joOGeF9peChJ6iCnoPWp39sNfmaqpAG7m/bDbJ59x8iJ8XFwCokKt0ORPnSHOvOG7lb9LR5aiXQSgWiYzgHPqWA1mGldVhiBhRIoWQGLhPqS0EVi2vfmT99Fw5parF/bAJWKx/d/8Ca2bFmPaDSO+3dswsFDJ7Br11ZcuNCGB3ZtRW/fEJLJFBW8CilE5c+bN5Kzpv5d4DF66k3nznAsf2h6vYUeIw6r5BvJG9ub8RjZV0V2U70VfYwYcpL5vM6ZMF7aY4tYO4tZd8vp3OVyD6zAtU2+SSaiVCgm4Wx7Emc6ErjQlbzlMUe/ILv6XCARWSQFIn/vkydbDmQzJXLsxlJTpsSujTrsXK+Fy8bRqAryU/j9w+6B/O24dK8Dd/KZnxFz+G/f9eJ0WwJra1X489913bQmVurrClvHt3svdOR8HCevJNAzKtBnEvHQuuqDfe2xQtIO9Ro5HGYOGrWcRuwRYZ1EdsWSWRBRjKyvGwt5XnGcjEYcrK9XY2uzBjvWaWkK41zvme7kfTH9ubgS7oH8LEx/jwgqQi7Ax/valN6YVuX2hEAy0fIfpPPMSGiITDa1Bug7WXru1HnkN1lXJI006u6e11t6EoH12ptv4YXn/3/23gM8ruO+Fj+7e7f3BmDRiA6wd1GkSEkkRVWqWnJsNXdbdvziIsdOnPdPnJf42Y798uKXxIkVy44U2bIaRfXOIrH3ThC9A4vtfffeLf/MLEESBBbALgpRZr6PH8nZuXNnzsy9e/fc8zu/zyAlkuDVV7dj1aoVCIfCyM+z4LnnX8Jn/+ShQQTWW+++h2985YtQa/XYsWMn5tfVUQLr7Jkz2LJlM9wuF575/R+xfNkySngtW7IQr7z+Nh64+45ZT2ANgB4OOrFw1UKa8S6X0tfqQlKsgVKXJk2IisrZfIEqr8ZaPO4wwl5ARbIcXiyExFKpVCgsTGdObGxspMTMRCixhGgIfMCJ4uo8smVHLG+f/wRRITzWqYzcLiXCj59NgtfMR4CXwCh2Qdr8MrSxRnBSSZq8MmhgtBpQWVCGWlcIvtU1CMNH14eIPQh5JSJkl3j4cO8ScR1WL1qbcRyCIKCpqR7Ftnza5kDfJwjwftgsOshl2avxJgYY1stcQWDGElj7DxxHQYEVJqOehgTWVJcjEAiiqLgAH360D/ds3YQPPtyLrXdtpCGEG2++Hm+/swu33boB77y7mxJa+XmjM/pXboQYH4dMKkEySR7GkvQCHbEuRQwFE5faSaUS+gNxUN3FuHHhynZTUEekpeThQBAuj4/UkYdDErs/MDciBSXs/Mh1CepzcmU7nk9AQuvE4IU47S9TnVgiovHXPH+xnZCgfZFzE3zpsaROJALHZV9H5kgeiK48NlMdAUV6xTlIuyF18bQMVspJLo1PiCfpD1KyxgNjHq4uHk/SB68r25G6ZIpkdrp87JjrEkm6HwcdS+oSKchk6f5kUg6J5NA6klWHvMG+sh2pIz805JeOzWK/J4F44vLeodfKTLsGJORt1OReA3S/X3VdjPcaCIRT2HHEj3OtPLr7BTi8CbqOAz84iOqholAGuzuOujIFFpTLKflEbjVSqRixWBIyqRhkzxJPhRifQiCUpP00d8WopxFRbdH+LvrdWAwSLK5UYs1CBRZVqeix7BoYfA0Me8+/Rt8Dme75Q74HsrgG+Djw82f7cfRCFBVFMnzvUQuM2vT9mtxDyN/EADn9PTBy3eV7/uV2Y6kbfC9PHzuuuniS7vH098XF/sjepvf8kevo/f2qdoPv+en+xlU36J5/sb9h6shLPhJOl/5uSFx8dslQd+l74Ip2g+rEaZIgkbz4fUHapevSz0ID5xBfvOdfrkumRDQLIFFNddrjaOiIUmLK6SUhf2lcRypEwWUxcHR/kecT8v/b12qhV4mgVpFnsARdF1LIPWhgLLSOPuOMXEfWOf3cc7nd1XXpZxfyLHS53eW6gecjyVXPODPkGsiw38d6DaiVEnqN51quBYHFSZU4dPwEROReJwHqqmqg02qx78Ahqs4JhkNYs2olLjS1wGIy0tBChUqFEydPwGgywqg3wGgy0Wernp5e1NZUIRgM4OCRE9hww1rs3b+fEgQd7Z144J675gyBlUwmEIv4UFY3D3rT6Kqk4faM1xWCpy8Kg60Q/r4OlNRahw0bHGm/BbwhuLqj0BcSg/j03vT7/SBKMWLuTvZcV1cXJUN1utzGeeX5hWgEUX8fSmsLRrwMOjy9ONp1esK8sPYdc2FHwwLEZSaI3Kdh7PwjOFEcap0SlnwTrDYz9GY9DEY95lkrIVNI4Yz20nBBcj8bibyi33eCEquLbkZBQeZ5EXIw4HPBbDLAHu7FKecxGnJbYNFOm6Qeud6b2HHTG4EZRWD5/UF4fQGUlthoLC0JDYzGeNy0YTU1S9y7/xiCgRAlqxQKOVVanT3biJUrFqG4uAB9dgcOHz5NTd0XLaye3ivDRscQYAgwBEZAwOWLo7WHx44jIew9mfZWID+wSOif1chRdQJRxGhUEpo+nvyAJGE2j91pzNqThvxQ7ejjcbY1RsODHN44XL4EVUqQUlUsw5Y1Wup3U2DmmHH3HNi5hHz4j+1u7DgSRGWxDD/6Sn7W+2oOwMSmOAICRGXlDyYQ5QlpnoQQTxNUxFeJKHsMWgmC4SR+/aobNguHXmccX7vfBJOehTNPl401I0IICat8JccmEkEml4MIuxKiFOLRdIY4mUKdVn0lEzTUScJxIKQMeQEq8DzkChWRBVFimJaL/VLlcjJBPaA4hRo9vX3U4L3+wgWsW7UMAj8xGeimy5qPNo5QwIuy2iIYLcZRVUnD9RUJxtDXbEf50tx9ivkID3svD7XBDBFJkQcgHA5TEquoqJiuT3t7O11ErVY3JORttDle/Tn5TZoI9iG/zJTx0Ficx4f1+xAWwvT84y12uxfb9mjgiOVD3voyjKlOGPOMsJXkIa/IQskratQuk8GmL0FJlxuthQr4BD9dF/Jiiby0djpcMJtN9AV0MBCg7TXadBigJmTFTSu20IyOmUprSzPMxnT7E87DcIT7YdAq6R9WGAKThcCMIrAmCwTWL0OAIcAQmCkIkB99v3vDg8Nnw/CHE1TVSZ65b1urxY3L1VStoFYQVePlJ/aBEB6VYmIyg5EfnIS8IgbKb+8NUGUXKaR/4pv1J1v0uHnl2DL0zBTc2TgHI/BPzzux82iQEgskbJCsOysMgclAgKhJyT1sIGx5Ms7B+swNgZlg4u5z9UOmUECp1uU2ySyOUmp0iCVS1NBalExAiAazOHp2NCUKp2gkiKJyCywF1ms2KSEWR1eTF4bCkktjIGbuHo8HdXV1tM7hcFB1ltmcXUTOcJMKuRworhr5uafe3oL9F45Abxi/8ouM4eApHjsPhFAU3YWyqkKUVhfBYNbTEEIpMTalj4Ei6BQGVNkFeEvz0RFuv6QCIzY8SaLWTSQRDAZhzbMiFo1CKpNRE3hRSowFmjWorUzjNVwhx3V1NqPIZkM4HsKhvn1IIo6Sgsz+WddsU7ATzxoEGIE1a5aSTYQhwBCYrQiQH3Aku9tHh4PYc4Kk7U7RdPDEMHtVnRLL6xQ0nfm1KGRsjR0xHLsQxdmWKNp6eRpaVF4owy3XabBmkYp63LAyOxAg5OVvX3fjvQPEWJvD9x/LQ6GVre/sWF02C4ZAdghMdwVWJORDcWUBoqEIXPYAFEptTqqg7FBhrQkC4aAXecUm2Ept41Y45YqozxlEQmwZdH6SQY+QLqWlpVAoFLDb7QgEAjRb4ZVG5tmeM5lIwN3TjKrFxSP289qxD5HgLmfky/Y8V7Yn5NPZhjAs6hD0Jh0lrgY8rUiI4ECILiFUi/VlkIilcIXsCPDpzJjE902hVNC/iTe0yWRENBqldQMqMWVMj/V1W6DVajMOta2tjapmlUo5Gjzn0RFohUohg9VIVI25hxiPBxt27OxGgBFYs3t92ewYAgyBGY4ACRX81csuHDkfoeENMqkIW9fr8NDmiXmDN9HwkLBGQnC0dAs01IKEBN1/sw6f2mhgqewnGuwp7o+o/Z5714uXP/LS8K4ff70AZhbONcWrwE7HEJg+CExnBVY07Ie1yABbadq829nnQGdTH9Ra4/QBcJaPhCixTHlqFJWPTOpMFgzRIA+3Kw6lbqjCqqenB/Pnz6eED1FhdXR0UKP38RAuhMTi4IbeklmJ1eroxPHec5M15Yz96hVGLDnYhralZeiEh7bzuDzQG/UIBUJQadRwOhxQqpQ0c+OVpTBejeuWrcto+E7aNjU2IN+aVl3t6d2FiBBCnklDiSxWGAITjQAjsCYaUdYfQ4AhwBCYAAT63XG8+JEP+06FaLhecZ6UElfLaxXQT/NwLZI5rK2Hx+7jIew+FqKZxEw6CVYtUOEzWwyM9JiA/THVXRCl3bNvefDGHj81zf7Lz1lRV5bZF2Oqx8fOxxBgCEw9AtNVgRWLRqA3yVFaPdhHye1wo+VcO7T6waqcqUdu7pyRj0WgUotRsbDymky6/nA78quGhsARnzMSTkhIK2LeT1RYhNSyWCwjEjUjTiKVQsDRg9LazF5YfELAhxf2IRqPTikeMokMVWE1BIUMjSk7PXckHIHP54der6PElcftoYkKri7SuCJt6J5vyzjm/v5+RMNeGA0G9IV7cdp5DHIpB5t18kN3pxRIdrJpgQAjsKbFMrBBMAQYAgyBNAKeQAK7jgbxyg4fAuEkJX42rtLg3ht1M1LBRObz4oc+nLgQoXPTqsT49C0G3LhCzXyTZsimJwTk9t1+/OE9L7QqEX7weB7NCscKQ4AhMLcRmI4ElhCLgpMlUbusZtjFIWqTpjNtUCi0EJHMJ6xMOgKExJJwCdQsqYbkYqb18Zw0LsSpaf5YSkdjP1T6Qkik0iHNiYl5X18fiouLodfrqdF7c3MT8vMLIB2m/VjOF4/FkIjZUTAvs/9Xm7sLx7vPTVhGwrGMSyLmUKSbB7FIgjZPw6VD7H39yC/ISz9/ZiCwyGe6UD5uWrVlRFwuXKhHnllPsxwesu+Dn/fCqFVBr1WMZYisDUNgzAgwAmvMULGGDAGGAENgchH4+HgIv3vDTYkekpp863ot7linnfaKq7Gg4g0k8OYeP97dH0QymaIhaESNRcznWZneCDzzlhvbd/lpYoAffiGPZrdkhSHAEGAITLcQwnicBxDD/BV1I4aChYNhnD96ARqmxJqyTZyICxD4IBasng+OGxv5lGlwZw6eph8tWL1wVLUU8YHqaY9BpR8+dJR87nK5qPLKaDRCEAQ0NFyA1ZqXM4kVC/pgzhdDKht+nuScOxr3wxcNTBn+hLiapyyCqbUXJ2wkm2bah4so0QbWg2RTzJQhkRi616lWY371goxjjkTC6O3phNVshJAUsKdnJzV0L7TqwE1A5sUpA4udaNojwAisab9EbIAMAYbAbEfA6U3g+fc9NNyOvBBeUavEfTfrMa9g6BvDmY4F8cgiap5j9REaWji/XEHVZWsXq2b61Gbd+Enmt207fXjpIy8UcjG+/RkLFlWyN6mzbqHZhBgCOSIwnRRYPqpoiaB2WS3EktGVVdFwFE2nmyDh1JBws++7NsclndTDEkIc8UQINUurIFdk/yIkEU/QNUskOKSSgFSRROWCckhGIcR62kJQ6i0Z50YIJUe/HQajCfn5+ZTUaW9vh0qlokbv2ZaEIID321FYlTm7YbOzA6d66pFCKtvuc2ovggjz1KUwdjlwzppELIcQRpVgwI3zb6O4ZCotLc1QKzmolEo0+M6j3dcCrVoOs16d07jZQQyB4RBgBBbbFwwBhgBD4BohQEyxL3TE8LNn+uH2J6BRivHthy1YVJH9A9M1mkLOp+3qF6g5PSG0CA7LapR48hELza7IyrVHgKzJyzt8eO4dD6ScCD/6Sj4qi1nY4LVfGTYChsD0QWA6KbC663dj2brlYw4tG0CRqHlkcgNolhRWJh2BVDIJt7MbK9Yvh1yZ3bNOy9kWxKKiS4RjIh5HNOLGkuuXjEhi9bW7IdcVjTo34olFQgdLSkpAwgvPnj1LVVlqdfbkS9jnhVYTh86S+dj36j9BiA+POq6JalCirwAJJXQEexASgll3S0gwc7AcN667acRj68+fRZHNSlVeH/d8iHgyjnyzBko5e4bIGnR2wLAIMAKLbQyGAEOAIXANECD+Vi9+6MXbewM0W9/GlRo8uEkP0xzK6hblUzjXGsXv3/Gi2yFQc/fNq7V45PZ0JhtWrg0CRBn3/PtevLbbj2QqhR88loelNdn90Lg2I2dnZQgwBKYSgelEYJkNXshy+IEsxHi0NbSDj4gglbP73FTsH6J4ikX9KK8rgdYwNpPv9gvtCHhjkCkGq38SiTji8RCqFlVQI/LhirPHC5HUDDE3OoESDAZBQunKyspoV0SJRUgtpXL4vkfCK+TuRXFl5ueZLm8fjnSeRpLIyaagFGtLYe5worVADn8snYkw2yJJSLGq4GYU2YozHup0OhGN+KHXauCI9uGk4zjkUjEKLGNb62zHxNrPPQQYgTX31pzNmCHAELjGCLT18vjpMw70OgUYtRI8fLsBG5Zl/4bvGk9jwk4f41N46SMfNa8PRpIoypPiifvNWFghp75LrEwdAoRU/OP7Xmzf7aOKwD9/zIqa0uxDPaZuxOxMDAGGwLVCYDqFENryc1eyEEKl6Uwj+KgEUhm7303Vfgp4HahYUAajdXh/KjIOGt7X3Q97lxdy5fDPSUTVxcd8qF5SDYVqKAlJCKm2c06YitOk1GiFkFjRaBRVVVX0/CdPnsS8efNG9FUbrs9YMAC5MgSjRT/sKfm4gI+bD8Efy14NNdochvs8T2ND2dkeNNRa4I26cumCHmPkbdiw7JYRvcyOHz+GeSUFEEtEONp/EL6YBxaDBhrV6CRizgNjB84ZBBiBNWeWmk2UIcAQmA4IfHQ4iKdfcyMUTWJlnRKfv9sIq2F8hqbTYV7jHUMyBTi9cTz9mgcnGyOQy0Q0lPI7D1tp5kJWpgaB//N7B0gygQHyqnYe+zE3NcizszAEZh4Cs4XAIsiTkLGe1m54nBHIr1L5zLyVmTkjjoS8yCsywzbPNuyg+zr7YO/yQKkaOeFLKpVEKOBC5cIK6E1DCaPmU30wlZSPGZhQKEQNzW02G8i/idG7Vpt90hl/fx8KSlWQK4f3WWtxduDkFHlhmVVW6GQGBIUAHKG+MWNxdUNxSoIq6QosWrAoYx/EDL+roxUWMzmfFwd69wEioMiqB8exZ7qcwWcHUgQYgcU2AkOAIcAQmAIEIrEkXvjQhzc+9tOz3Xa9Bo/dmfmt4xQMaVqeIh5PYd/pMF772I/u//bJyjNxNLTy1jVaZlEyiSvmDybwb9vc2HcqRBVwf/ZpC+bZmLHxJELOumYIzHgEZhOBRRaDqG3aG9rhd0WhUGtm/PrMlAlEw35YbAbYSm0QiS+rrj39HnQ09kKpGXvoWTjoQ2lVAYx5pkGKKZ8nAj6mBicf40uZVApd3d1UhSWXy9HY2EgzFYpJpp0sCtlT8bAdecXDq7BIVzsb98MTST8bXlkIqUqM66UyKXiep/9WKBVZK8EG+tTLDSgOcnAZ5egLdmcxi6FNVXE91lXfAp0289p0tLdDqZBAIZehwVePdl8ztCoFzAaWtGdc4LODGYHF9gBDgCHAEJgKBH78u34cOhuGUi7GDx63oq5sjA9RUzG4aVIo1esAACAASURBVHqO32x348PDaWl9eaEMf/WFPFiNTK02Gcv1N0/ZcaIhgiKrFP/7GwVUAccKQ4AhwBAYCYHp5IE1nhDCq+do7+pHT2sP1LrMmevYzphYBGLhMDQGKcrnp1VSIX8QjafbodJkJn4yjSDs92NenW1QaGIsIsDr4SBTZkee+Hw+6ocViUTQ0tKCwsLCrCce6O9BwTwdZIrhk9R0+/pwsP3kkH6DgQD149JotQj4A1CqVIiEwzAYc/MJ1ch0WHaiF+1rl6DT15z1PK48QJQSozBRhTUrbhixn2PHjqCqvASxZAx7e3ZSv69Cqx4yKUvYM64FmOMHMwXWHN8AbPoMAYbA5CLQYRfwLy86caE9hooiGZ54wIzSAqZsGQvqySQobn94z4vGzhj1C7t9nRb33qijRCAr40fAG0jg5885cKY5Sr2uvvUZCzXTZ4UhwBBgCIyGwGwlsMi83f1udDX3QKHKjSwYDTv2+VAEYtEwSPRmfnE+2uo7IVfqc1Mb/XfykUg4AEuBDkUVabPxVDKFjgsO6ArmZQU9CR0kYYQkE2FXVycUCiUNLcy2+Po6UFpjhlgy9NmFTwjY0bAfYSFyqVui3HI53VAo5JDJZDShClGC2fvsKLDlZ3t62l7BKWBTlyCO5LgJLNKfRJBjZcEGFBeVZBwPyexIwkS1GjXs4S6cdp6CVCpBgVkL8RVqu5wmxA6aswgwAmvOLj2bOEOAITDZCByrj+Dvf9tPswwuqVbge49YIZMyZUu2uPNCCq/u9uH9A0GEIklUl8jx1ftN9G+W+TxbNC+3b+rk8fPn+tHnimNxlYIq3FhhCDAEGAJjRWA2E1gEA5/Li9b6dijVg8PRxooPa5c9AiSrYMDjgMEyvCfW2HpMIRIKwjbPhLyiy2QPH42jtz0EXV7B2Lq56I3W1dWFxYsX0zC+trY25OdnTyAJ0QiUygi0huGzGXZ4enCs6+yljIQCz4PnBUilHKLRGPVoI0QWUWRpddl7cZEJcyIpyuQ2CFIJOoPtE5L90Bi34calWzKSeoSIO3/+HArzzZBIxDjafwDuqAt5Ji1UCvYyd8wbkTUchAAjsNiGYAgwBBgCk4AAMcL+t1dciPJJqhi690Y9FHJGXo0H6h6ngGfe9FKTd/LD6aYVxEfMAK0q+7eh4xnHbDiW7M9fb3PRrI8bV2rw6B0GqJVM1TYb1pbNgSEwVQjMNg+s4XALB8M4f6weGp01NzXQVC3GbDpPKoXxvJ2KhoIorLDCUmAegoqr1w+RnKzl2L/vIuEgNfY3m80gZBYhZTSaLD3SUik425pRuZRk5hv+meVKL6xwOIJgIHhpz5nMRvi8fhhNxvFAg9VdQKDAjEaZF4lkYty7JuSNYKXlRiwYwdCdEH8tLQ0oKsiDK+rEsf6DkIjFKMzT0b9ZYQhkiwAjsLJFjLVnCDAEGAKjIPDBoQD+/RU3VVt99lY9Nq8mUmkG20QgIMRT2Hk0iDc+DsDx31kLS/Kl+MLdJiypUkDKMYJwNIzjiRQ1yH/2LQ9UCjHuWKfFfTfpGHajAcc+ZwgwBIYgML0UWNFxrFByxGP5aAwNp5rBceqM5MM4Ts4OnUAEopEg9CYlSqtLhyUciRdWH1Fh5Y9d4UUIq76+PtTU1IDjuEuG7rkMO+rrhq3MNOyhbe4uHO86hxRSlz4nGRBJ+CIpHo8Xxhz9rwY6LNdVIiEWocffjnhSyGUKg47xenyQRtW4+/qHYNBnDrft7uqi1g9EUXbOfRrdwQ5oVHJYDOm5scIQyAYBRmBlgxZryxBgCDAERkHg1V1+PPOWG+QF4pOPWLF6wfBycQbk+BAIhJP41csuHL8QoW8jr1ugwpOPWiFnIZoZgY3yKfz0mf5LmP31l/Ixv5wlExjfTmRHMwTmLgLTisAy8UgeOIQUL0CyeCFSCjlSp88CEgnEy5Yg5Q8h2dMLkVwKcXUV4PUh5fUCeh1E1gGz9sseRFevKskAd3jnYehNBZBwLJnIdNz1yUQCKi1QWj2yz5WrxwM+qcsq0yQxcSd/Kisr4XA4EA6HodONPTviAF4hjwvFFZmN5N+v/wRBPjxpBFaxvhxcSoTeUDdiidiELGNPdy/WlGzE6kVrM/YXj8dx/NhR1NWUg0/EcKBvD4RkDCUFBqZsnJBVmFudMAJrbq03my1DgCEwSQgkEim8vMNH/5C3TF//lAnLahh5NUlwX+r2wOkwXtnpQ+d/m+VbDBwN17zlOg1VF7FyGYHmLh7/vs2Fho4YivOk+NOHzDSzIysMAYYAQyBXBKZVCKEljlRrO1ICD1FBAUScBMn2DiCZgriiHCm/Hym7HRCJIV5Ql/6MElgGiMvnIf7am5DcsAYiG1HHXFbAXIkNIbGaTrcgLgBSOft+z3XfTMZxQiwKuVqEirqyMankiApLZcynnlJjLcTQnWQkJCbuxNfJYrFCKs3OxymVTMLd2YiqZaXDnrbX78DB9hMT4k813AnKBR3mnWrDwetLEBFCY536iO1CoTB0MiNW5m9AcXFmQ3eS0dHndcCo16Hd34IG73koZFLkmzWMxJqQlZg7nTACa+6sNZspQ4AhMEkIkLA2EpL1+id+aFRimsltcaViks7Gur0agZiQxn/fqTAisSQqi+X47sMW2MwcJJK5HVZIsNlzIoSnX3dTbOrKFPgfnzbTjI6sMAQYAgyB8SAwrQis/MuqleznJEKy24Pkzp3gHnoQkJOQwuFJLNJ3w8kGxHkxOBn7ns8e64k/giivxDI58ots0BtTEAQxAv44TObML7J87hjefm8/tmy5FX6/H0ajcdSBES+nQCBAVViE+Orq7ITekEOWylQKorgDhryhZuxCIo6Pmw/DF/WPOp5cGljUBdBJNHDEnAjEvLl0kfEYvVCA9Ys3QS7LrOxuamqE1URsNcQ4ZN8LX8xLwwhJOCErDIGxIsAIrLEixdoxBBgCDIFhEIjxKfzyBSeIEoiYtP/l562oKmZfxNdisxCV0e/f8+JcS5SavN+wRI3H7jLOWbLG7U/QMMvD59I/7B6+zYDb1mpZmOW12JzsnAyBWYjAtAohHBeBRRZHBPAppAIRwO2GqJooZIZX55CMcF3NHfA4I1CSmDVWrhkCyWQCyUQIoZQM4YCAmzYthN0ewMEDJ3HPvTchLkgQDERgMMmRSonhdYegUCggCDx+9g//gu9890kaDqjVaqkKiKiECJlFfK/IOguCQLP/EaXV888/j40bN6KAKPxEIvT390Ov11/KwOd2u6nROwmXG60E7N0orcvkhdWD411nBnlhjdbfWD83KM0wSY3wCT44w/3wuL0wGPX0cK/HC6VSCaUqN3WhOMlhgXY1airrMg6HeHq1tjRiXkkh3MTQ3XEInESMorz0GFhhCIwFAUZgjQUl1oYhwBBgCAyDACGv/vMtN97ZF0CekaMeTKX52cnJGbATj8D7B4N4e68ffa44jDoJPneXEavmq6BVzY2wQmLUvv90mGbBDEWSqCiS4fE7jagrY8TqxO821iNDYO4iMHsUWANrKAJiQHzb6xAvWgjx4uqMJBY5orutG84eH5Tq7L2Q5u6umbiZE+WVIIRQt6wKZ8514fjR81iybAElYvz+ANasWYHnn9+GwsJCqsZWqzUgYYCclMNtmzfh//7zr/Gp++9Ga3sXVVTZe3thtuZBp9Ni4cJFeOGFF1A2bx727d+Hz3/+8/jd736Hu7duhVyhQFNjE+U8zUYTSuaV4oP3P0B1TQ2CQT8eeODBUUksIRZDItwPW8WA/9pgXHY1HoQ7MrEKKXIGtUyL5cd70V1biMaUG+FIGDKpDIRYImQc8flSqVWXSLlsV0sW0WJ9zWYYRlC09fb2QCKKQyGX44TzKJwRO3RqBUz6zN5g2Y6DtZ/dCDACa3avL5sdQ4AhMEkIEJLgl3904pMTIWrY/otv2ai3ECvTAwFiWP7s2x7sOEzSUIMSjE88YMaKutzeLE6PWY0+CrIvf/qMA0fPh4n1C80y+OgdBkjEczuUcnTkWAuGAEMgWwRmH4F1EQFBjFRTG0TzawHwI5JYfrcPzec6odbmEEqWLeCs/SAEAh4nlt+4hIajHT/egtbmHqy+bjVcThda21ug1xvw5pvv0JA2h9OBH/z5k3jqN7/FE195DFZrHn7xj/+Ke7begfauXkpgzSudh/Lycrz/7jsoLa9AVVUVVWb9+Mc/xve//3089dSv8fWvfwOvvroNDz74EM0O+KMf/Q3uvPNOOB1OXL92LSW9Hn/8carcGq1E/G6YrRLIVUP9KHt9/djffny0LrL+XMEpYFMXIyUSob73NGRyGVWgBQMh5BfkIxaLQcpxkHC52wwUi2px3eJ1GcdGFGqNDRdQXGilKrOPuz+CkORhs+ggk+Z+3qzBYAfMWAQYgTVjl44NnCHAELhWCBDl1W/fcOODg0GY9RJ8/3ErI6+u1WKMct7zbTG8szeAI/XpMLolVUrcd5MOS2uUmE2cDlFavbU3gA8PBWB3x1FkleKR2w2znrCbptuODYshMCcQmLUEFl09DskT55Hq64PklpsAjvhiDV9cdhc6Gnqg0rKMalOx8Ul4X8DrRO2yKmgN6RBOQmD5PTHctGkR7HY/DSEsKipAf68Tt921GSF/GCJRChIZh7/925/jy59/FM/+4QU89OB9OHuukZJglRUVKCkpxfvvvo35ixYj6Pdj4eIl+OEPf4if/OQneOqpp/DNb34Tb731FpYuXULJrZdefAmrV65AIBzGddetyYrAIgqyiLcbxVXWIbARL6xdjQcQ4CfGaH3gBBKxBCW6CohSKZzpPgGVWo1QIASJlEMsGqWhkTqSmZO8+cuxSONKrCnehLy8vIw9kEyOwYAHFpMBrYFmNHnqoZQTQ3cWkpsj7HPqMEZgzanlZpNlCDAExosAyTb4m9c9NESNhKT9zy/lYV4By+Y2Xlwn+/hTjVE8td0Njz+ORBJYv1RNCZ58sxSSGRxZSJRmZ5qj+MVzDmrSTjJgrlqgxFfvM0HK5f4AOtnrwfpnCDAEZj4Cs8sDa7j1kCK5Yw9ERiNEyxddVGMNv24BbwDNZ9tpOKFINIO/VGbAtoyEfKhdWgGF+rKiuq3VhVCYx8KFhfD5eDQ0dGHlyvl45aV3cPrMOdx80w2QSmXYsetj1FRV4d5778Bb73xAwww7WnsgghhWmw0mkxlnTp/CipWr8OKLzyMSjqG7pxvf+96f49Chg2hqasCjj34Ov336aRpC+PUnnkBPbx9cTidqamtw6NAhrF+/YUwKLAJ1KOiDVsFDb9UMQb434MDBtonPSFipnAfL+VbsMsXhCbjAcRzy8q3wuD0wmkY3sx/LFlH5Lbh51RbqN5aptLW2wEjCBkXA3t5diMYjsBg00AyjSBvLOVmbuYMAI7DmzlqzmTIEGALjRIBkG/zVKy7sPhaCSi7CX30xD2U2Rl6NE9YpO5wQPEfrI3j5Ix/1x1IrxagolOGztxuwsHzmZZM6ci6CFz7yormTRyKZwrolKjywUQ+bhWMhg1O2q9iJGAJzF4HZT2ABSIqBuBip1jaIaitGJLEiwTAaT7dAoWLhhJN1VQR9LpTVlcCUd7UB+gBpSJRy5OUN+T8x4Sd/kz8DCrqBf5Msk+TfKSQTQNvZHphKK6h5O1FjBYMBnDl1CkI8jqNHj+Fb3/42nRJRJpE2AybupaWlkMvl6Ohoh1aro8eSz8mfsZaQpw/FFcObmO9uPgRXyDPWrsbUrkhTDFUMcEgiuNB2HvkFaaXURBJYopSYGrrXVizIOKZgMIjurjYUFuTBx3txxH4AEglQaB2fAmxMILBGMxoBRmDN6OVjg2cIMASmCoFkEvjD+x5KflgMHJ58xMLIq6kCf4LPE4omqfE+yRzZ1Z/2qVg5X4W71mkxv1wOlWL6vj0n4asNHTG8tddPjdqJtxUZ890bdFhaPfNIuAleWtYdQ4AhMIUIzAkCi+IpRvJkA5JHj0Py4L0Q6UhCjOEJinAwjOYzTeBkOkgk3BSuxuw/FR8NwlpoRH5J/oRONugJQSTl4HECan2afCQEVVdnB+KJOKqqaoZVVBEvJ5J5sKamhpqgd3V1Ij+/IOux8ZEQpCI/TLahxGenpwdHOic2I6FRYYZRakAwEUJjTwP0hnQSglAwBLVGnfX4Mx2gjOlx44LbqFdYptLS0gKVQgKVSo5TzuPoD/fBqFNCr5ndfqUTBvIc7YgRWHN04dm0GQIMgewQeOYtD7bv8lFj7J/8aQHKC5nyKjsEp19roqg7Vh/Ff77phieQgFicNntfvUCFz281gpNMnxA8su+I8u/373jg9ieo4komFeEvPpeH2lIZzbDECkOAIcAQmEoEZrcH1lVIpsSAO0TNr0UmQjTEMpJYyWQS546cBSfVU0UOK+NHIBYJQGdUYl5tWY6dEeUUIVLS35UiEfGWSqL+eDPc9n5UL69BPAIoDSUg60fC6giJRf7d1dUFq9UKqXRooh6fzwebzUZVWO3t7ZDJZCOGzWUavLu7C0XlWijUg58tiZJrZ+N+eKOBHOc99DAlp8LqIz1oW1WDzriDGqlPVingq7Bm+bqMWQ3J/FqaG5FnMUBI8PikZwcSqQRVYcmkjACerHWZ6f3OKAJLEOLgeR5qdTrNJjHdC4cjWLK4DlIph3Pnm+j/ly6ZD7lchp4eO1pbu1BTWw6rxQS3x4cLF1pgK7CirKx4pq8dGz9DgCEwRQi8ttuH597xQqMW48lHrKgsYuTVFEE/JacJR5M40RDF7uNBnG6KgqjtTDoJFlUqsHK+EstryNvAqc+MQ/ytTjdFcOR8BCcbo+h1CpRUqyuX44YlKly/UAXlNFaLTcnisZMwBBgC1wyBOUVgUZQJGSVDYtvrEK9aDlEpUduQMLWhReAFtF1oAx8VQyojii1WckVAiPHQGDjMqynNtQt4PQls3/4urFYzLOY8rFm7AEFfGH0d/VBoNAj5fFCqVBBJpLB7/DQD4Z5PPsHmW27Byy++gBvWr4fFmkdDAwmpNVBI9kK7vQ/z56dD5Zqbm2GxWHIaZ9TXC1vZUBVWf8CJ/W3HkUhlTiSQzQk5EYe6iBZ+owpd0V4kJ6jf4cbAJeRYXXgzbPmFGYfY39+PSNgHk0GP9kALGjznoVbKYDUO9QXLZp6s7exFYMYQWLEYj5OnzkOr1WB+XSX67E60tXWhbF4RunvssFpNaG/vRnlZCY4cPYWtd23Ca69/iLu3bsKu3YewedM6bH/9A2zZfANef/Mj3HXHzTAah483nr3LPbtmRn50EgUFMS0mSgRWGAKTgcCbe/z4j+1uKOQifO8RKyU1WJm9CLT28Ni2048L7VGQzH7E8F0uFWHDcg3uukELi0EC8qNtvPccXkhR03VitD4QshhPpBCOpuD2xfHR4SB2HQvCH0rSbImEqKoqkeOhzXpUFTMCdfbuQDYzhsDMQWDuEVjptUn5eCSeex6SRz8LkT5zOGEqmUT9iQtIJqSQytizQy47W+BjSMSDWLJ2aS6HXzrGbo9h5869uOeejVCpxPjkkzPYu+cQ3G4P8vPyEAyFIJNJ8en77se7O3ZgydJl1Kj93nvvhdfnRVdnFw0T/OIXvwiLdXDWQOLlJJFIUFhYiK6uDqryUquzJ18CDjvyimVQqAbvlXgyjk+aD8MT8Y8Lg4GDxSIxivTl4IQEuqM94BP8hPSbqRNduAAbV9+aUYVFjjt79gxs+SakREns7/sYfCKGArMOCjlTYU3q4szQzmcMgRUMhtDR0QsR8fuoq8R773+CJUvqYDLq8dGOfSgszEdtTTmUSgWefe5VXL9mGZxOD9atXYEdOw9g3drlOHzkNDasX4X6Cy0gjPnCBdUzdNnYsHucAl7f7UeBRYoTDRFsXa9DNJaEP5RAJJZCOJZEPA7IpIBcJgbxaTDrOeSbOOSZOGiUTNLNdtHoCLy7P4DfveGGWCyinlcLK9gD6OiozY4WHn8CHXYBe06EcPhcGEQNRdRPeo0YRi2HQiuHxZVKLKqSo9AyNKxgJBSc3jj+bZuLHt/eG0NpgQwOTwIt3Tz6PQJcvvQbfRIWuKhCjptXalBZLINFz9EwR1YYAgwBhsB0QGCuElg0DC2cAOJJpDo7IVpYlVGJRRQ77Q2d8LsjUKgmzl9oOqz/ZI8hmYzTUM2apdXjDsVMJsU4d7YL+/cdxvz51QgGwnC5vdiyeSP+4+nf4dE/eQjv7diFe7beid//8QU89Ok/wavbtuErX/0aXnz+D7hu7ToaVnj06GHceefWQSosgoPD4aBeWESd1djYAIvFmtOYffYulFQZIeEGf9l3eXupF9ZEqKVEECFfW4zKww2wL6pEj8iPsBCctOUUJcWoUa7AwtrFGc8RjUbR19MJs0kPT6wfR+1HKAY2i44lpZm0lZm5Hc8YAotA7HJ54XC6UVdbgVe3v48N61dDr9fgrXd2objIhiWLayl7/scX30RdTQUSiSRWrlyEXbsPYOWKxThztgFrr1+O9o5ueDw+LFuaOTPCzF3S2TvyYDgJly9Of9y9vNNHE4p0OwR4g8PLt0dCgoQHVRbL6Y9C4mVkM0uRZ5JQNRcrDAGCwM4jQfzyBSfNVPe1+03UF4mVuYlAIJTE/tMhGmbo8KbvQUQBOlCIqX+ZjdxDOOQZpTT8UC4TUcKLqKeSyRSEBCixToixM81RBIIJeEJJuLzkAT1dOE5EPbhIFsGl1UqsqFXQhAGsMAQYAgyB6YjA3CWw0quRigCJba9BXF0F8XVLMpJYpG1HQxt8nijkiuyVOdNx7Sd7TIlEHHEhgPkr5oObAC+kVJKjXk/BQBx/9mc/xOOPPUwVVdetXIH/ev5FPHDXHdjxyT7ce+/d+K/f/wG3bb4J7320C098/U/x8gvPY+0N6yESi7Fvzye49/5PDSGwIpEIYrEYysvLaQZDr9ebkworzscgk/ihtwzdJ0SF5Qi5JwR6sUiCArkFcrkWyVQCjnA/wnHiCzY5RRnX4aa6O6BSZX6WbmltgVrJQaVQ4JTrOOyhHph0Kug07OXx5KzKzO11xhJYH39ymPpYkdBB8u+iwjyUlhRCq1XjN0+/iDtuvxENjW3YtHEtPtqxH+tvWIm9+45h08brcfTYGdqupro8q5VzecIw6BQQhCRCER5mowqkTq9TIB5PIhS+ok6rQDwxtC6RTCIYutxOp5XTHzeD6jRykOyrgVDs0jm0mnT8fCA4Sp1aDpEI8F/RTqOW0bcA/kD0Un+kTiIWw3dFnVolAycZWiflxPD6Lx9L4pKl0st1bk8YSqUUMhkHry9Cz+H2RqBUcJDLOHgu1nm8EcjlHJWDXqrzRWgbhYID+ZwcSz4jdeT4U40BNHSmcOB0CL2uOOLxFA0bJIbGA4V8r5m0EiypVoLc44hPkUkvQzTKQyqTwuPjqXrCEwBae6LodydBspANFIKXjBNBKhVhcaUC99+sh0WXoGPxB2IUT4I/WWtSR9aAnF53dV0KIOt5qV0ohlQyBZ1WcamOrDPZA/qr6xJJuo8GjiV7SYgn6X4bVCckYdCn60wGFcIRHoKQgEGvvFinRCQaR4yPw3ixjvwdjcURi8VhNKTbkTry/0gsDtOVdXycHj9QR87PCwlEIgJMF/c7vQau3u8ZrgFCIgevui6GvwaA4BX7nWA7pmtgmP2uHes1oCLG18NcA5wYH+z34Tdv+EFCur77sBkr65Tw+WMwGZV0b6uUUkg5CXz+KK0je1epICECEvh8F+t8UbrX5TIJvIPqCLlBrpV0O/K3TCah+93jvVjnj0ImJXVS2jdpR84lHaaO4yRQq6Rwey62C8QocUKu54E6so/FEhE0V9eJRSD3goF2ZG8T09Kr68hFoL2yXYgHWSByXQwcS/Y2edN8dV0ylaLXyqV2YR7JBLkuLteR/U6w1g+qExBPJOi1Qo41GpV0H5L9Tq4VWmcg+12ge5Tsy3Sdgu5hnifXRbrOYFDQ/R6NJWAcqNMrEOMT9NoYUhcVaN/kWHIuIZ5AOCLQ68zuCFNsSaghuS+dbuHh9A5PopN7BwluJveLTBm1VQqi6pLgUxu1KLaKYLOqEQhGodfK6HHBIJ/ed54ItJp06GDgijqNRkbPMahOLaNq5UDg4p71RKCm93wRvacN9KdWS+n3wKA6lZS+9fQP2e/ika8BXwQKuXSY/Z7hGpBz8A7Z72O8BpRSeAbtd3Fu10AwBvEw+33CrwH6PTB4vyfGeg3Eh+73nK4But9Hvwb0egUEPkGvq+GuAfLdkL4u5PR7gFwXA3U6nRwJ+t1Avi/S7ci8ScKBUOjyPh6uTquV0+9Lch+5cr9ffQ0Mu9/Hew1IBu93tVIKjhtuvw9TJ73ynj+2a4Dc8+VyCX0eyuUa4KQSkDEOvucPvgbINU0UnEO+B66655NnxbFdA+kQI3IPuvR9EeJh0Erpd1WuhXxnDJS+fi84STr7G7lz0r8ghkg00Gbgbkrup+m6tB8RaKi3LT+c6zDGd1xCjFRLF0TVlQDIC4l0ZltSfvazp+FwXCYc4kKCZiZ8YOutsJpN4zvvLD86HHRh4eqFkMom5iWOvS+Gv/v7X9B99dkHH0JM4CnhtHzpYrz0ynbcuWUzPjl4BHfdcRteePkV3HfPVvzj//0llq1YSb/XVq66ju7No4cP4dbb7xxCYJHlIF5OxcXFlKQ5c+Y0CgpsVLWVbXG1t6BqmW3IYX1+B/XCGjBdJ9FEfl8ARpMB4XAYAX8QJpOR/vYZSyFKLKvGhrLzPYirFGgo4BCcACUWuTy9Xg/9fWsyGujfZGzV8hXYsPbGjEMj6rWGC+dQWGBFMB7Egd6P6XoVWQ30nswKQ2AAgRlLYEUiUezbf4wqrkpLC2HQ67DvwHEoFXJYLEYsWliDHTv305BCTiLBqlWLceDgCfpl5yaS0VvWU6N3VqYXAoSkOtcSxammKOrbouhzXVYnaFViFOdJI3lhfgAAIABJREFUUZIvhU4jwanGCGrmKdBp5/HYHUb62VgKubH6ggnaN/lDjm/q4tHazYOPpx+KSEjP0ioFVi5QYkG5gnrgsDI3EDhwJoxf/tFJJ/vV+024fhFTXs2Nlc99lkSRRdShxK+K3FuIdxYh2sn9hBAV5IckIcmJbxbxuyJhgCSjIFF/ElXWusVqLK1mbxhzXwF2JEOAIXAtEJjrCqzLmEuRcvqQPHwUko03ABeTa3R29OHd9/Zg8eIamEx6HDhwEtWVpZAmRNDqTBfJumuxctP4nKkUeD6AigVlUGkm8vmLEK0cgv4QGk81wWA2g5NKQcz2pXIFoiE/FCoNkskExBIJhFgUnFSOaCQKrd4EpT5trk4EAYQ4Gq4QAsbv91MVFiHHOjo6cjN0T8UR8fSisHKwGXw8mcDupsPwRX309AF/OjOhRquB3x+gPtFejw8ms3HMC0zDCSUGmAQZwmY9PBEn/FHPuDITEszI720JxyEUDF4i8fQqE1bl34TiopKM43O73YiGfdBq1GgLNKLR0wCVIm3onia1WWEIADOKwGILNvsQID/ySCjOsfoI3tkfwIV2kpaYfEGAhvMRb5kVdUosr1WgzDaYcCRvdQkBVWQdG3E1Gnrkh+a+U2G89rGfhggRg2VSdGoJ7t6gxaZVGhh1HCTsJcBoUM7Yz4/Vh/G3v+mnhMMX7zZi82om9Z+xizkDBt7jEJBn5sCROENWGAIMAYbADEOA+IumFVO5lVmhwBqYeopDYtcBIBSEZOsdACIIhSL46U9/g7/4wZeg1qjw3H+9gfkLKlBTXYbGkw1Qay3jwi831KfvUWQ/RIIuVC2ugkY/ec9fkVAEZw5egM5kHhV/Knzo60ZR9VJoTaOr5pxOB6zWPBgMBnR2dkClUufkhRXxeZFfxEFylcLRFfZhT/NhEGN3QpYplUoq8yaEmUarhcftyYrAGtgNFpUVeQFA29mH+loL/DFvziRWOByBTEaif0RwuzyQSjkolAoQ83iLqAQbl982IibHTxxHWUk+lbAfsu+loY2FVh2NfGCFIUAQYAQW2wfXBIFoLIWdx4LYfTREFVDBSJosMmglWLOIeL+oqEmyWTf1psVEoUXS1Td18th9PISzLVE6No1KjJpSOR7cpGdm3tdk10zuSS+0xfD3v7PTJACfv9uITSvZ257JRZz1zhBgCDAEGAIzGQGmwLp69cRAKIGk3YHffrQHgWAQbW09qK6eRxv297toOFVBgQV1NfNglCuh1pkgFrMf5gSfaCiAioXF0Oi1k35ZhPwR2Dt9NBSQ/MlUpHIVvEE/UuEItKY8WIqKRxwb6cvp7EdVVdrQ/fTpUygvr8h6PiSDpautEdUrS4ccu7f1GHq8fYhFY1AoFPB6vJDKZeB5HiqlEkqVMuvzkQNMUgMKwhwiViN8vA/ucH9O/SQTSZq5kRBrJJySkIByuRwejxdWkxVVshVYtGBRxr4JGdfd2QarxYieUBfOuk5CKpHAlqejIc+sMAQYgcX2wJQhQDxuOvoE7Dsdwrv7AgiEk9SrpyhPipoSGdYsUmFR5fQLoyEqCRLuc+hcGL3OdEjjqvlK3HujHlUlMhoSxMrMRoCQlD/8VR810b5ng46SlCzb28xeUzZ6hgBDgCHAEJhcBBiBNRy+YqTa7Tix/W2c4hQQ61SorS2jDUnmuzff+hj3378Z1dWlsJgNqD/WAIlURb2x5mxJpRAO+FFUaYW1MG/CYfB7/DQc8Uoz+HA4hb/+6/+Dhz91L5TEd1ejo2osQrYIsRhV/8hkCkSEBP7rD8/j01tvR35ZNeTK0cMaiaE7UUYZjUa4XC6EwyFoNNmTcoIggEu6YCrQD8Kk29uP/W1HabggaSOVSqnqym7vR37++PDTyQ0wqqwwtXSjs1ANd9SVc+bDUCgMhUIOn9c/aJxKQYd1VZuhvxiWOdyCU/WaXEKtgo47jsAZscOoU0KvyY2cm/BNxTq8pggwAuuawj93Tk5C8/7zTTe8gQRiQtpnihBWD99moKqrmeAxRUIKSRayZ97y0HkQ8i3fxOEzt+px4/LJkzrPnV1ybWba3svjr/7NjkA4QYmrBzYy8urarAQ7K0OAIcAQYAjMJARYCGGm1RIh1efDv/7+NWz91B0oKyOkQpKSIz/60a/wp3/6GeTlmenBiXgCZw6egUyhg4SbGEuMmbSHyFijkSCKy60w5acxmcgS9AbQeLoVInECi1YvBnfRFP7994/SbPX51nwoRSlse+cDaDQ69PT24IuPPUwSnePZ556H2WyG0+nCk09+F5x0bN7JZJ3b2tqwePFi6v/U2NhAwwpzKYH+HpTWDva0Iv3vbDoMb8QDj9tLTdxJmQgCi/SjkmpQEZAiaLMiIgRhD/bkMnQQAkutThN+RCVmMKbHiZQItmQV1i5fn7Ffol47cfIYqspKEBD8OGLfD4hTKMm/2EdOI2IHzRYEGIE1W1ZyGs6DpJ6naqv9AbR0pzPYVBbLsGahCqsWqFBomZlvm0iI2ZHzYXxyPIRzrTGaYYkox+65UUez1ZFMX6zMDASI59pPnumHP5jALWu0lFCdCWTqzECXjZIhwBBgCDAEZjMCTIE1dHU/+uggolFiPSHGzp0HsTrfDOOCGtxyxw1U2X3kyFlUVZXAYNBdOpiQWE1nmhHnRZDK55bCJBoOwpSnRlFF8ah+VNleSz63D01n2qhhPjFnTyYjKK0ugUZvwK///SVs2nwTPnh/F7761Ufx5S9/C9/9H9+AiCPZcP3o7e3FiqWL0NPbiw927MZ3v/sdiMRj/91ClFHRaASlpfNAjMmJEstiGWzKPpb5CDwPwd+HomrroObOkAd7W48iGArRhGWkhIIhqDXqsXSbsQ0xqI+EIzDpLCg0lELX0Qu/VgqnjEdYCGelxuJ5gSqoSCHG7sQHa6BwghzL8zegpDizobvH40E46IFWq8YFzzl0BtqgVsphMaiZofu4VnnmH8wIrJm/htNuBkRhdfR8GE+/7oHTG6dhWSV5UnzhbhNqSsf29mLaTSrDgJq7efzT806agYyE0C+rVuIr95tQaJWC8VjTexVJ1skf/GsveCGFzas0+PJ9o5tzTu8ZsdExBBgCDAGGAENg6hBgCqyhWO/ffxI9Pf1Qq5WUkAn5wzA2NOGmb34ZYr2cKrEylZazLYiEU5DKSLuhxf3cmiGVIrkO+rtfhEgshUg2s6IBEok41BoJSmsykxi57mZCmJw9VA+tYTBpFA66UbdiNX7y039CcaENZ86dx198/0n81f/8W/zgW19FilOhz+FGR0crViyspbi+9Nob+PIjn4baWgQaWzjG4nQ6UVlZSQ3Lm5qaoNfrL2XkG2MXtFks5IPemIJSfXlfJJIJEC8sZ8idTVejtiVKKWIGHwwEYDXnYZ4jBTWfhG9BJVJ8DE7BjbAQQiqVeR+PepKLDYxxG25cugUSyfAecERpdv78eRTb0mb7e3t3IhIPI9+sg+Kikm6s52LtZhcCjMCaXet5TWdDMgp+eChIFVftfTyIGToJE7z9ei2qS2SUyJqNhcz76PkItu/2o62Xh1opxuIqBb50twl5prG/rZmN2EzXOXXaBfyv39jh8MZx1w1aPLTZALlsdu7P6boGbFwMAYYAQ4AhMLMRYATWMCST24cf/vCX+PnPn4RcLqNZCL/4yL0oLi9HqrMLonmFAIRhFz6ZSKCrrQee/iCUqqGeScMSWBIF5PMfQ8J5HOr1fwexYma8jBN4oshJoWx+RUYCI9erg4/xqD/eCJlcOyTbHcdJ8e7uPdhww2osXlqOrg4f3v/gY+zZsxf/9qv/jZ5uN1pbOiGRiHH46DFYrBa0tbfjB9/7Khw9QWitBWMeViIepyGJS5Yspaq8zs7OnFRYxNA95OxCSe1VKiy/B3vaj2Slihpt8CRc0mIxIxgIQaGUQ5QSgYMMJdZyFJ5qgq84H36DEhE+AF/Mi0QqMVqXGT8XJyWoka/AgvmZDd0Jbm1tTSgqyENPqBNnXacgl3GwWS4rGHMeADtwxiLACKwZu3TTZ+CEqDpaH8Fz73jQ2sNDJhWhzCbDZ7bosaBi+pmyTxZyMT6F9w4G8OHBIPo9caiUYnzmFgM2rdZAq2JG75OFe7b9NnbG8P/9ex+ifAo3Llfjy/eaIJ2l5Gq22LD2DAGGAEOAIcAQGCsCjMC6jFQsxqOlpQudnX344IP9+MIX7qMfvvnmbpSVFWLRooUoOHYMhkIbxDeuAbi0HywpghBHc3PnpWx43a3diAtiyOUKFBdeJkyGV2Dpob/nJUTPPAtF7QMQa4hKaHoXorwSi2KoXV474QMVeAENJxsg4TTDZnckPmNqnR5epx0WmwrmfBtSSSn1J5NwCSAlhqvfh3DAh7yiYkg4CUQi8pmAvnYvpGoLxBkUQ8NNxuv1wmAwUEN3osIiWfmIwXu2Jez3QaWIwZg/mNjc23Ic9mBu2QKHG0PAH4CE4yAIPM0iqNGoKfmmUqph0ligkmohgwSFh8/Avnw+XMkgQoIffCJtFZNtkUbVuKH6FpiMmYlXu70PElECUqkEh+z7EOB9MOlU0Gnmzm/MbHGd7e0ZgTXbV3iS5+f0JfBPzztQ3xYDUSIRL6hH7zCgOE9KTc7nYglFknj/QBDbdvuQiKeg00jwvUetWDwNMyzOtfXp6hcoeeX2J3D7Wi3dq3N1n861tWfzZQgwBBgCDIGJRYARWJfxDAbD+OCDfaiv74BWq4DVmv5B7vUG0NHehyVLq7F+7UoUev0QVVUAKmKpkVZiRSIxvPfeXhASbKAk+ASi0RTWX7fsUt1wBBYxAxLJjeDMddBs+AlE3PT+UU9UZpGQF0vWLqLk0ESX+uP1AJTDkldXn4uPhmGyaVFYahsyDEJokbC1Kwsfi6O3IwSdZewqLNKPw2FHbe18SlA2NTbCmpeboXvQZUdxhRaiKzxK7AE39rUdoQTcRBTST3+/A3l5VvT12CGWiGnfFquZhj+KRWLIJQpYxTpIlFpwsRh0rZ3oqSqEK+rIicgqFtXiusXrMg4/Hhdw+tQpVFWUIBKP4EDfx0iJkiiykqRLc/O35kSs9UzugxFYM3n1ruHYo7EUXvvYR8MFCRlQWiDFfTfpsHqBiqlZLq4LMa5/ZacPJy5EQV7WrFuiplnuSvLnZpaZa7hd6alPN0Xxi9874AsmcPMKNT53lxEKOVPGXet1YednCDAEGAIMgZmJADNxH7puTz31Eh7+7F3QaNPZ16KRGH75/36PP//zz18MZ5MCEQGJD3dCsuVmQEGeQ1Lo7rLjj398B9/+zuNwu334h589jW9+/TPw2X2Qq3SUTAl8+E0IfYcHnVRWdis06/9uRmwgQuAI0QAWrK6lKp+JLKTv1vMtiIQAmVxB++ekUsQiEYhEYsgUCvCxKEg43pUlEg5AZ1CgrK4MIpEE4WAcSpUEIvHwhFB/pxspiREyZXp9x1L8fj8lf4qKimC32xGPx6kSK9sikOQAcRfySi6rlci8dzUdgTfqyba7jO377Q7k5afDFT0eL4wD2QOvOEIEEVQyDfQpOYqb+uGuK0eCk4APeuDl0obvKSLhGkPhBAVWFmxAUVFxxtZEyeb3Omjyg/OeM+gOdECrksNsGJ9p/RiGx5pMQwQYgTUNF2U6D4kQ/GdaovjFcw54AwlKVt2xTos/2WKAhHEBwy7d4XNpQ3uCFylfu9+EW6/XMuXPFG70Exci+Jv/sNOsJVuu0+KL9wxOSTyFQ2GnYggwBBgCDAGGwKxAgCmwhi7jL3/5HP7szx4ZpN759a9fwpe+9AC4S4ojCZJnm5DYvQf40mMQElHs2HGQElcPPngr7fQnP/kPfO5z90KnVqGjoQNavRVIxRE58RT4tncBooSpfhDKRY/NiL1EVDwBnwNL1y6G9GJmuokceGdzJwJeARyXThZlsOThle1v4p67bkdCiOHIqbNYMr8WyTgPQr4Q0pCqrMRiED8upGKYv2IR/uHnT+OJJx6GnhruDxAwAyof8n8R2pv90JmyU1ERQ/eysjJIpVIcOnQQVVXVOWVd9Nr7UFCshFIzOCnWa6c/HJcf1ZVr4eh3wpqXNr/3en0wGPQjLhUn5mBR26AP8CjbcQgXPrUFolQK9kAXIonomIgsbTQPG5ZsgkKRObyyva0VRr2Ken590vMRhKSAArMWCjkTBkzktTQT+mIE1kxYpWkyRkLA/PYNNw6eCdPMbasXKPHAJgNVXzEB58iL5Akk8MHBtMF9jE+islhOszIuKB8+08w0WfJZMYy9J0P41SsuEI8yQrTeukZDfdpYYQgwBBgCDAGGAEMgdwSYAit37IjXUsoRwNm2Tuzcfwqt7e0oKcmHSpX+Ae90epBKilBSmoetd26A/cjbiDZ/MPSEIhGUCx6DxDTxflLjmN2gQwlRFPK7ULusCmrdxGdK7GjqhNcRhkJ1WY1jsNrwv378E6xYvhx33rYZr7z2Fm65aQP4eBx79x/EooXzUWLLR6/ThfP1DcizGLFy2UL87rmXUFdHsExh692bkUwIePOtXZDLZFi7diU8Xj+sJiPefvcT3HHnnehob0FxCVFvjfxcyfM8BEFAcXExIpEw+vrs1BsrlxLxdqOwfLBn1JHOM+jwdOfS3YQdI5PIoJFqoJUbobN7oOrtR+viUjhCvaOGOIpSYizQXIfayvkZxxMKhdDW1ozSogL0hXtwxnmCGroXWIYmPJiwSbGOpiUCjMCalssyvQaVSAKNHTH86mUXzS5oNXD47G0GrF2soooWVsaOAAkr/O0bHrR2xyCRiHDfTXpsXa+FXjPxPgBjH9XsbbnjSBC//KMT5C3xp28x4PZ1WrBw+dm73mxmDAGGAEOAITB1CDAF1vixTnU6Edz+Bv6x24fv//XXoVSlX2x2tPdgz97jePjhu+j/o14vml9+EhGvYxBZIlYXQLX6SYi47EPSxj/6sfUQDftRXlsKrWniySt3vxtdzXYorsraSBRYz7+4DYFAAHfefjv2HzqErXfejhdeegUP3H8fXtm2DY898jD+37/8K7725S/jxVe2YdPNN2L79tfxmc8+CL8/ALPRiDPn6zGvrBg9Xb0IBKPot/di0+ab8eJL2/CVrzyB11/bjkcfe3xItsPhkOnp7sa8sjJoNBq0NDdBbzCO6bir+wp7nDDnc1CoL78E7/O7sL/t6JjUTmNbtdxbSUQS6JUm6MUaJDkOfcFOxOLRUTuUR7S4ofaWEYm97u5ucOIE5AoOh+z7EeT9sBrVUCuZIGBUgGdRA0ZgzaLFnIypkJBBoroiyiGiuiKk1ee3GhnhMg6wCY77Tofx7FsehKNJmPUSfONTFqxakH1WknEMY9Yf+uouH/7wnhfxRArf+ayVKgZZYQgwBBgCDAGGAENgYhBgBNZE4CiCu8uNZ194Hd9+8glCVVH1DzGF/+d//gP+8i+/TE+S3HMcqZpa1Le3QyRWgONmRthU0O9GWU0RTPnmiQBrUB8+lxct5zug1hJbiMFv1AcIrE8/+ABe2rYdUo7D3XfdhZ//4z9iw4YbEIlEsHnjRrz+xuuU2Gpp7UQ4HMGRo8dw15YN4NRS+Pxx1J87C1thERKJBAoLbfjD8y/iutWrcfPGdTh06DTa2lrx+OOfG1VhRAZOlGg+rwflFZX0/M3NTSP6PmUGLAVPVyvmzc+HhLvs37Kj4dCEemGNd8EsqgIUuqJw6CToFVxj6q4wVU0N3cXi4X1piOdXS3Mj8q1GhONh7O/dDYhSKLTq8P+zdx7gbRxn+n/ReyNBsEskJZLqzZIlq1iyJDvuLXHOiWNfii/J5dJ7Lpdy6T1OLuckjp1ycU1xd+IuS1bvnb13gkTv9f+fgSCCHSAB1m/8+CG13J2d+c0sFvvu970jTmF1yKQaQzvNWAIkYM3YoZn+hrGVBf/wooWvMGjUi3i00K4Naoq6StPQdPeHuMByutYLJhRevVbFo4TystNrbJmm5s6aatgqkE/vsePZvQ6oFELcf5uBLy5AhQgQASJABIgAEUgfAUohTBdLJr7IEL1Yg2gkCuHyMkAQNxsXAO4Qwi/8E6K770Q45EXDhUaEAiKIpYN9kNLVmnTV4/e5kZOvRd4Iq/xN9hxejw/1ZxsgU4zszxQXsG6+9hpcbGjCy6+8ji987lN46R+vYNmyZRCJhFhUVopf//Yh7LxmBw4cPIzbb70Fz73wEu689UZY+s0Ii8Tw+/0I+ALIy8/hAtapU2fQ0NCED3/kPnzzmz/G7bfcisply5Pujs1mhdGYA41Gg66uWGqdQpH6C9ZwMAhhxIasvIGoNm/Qh9dqDiAUCSXdnkzuKBfLscQsgNdoQBP6EQj7xz2dOCTDpuJdMOXkjrqv2WyG22VFtkGPaut5tDlboFMrYNCmznHcBtEOM5IACVgzclimt1GRKLD3RCz1ir3QKMqV4msfzIFWRWlumRiZUzVe/OzxPgRDUagVQnz83UZsXK7EKC8fMtGEOVOnLxDFN37bjeoWPzfJ/88PmMhnbM6MLnWECBABIkAEZhIBErDSPBq+KIK/fxSirZshXMV8mJgQIUK02wr4/BCUxFaGY+XckQsQCGR8xb2ZWAJeLxQaERYxMS7NJeDz4/jeE8jOLR7Ve0pjMMLvDyLgdUCh0sAbCEMqFEAql6Gt2wyjXguRWITX39iDbVu3QqNRI8J8qqJMOwxDKBLxmC6FUgCBWAWr1YxF5SU80svl8ECji8LaF0YoGIVYnlpqZG1tDa68ciNfjbCurg75+fkTImRpbUbZKtMgBkdazqLD3jWh+jJxUL6mGDKxAu6Ak3thJVNUDiN2bLgOMtnoaYGNjQ3I0qngj/pwsPMtnjpZkKODVELPqskwnu37kIA120cwze1n0Su/ebofB896eOoVSxe8Zr0aMjK9TjPpwdVZHGG8dMCJlw85EA4D65cqcc/1epQVzuy3axmFkmLlTZ0B/PxxM1q6g1hUJMVH7sjmCwxQIQJEgAgQASJABNJPgASs9DPF/38RFw1EAbMZgqJcRJ0eICKEgBtVBwedsK2uFRazCwqVNgMNmXiVbFU/lVaCksqFE69klCPDoTCqT9VCLFFBIBh7+XP292g0FskmEIoQjcRWA2e/IxqBQCzH0ZOnsG3TBnjdzsH7MZPfaBR+rwvabBUWLGZi2fBG2cwuhKCHKIWUThbVxdJE8/Ly0dvbA4/HA50udUN3lk7ns7ajcPGAsOnwuPBmw2FEorG+TneRieVY7JABwQAu6pJbkRBRAZYq12Np+YpRm89SMNvampBvMqLT3YIL/ef5aoS5WSxTiAyap3vcM31+ErAyTXgW1d/eG8QDT/Shrs2PfKMYH70zG5ULyRRvKoewqtmPh5+1oKs/CKlYgPfdaMA1V6h5ZBaVkQmEI1GcrffhF0/0weYKc582NndppUGaMUSACBABIkAEMkeAPLAyxVaCwCtvoTUERCwWCJdUAIZYepREIsbChQWXT9xa1wKHxQepTImZ4PERCvoRhRdL1y2bkEH5WESZD9WFoxchlqghlkz+BaVEqoBcpYLbYeerDY5W/B4P9CYFCksLh/Up8v9f9jdf7IK+sCwl4aS3txtlZYshkUhQX1+P7OyJeYT5XE4YsiOQKwdeeB9tOoN2Z3emJmeK9QpQGNEjt9uGulIdrO4+iFh02zgik8Kvw44VN4yZXtnU1ASlTAi5QobjvYdh91thytJAKZ/83Eixk7T7FBMgAWuKgc/U0+075cZvn+mHyxPBFUsU+Mid2dCqSDSZjvHy+iPYc9yN//uHlZ+eRWF9+I4sLC2ZmWHi08Eo8Zx/ed2Ov75uQyAUxV27dLj1ai0kYnr7Mt3jQucnAkSACBCBuU2ABKzMja/PF8KLj70EX48ZwhImWEX5ybKydLj++q2DTtzfZUFzbSs0emPmGpREzSwiSCj0YfHKxWkXr9jpa8/UIhQSQyye+uwEFlUmloRQsaoSgiHLWQd8QfR2hqAyZCVBKbaL3++DzW7HksolYL5YZnMfjMbUx495aPXUXMTSqwZSNa1eB/bVH0H4UvRZ0o3KwI4OuwNGXS6yNEZIRTJcaDkFsUQEhXJsb1pBVABToAyb1m3hgtdIhc23psZ6mIx69Pv6cLL3CIRCAQpz9HyldypzlwAJWHN3bJPqGVsR7+977HjyVRsUMiF2X6nCu3bqIZPShZ8UwAzu1NgRwN/esOPUJZP3GzZrcMs2LQpz6M0Cw84iBpkJ/oEzbmiUQrznHXrsXJ+aD0EGh4+qJgJEgAgQASIwpwlQCmEGhzciQOe5Fjz68uv47Of+FVarAz/4/u/wrW9/AirVcLNqW58VzbUdUCi0EEyDiWokHEIo6ELlmkpIZGn+nhoFmqob4XKEIJNP36I8wYCfi1ilS0q4l1Zi6W62Q6bLS2lCWK1WmEwmqNVqXLh4AdlZWZCl4Gnm97gR9juh0UmgzR7M5UTbebRYO1JqTyZ27u0xw5RrQlE0Bwurm3G00oAeazeysgxDF44cdnpRWIr1edtRmF80atP6+/u5obtBp0WV9SzanW3QquXI0k7fPMkER6pzMAESsObxjPD4IvjO73twodEPkRD4+v25lDI4A+fD0Qse/PKpfu5JxrzIPnxH9rxeDZKt2Hiy2otvPdLDR8tkEOM7/55HEYMzcO5Sk4gAESACRGDuEiABKzNjy6JqIo4QXvv1H9BbkId77rmZn+ib33wQH/rQnSguzuOr6A0tzNz83NFqaHQTS0ebTG+8bgtWbFw+arTMZOo2d/eju6V/WsWrxPb7PP1YuWnVoDQ4j9OP7jYPDPkD6Z3j9ZmZuDMBZsmSJXzXhoZ6ZGUlMXbRKCzmbmQbxNCbRn9x+3LVXniCvvGakdG/26w2KFUqSKNSLDdHYVlSgLquGh6BNVpkVWKDtJ487Np4/Zgph+fPn0dBXhZCCOBI936Eo2EsyE/dUyyjIKjytBKgy1MZAAAgAElEQVQgASutOGdPZczw+pdP9YFF+ZTkS/Dxu4woyk3zG5PZg2PGt7TfHsarh514bp+Dt3VFmRzvvlaH1eXza8lYqzOMh57px/EqL8IR4JZtGtxwlQY6Na06MuMnMTWQCBABIkAE5hQBSiHMzHBevNiMN59+FQ3dZhSWFECpjH3Xs1jsfKGfoqIcvPe9N0GhGO5T63a6UXOqAUq1jq+kl+nCxDafx4byVYugVKc/6sXc2YvO5r4ZZVQfDocQDLixeEXpoD73ttkgkBggTiGKym638/E1mXLR2trKPbHk8tEtQ1x9ZkhlYeiNCsgSfK9GGudacyvOd1VlegqMWT9L8+sz9yPHmAOTLB8SsRiNfQ0QSgGpdPxUUEFUiArZOiyrXDGqiMVM8bs6WpGVpUWTvR4N9lrIJRLkGsnQfVoHP4MnJwErg3BnYtWRKNDeE8R/P9wDiyOElYvk+Ni7skkAmImDNUKbmrsCeOQ5Kxo7AwiHo9hxhRp3X6dDrkGCaYgYnzJqbN6ervXit0/3o7s/hNwsMT5wiwFrKuaXgDdlwOlERIAIEAEiQATGIUACVoamSEgE5oH1o5/9Dp//3L1QXkoZbG/txt63T+Cee24aWzQIR3DxeMzsXCgSZ6iRbJG+KHxuJxavWgiVRpX28zisDjRcaIVKM/OiaVjfPQ4LFq8ug0bHVogEIuEIOprdUGeZUmJhNptRUVHBjzl37iwKC4uGiTUhvw9uSy/ySw2QKZIf09dqDsDpd6XUnnTvzAQsY042jKo8LD3agOZNy9HubEH0kq/beOeTh7TYXnk9VKrR51hzSzNUchHkMhmOdB+AI2CDKUsNpXx8kWy889PfZx4BErBm3phktEX/POjEn16yghmFMz+lu3br+Gp3VGYPAZ8/ivMNPvzqb/3w+SN8hcLNq5R43w2GOSlEdvUF8YcXrDhZ40UwFOU+V3dfp6eUwdkzZamlRIAIEAEiMAcJkICVmUGNHDoHu1iKPx86jk9+8p7LJ/F4fPjlLx/Dl7/8oXFPHAwE0VTViEhYljERy+20YvGKEmj0MQEnncXj9KD+bDNkKs24K9al87yp1MUFPK8TC8vzoTca+KH9nXYEIxrIxhBbhp7D5XJx0/vCwkKwiCyvxwNZQhSWtb0JxkItVDr5iKmjY7XZ7nNib/0RhCLhVLqW1n3jApZQIMSCoAHI1qPL1Q5/2J/Uebihu38Rtly5bdT9WaRXbU0VCvKMMHt7cKbvBCQiMQpztUmdg3aaXQRIwJpd4zXh1voDUTz1mg1P77HzlRnuuV4PZgpOZfYS8AUieG6vA/tPu2G2haHXiHD7di2PyjJoMh82nmlyLNLq1SNOvHbEBYc7jIIcCe7YocWWVao5HW2Waa5UPxEgAkSACBCBdBAgD6x0UBxahxShJ5+G+K47AFFwUicIBUNovNCEQACQytIbse5x2VBYmoucgpxJtXGkgz0uD+rPNUHGDOkFM/wlezQKl9OKwpJc5Bbn8u60VJmhMRWlZKbf0dHODd29Xi8UCiXEIhG8DjsQdiO/VD/hdNBINIKjrefQae9O+zhNpMIcVT50kMMecsLs70u6CmFYjCtytqO4aMGoxzBTfK/bDrVKgdN9x9Hn7YVerYBem965n3SjaceMESABK2NoZ1bFDzxpxp7jbqiVQnztQyYszKOQypk1QhNvDVtJ8v9esuH1Y05eiVQiwHvfYcDNWzWQzMLoukgEePGAA488Z7kM5a5dOty2XQsxLYs78YlCRxIBIkAEiAARSCMBisBKI0xeFRNr5Ii2d0JQFIvoSUdpvNgAn1cAsTg93/29bhZ1lAd9TvraGO8ni6S5cPQCZIr0150OlqPV4XU7oDMqUVJRgmAgjKaLHVBosqHOMiZ92mAwyD2wWOlpqkbl2gVpE/CeP/8mQpHJCaJJd2SMHRViBZa3BxFUKXBB50upTdqACbvXj50+e/rMKZQU5/FLaX/nmwhFgyjI0UE8wqIH6egP1TE9BEjAmh7uU3ZWfzCKnz5qxpELHhSZJPj4u7NRkp+eG9iUdYJOlBSBpo4AXj7sxJHzHvgCUb4634blSm5yXjwLDPqZp9frx1z4xwEnWroCkMuF2LFWhWs3qnn0FRUiQASIABEgAkRg5hCgCKw0j0UoivChUxBtuwqAH8eOnUdtbcuwk1RUlGDDhuVJn5yJQq11LXDaQpDJJxeN4ve6oM9RobisOKa3pbGwiLGaUzUQipQQiWff976AzwO5SoTFKxZxKj63H16nH05HGHKNAZJx2IeDQbgtZqi1QmTlaVKK4BpvGBr6WnG2s3pc3ymX0xVzpopGodFqYLVYoVQpIZMNXzBgvHOO9vcCeT4UQjlscKHfY066GmFEjDLxKqxasXrUYwKBANpaGmHKyUKDvQaN9nrug8X8sKjMHQIkYM2dsRzWk86+IL7/x160dgdRVijFV95vgkY5fNndOYxgXnatqz+Ev71hw7l6P0+9Y+W6jRrccY0W2VoxZNI0f+OYBOVoFHwxgUPnPHjsZSs8viiPIFteJsd736GfFcLbJLpPhxIBIkAEiAARmLUEZlIElq2/BWWLDJDJkje4nmngo619CL/1NsT33QUghNbWLpw/X8e0BGg0SjidHh6Rs2LFYixYkJ908/2+AM4cOANtlglC4cQtJkJBP1gm4qLlMYEmnYX5STVcaEAoKOV+ULO1BP0+CIQhVK5ZDJF4YC72tljhdvmgzi6ASCobFFkVjUQQCgTgsXaiZFny45oKI2/Qh731R+EJesc8rK+vH0ZjNpxOF1QqJXxeP9gqf4as9Bnpy8UKFIlN8IrC6HR3jCuqsQYLBSKIBELIgxpcWbYVOl32qP1oa2uBhq3QKAAOde+DN+RBjkENlYICOFKZMzN5XxKwZvLoTKJt9e0B/OBPvTBbQ1i/VImP3JlF4tUkeM62Q9mXnT57CAdOe/C3N+0IhaNQyITI0YuwZY0KN27WTrsJ+olqL14+6ERtmx82Z0xoW79UgX+5Vo98o5jSBWfbpKP2EgEiQASIwLwiMJMELGOWEi0tTTCZxNDOSs8bIcKHz0FYsQiCLPnlefTMM29g2dIyVC4pRU1VIy5WN+GOO3alNM8uHq+CUMT8QycuDAUDfgiFflSuWQJhBtKxas/UIBgQQSId6HtKnZxBO4dDQQQDTixZWwmpfCByiUXCBbxBdLTYIZOqoMo2IujzwWvrhalYA4VKBmTQ86vPbsH+1hNgvlijFRZxpdVpwSKxJBIxJFIpfF4vVGr1pOZP4vkkIik2nTKjc0kxGqXOEQUsAQSQieVQSFSQCaUImJvg7ayGp6sGKl0hrn/fw6P2wefzoerieSwuW4B+Xx9Om49BLBbwVEIqc4PArBWw/P4AnvrrSzDotVi4sAilJUXYu+8IBAIhyssXoqK8FHv3HQWbxEZjFtatXY7jJ86j32JFOBzBdbu3XM4znhtDOdCLE1Ve/OQxM5g30pXLlfjQrQaoFBO/ac01PvOtPy5PBK8ddeJktQ/NXQG+kh8rG5YpsGW1ChULZMjPFkMozGxkVp8thLaeIM41+HDwrAdsdUF2n87Ri7GqXI5d69UoLaS3I/NtflJ/iQARIAJEYHYSmEkphE57LyoqKtDW1gqZzAujkT1wZ/Z7TVpHLSgEmK4gY20O49SpKrBVB9988wi2bFkLmUwKny+AgwdPYefOjVAqFVi7dsmYTQiHQqg9wyK4pBBLJp4CFgmHEY36sPSKyrR2OV5ZZ1MnLD1uSBWTS2/MSOMmWCljFgl7ULqsBArV8H55nH7YeuwQSsXIW5A1wbOkftiR5nPocHSOemAoFAJbNZBFXNksdqi1aoSCQajUKogTIspSP/PAEXKRAgtERjgkEXS7OyEUCCARSiAWySAKBSD0OiH0eqAuWgGhRAF3x1lYqvdBqs2DJKcEYVkOVi7YgYK8glGb0dvbi3DQA6VShpPmY7D6+mHQKqBTz505NpkxmO3HzloBq6WlHT5/AJUVZXwMLlysQ36+CXqdBg///i+46cZrUFXVgN27NuONNw9i65b1eHv/MezetQVHj52BwaBD+eKS2T5+w9p/4IwHP3m0F5Eo8M6dOrxrpy6TYv6c4zeXO8TmBEspfPFtB14+5OJRWaywF3IquRCbV6mwZbUSq8sn/uH+9mk3fv+8BYuKpPjU3bGVaf74ohWNHX60dAURiUZ5KDwrJfkS3H2dASsXy5GBl3lzeSipb0SACBABIkAEpp3ATBKw8kzs+25MsHI6nejtbcSiRelfIS8z0AUI/3MvBCYThFcsZQZEOHToDJqbunH6zAVs2rSaR7+wCB62fe2a5SgpzcNVV43uBcTa2XChHgG/CCLRxP2kIpEwbH1d2HDNBojEE08/HI1bd2sXulr7oNLMLtP2ZOeB1dyOFVeugEo7MzyYzC4LDjSeQISrpSOX3h4zTLk5YGmdNqsdesPAtZVsv8faTy3VIE+dzwNKPBEv5GIl7HWHYK16A35LOyASQ1O8Cvlb388DUzxhL1x+O/whP0KRMHxeH/SRPFy/8dZRRTXW9vr6WuTlGBAMB7Gv83VEEeFRWJIMzON0cKE6kicwawWs02eqYLXaIZdJIZFKeMjlqhWVkEolePIvL2Jp5SIEQyGsv2Il3tp7hP88d74GV21ai+aWDthsDqxZzW4Sc6e8fMiJP71k5QLBv95swNVrWLjw3Okf9SR9BDy+COraAjhT68WZOh86zAMrkzCPrAKjhBunFxjFyNKJka0TQa8WgaULMI8qtrphOAL4A1H4gxGwKK+aFj+e22vHsjI5911zeiLwBSKXBassrQjLSuVYWiJDxUIZCk0SzKaXo+mjTzURASJABIgAEZj9BGaSgJWfO9ijx+VywdzbAVOuBCrVDE9L80URevLvEL/nLkB26S0fwMUq5oF1//3v5OIceyh/+Hd/x8pV5VzUGq2w/Vpqm+GyhyBlplUTLKyeYMCByjUVsWetNBdbvw1tdZ2QKbRprnlmVefz2FFQYoIxf2YIqmc6qtHY3zqq91RcwGIUrVYbDIb0+V+xeVwsz0No/7Nw69XQr7sVAqEIjqZjiLCHAqUOUYUWgWiQr1AYHLJyotfjgVgiQdATwsbC3Sgvqxh1sM1mM9xOG7KzdGh01KHBVguNUoZsvWpmTRBqTcoEZq2AFQiwpUbFYD+ff+ENLF68EEuXLIJcLsOfH3sWG65YCZvdiU0b1+DNPYew+ap1OHHyPLZsvgK1dc1gqxSsWD76pB+JpNXmhVYjQzAUgdcXhEGnQHxbiKnIniAM+tg2jUYWU5YTt6lliESicHsCA/uNsE2tlvGblNs9sJ9aFUutco2wze70Y//ZIP7wopX7HN17ow5ryyUw6OSw2n1QKZlQIICTHRvfppBAKBLA6RrYplSw8E0BHJe22ew+KEbcJoZYLILD6ef12Rw+yGViSCUisLawbXaHjxtpjrhNKoLdcWk/p5/vI5eJYLu0jdUr4dvEvG5WX2ybEHKZZGCby8+XRWXtZv1k+zldfoiS2eYOcCaMTfxYxpa9vFMppWNv8wTYyzGwMYkfy8aUCYeDtwX5OA7dxuaARj1wrMcb5HNFo5Zdro9tY3NKO8Y2vVYOnz+IYDDC5yVri14rg88fRiAYhm6MbexvbB+/PwSdVo7WLg8aOiJczGJphsxMnYlc8SitVD5ZmGgqFQsQigDFJgkWFUmwdbUauYZYv2PXALt+YvNTo5LyyKzEbXy+R6NwJew34jZlTLzm18VY833S14AQDtfAfFfIxBBLJngNSMWQypK5BobM9/g1IJeAXZv8ukj6GghAJBIMvlZSuAaYEaY68bpI4RpgY8vG+PK14g0iEp7YNeD1Bvnn78B8T/4a8PvD8CdcF0OvAda++DafPwR2fbFt7FyhYBjexG1qGULhMLzeEPSX5p1WLeXXC7t2L89tNt/DUbgTt40w31O6BuL3gUvnVU/JNcA86UTpuQacfsgkIsgSPvPZfWPk+8AI14BYyO9L8fmUyjXA7nmqxPvFNF0Dsc/81K8BNtd8vqGf+cldAzqtDIHAwGd+4nyP3wdSvwYiYNfklF4DI8z3lK4B4eDvPWw+JPddaORrgH1XiX/vSfq70AjzPelrIOnP/JG+CwV4St3w7z3JfRcaeh9g33vY555UMvE3pew7Urx099rAAiNiUVSCS9kDQggE8X3Y9tjv8ePYz0gE/IUaE7CYbUhzUyPKKyohEol4xFJdbQ3y8qXQ6SYu5KTyHWhC+4YkgM0OGFmUzkBkzLPPvon8fCM2blx1udrDh8+ip6cPt922c8RTMSbmzl70tNkgU0z8QZ3V43KYsfSKpVCOkAI3oX4mHOR2uHDhWBV02XmDDM0nW+9MPd7jsqOozITsPOO09zcYDuHNukNwBzxTiov5WhnEajiPPQONTAP1qhvgkUnhD3ngCbgRjsb8cMcq5p4+HhHGjOX10TzsXHMD1OrRo9uqq6uQZzIgjCAOdO7lolhutgYKWfoF2fHaTn9PH4FZK2DtP3ACublG5BgNOHrsLCoqStHfb8WC4gLufXXLzTvxz1f24pabduHNPQex85qr8MJLe3D9ddvw4ktvYsf2jdwba7YXfzCKh57px96Tbt6VL7wvh/sJUSECEyXAvNNYqqHDHYHZFkJPfwg91hD6bWH4/LGoKjbvmNgplwmhkAmgVQqhUojwxjEXPnCrAc2dMYHwX28yUBTgRAeCjiMCRIAIEAEiMIMJzCQTd4UMCIfDOHbsGKqrqvDpz3yGk2MiVn9/H9zOfpSUzUAT54gQ4ZffgujaHYBk9LSuZKdBd1s3etttkCsnl7LmdVmwaGUZ90BKdwkFQ7hwvBoKhS6jpuXpbvek6otG4fU4YTCpsWDxgklVlY6D6/tacLazOh1VJVUHE6ZNilz0vf0nSDVGSJdvhzPkGdNQfqSKWQCKw+6EVqeBRCJFhXwtVlauGbUNLpcTNnMvdAYNLL4enDSf4MEP+Ubt7PLIS4ry/NkpJmAJLo1h7CdLN2XvP9hcS/yfUeH/9niD0cS3IIlvQtjvif+zaAu2L7uBBEMC5Oem5+bB88APn4I/EMSVG1ZBqZDzCCu328vTBJnZYUtLB2rrm7FyeQXy8nJg7rPg7NkaFBfno6J89vtfOd0RPPK8BW+ddCFbK8In/sWIyoUTN2mcP9OeepopArWtAew75UKOQYzrNrI3HLPIQDVTUKheIkAEiAARIAJzkMBMSiF877/cjhtuvJFH6nd0duGLX/giBEIhsrJiL6utVivsti4UFaohlopnzGhEqlsROXUG4rtvAwSTE7D6uvvR3tANpXpyz1os5a2wNJdHC6W7+H0BXDhaBaVGD6Ew/Z5a6W5vuusLeN1QG+QoXlSUEU+xVNq7t/4o+j3WVA6Z0L5MPMiWG6EQCGC5uA+yJZth9VlHTWEc7ySWfiuysmOeaWKvCrtX3gylUjnqYVVVVcjN0fHsodPm4+jz9sKoV0GtpGfm8VjP1L/PWgFrpgKdqnaxKJmv/aYb1S1+bsD97X/P435FVIgAESACRIAIEAEiQASIQKYJzKQIrPvedxe+8fWv46c//Sn+/Oij+MxnPom+Piu+/rWvYe26dRwFW2Ht4sVzqKjIglw+E1KIxAi/cQCitSuBrNEfwJMZR5fdhfpzzVwYmkzxuBwoKsvJmF/T2UPnIJXruCn9fC3RKPOHdWPJ2un1Yra47djXeAyRJFL3JjpWLG3QpMyFQhbzObN5emHz2yZaHT+OBcrEF2xg/zZ5F2Prxm2j1sn2r625gII8ExwBO4507+f7FuXqeTQWldlHIFHAGoi2mgURWLMPdfpa3N0fwgNP9qGqyccjrv7jrmyYDCRepY8w1UQEiAARIAJEgAgQASIwFoGpF7D44+uIHlhiYRB/feoprFu/nqcRqlVKvO/e+3DPe9+Lx5944vJqZSyDo729FTKZDyaTdnpX6g6ImKoGKJnP7cBiOqnOOofVgaaqVsiVk1stzu91IytXg8LSglSbMO7+jHv9uTqEgsxDlCJfQkHmSefHohWLM2KQP+6AXBKCjjSdQ6erK5ndU96HCQsGkRrO488ha9ku+DV62P22CUdejdYAcUiGTcW7YMrJHbWNHe3tUMhE3GO5wV6FRnsjj8BikVhUZh8BErBm2Zgxb6JvPNSDps4AVi6S43P35ICtGkeFCBABIkAEiAARIAJEgAhMFYHpE7AGhKy4ibutvxGFRYvQ1dWNhx56iEdidXd34bvf/R5++MMfgq1IZjAYoNXGIkHM5l6Eghbk5mq4kf+Ul6gI4edegaCyHMKlCyd8+oA/gOqT1ZArJ+frG/B7odZJUFKZfouVaCSK1voWuOxhSKQkXsUHOxIJw+2wYvmGJZArp8+/+KWLe+EP+SY8B0c6kEVeZUm0sB/5OyQqA+SrdsPs7uMLbTFhi/nVsYUW0lVM4VJsXn31qJF9zDvr4sXzKFtYiEDEj6PdB+AP+1Fg0kEipiisdI3DVNVDAtZUkU7Dedp7g/j2Iz1gEVhXrVTiw3dk8VUHqRABIkAEiAARIAJEgAgQgakkMJMErDyTG31mN9weMYqLF8Lj8eC+e+/Fj3/yE3z961/H/fffj+PHjuGLX/rSZUQulws9Pa1YuEANsWRqMxmiNg9CD/8Zkk9+GJjgi2hmhn5q/0lodLkQTkIMCAb80OjFKF5UzH3D0l3aGlph7/NDKp/BK0Gmu9NJ1sdELL/Xgcp1FZDLp0fcqzM341xXTZItHn83Ll4pjbDvfxwSVRYky69Gh6UbEokETEhSa9SwWW1Qq1WQytLTZ2FIgjVZW1BSUjpqA/v6+hDwOaFRq9DpbseF/jM8hbAgh6W0ToOIPT5K2mMUAmMLWINTCVkVM8bEfT6NKFtl+EKTDw880QezNYTdG9S4//bJvWmZT/yor0SACBABIkAEiAARIALpJZBpAUsAISBgi0HxR5BLP1kKIfs19pP524TCQH6uh//dZvPAagVEAjG6e3tw8eJFVFfXQKNSwtxvwQMPPDAIgt/vR1NTA/LzZdDppkpgEQABESI2J4Qm5n0V72Pq49PZ1IH+XgdkMvWEVvRj4pVIEkT5ygoeHZPOwsbG3GlGV0sfFKpY5BuV4QQYJ6fNjMrVi6AxTM6AfyJ8/aEA3qo9Ancodg1NtiglaqjsFjiajkF1xa2w+iywWKwwZOlhtzmgUil5BBa79rS69M0LfTgP21bs5kLZSIVxbmyog8kY84k72XsE/b4+ZOtV0JCh+2SHfUqPHy5gCS+LkENXI+R3j5myCuGUUprmk52s8eLHfzbD44vgjh1avGuXDiJSiqd5VOj0RIAIEAEiQASIABGYvwQyvQrhRAQsNhrhcAQNDVaUli7Bq6+8jJbWNnzwgx/Evr1v4bp3XD9swNiDbVtbK4QCH4qKNVMwoDKEX3kTomt3AkL/pM9nMVvQcL4JuqzRPYBGPUnUg/LV5YNMsSfdoEsV2PpsaKnugkIzFUzT1erpqcfS245Vm1ZCqZkeTyZv0I9Xq99GeJKG7iz6aoFhMRCJwB1woM9r5kBZxJVWp4PDbuerASqUSng9HqjU6rTNPWFEhGWajahYVDnqIPb398Nh64Mx2wCb34JjPYdiUVgmHYQCisKantmf+lmZgCURC2LCFP+fBKzUKWbwiOf3OfDHl6zsFRPeuVOH27ZrSbzKIG+qmggQASJABIgAESACRGB8AlMZgcUeUhIjr0aLwIq3OhQMo7PTAZU6F2/teQv5BQXYvHnzmJ3iD7eOLhQX6SCWpM+fZ/BJBYhcaES0qQWim3YCgsj4oJPYw9ZvQ3N1GxTMyD2JNMBwOMjTqZasq4QsA6lrTLxqrmmDUqWfUGRYEl2eM7v4fU4sKM+HLmtyK0hOBkgkGsWRltPocvROuBqhQIhsqQ7SqAhihRadzjYEI7HFCdgKoObePuSYjOjvs0ChkCMYDCEr25A2AYudR+ExYMuynZe97kbqTG1tNXKyWTCIEBctZ3k6oUohhdGgvhznOWEIdOCUEBgQsOLpgnEBKy5oXYq6uiRKUgTWlAwLEApH8exeB/78DyvYF4T7b8vG1jWTW2J3ippOpyECRIAIEAEiQASIABGY4wQyLmAJWEpbLL2OPYCwMiBiJaYQCpCf6x6RdmeHC6GwDEVFxaMaPCceGAwG0dhYjdJSPaTSTIhYQoRf3Q/hulUQGNVpnSE+jw9VJ2ugVGeNKQqwiDPmu7TqquVpPX+8Mr/Xj5ozdZArpk+QyUjHMlCp1+1EbpEeeQvyM1B7alX2e2zY33B8QlFYLPJKI1HBtf8xqIrXwF9cgUB4cHRhV2c38gvyeKP6+vphNGan1sAk9y6XrsXKJWtG3dvjZn553TDoNXxFxP2dexAI+5Bn1EKaMeE6ycbTbkkRKIjsALMtHEgXHBCw4n5m8eis+P1D4PEGWdb5pRvJ4OVs2Ydi4v+RCNsvCrZ8ajDEbjBTn9ubFIkZttPDz1nw0n4HdGoRPvEv2ViyUI4kXqjMsF5Qc4gAESACRIAIEAEiQATmIoHMClixN+mjC1gx/ysmaMU8sEYWsBh3p9OPtjY3Fi1aDJls/NXemIjV0dEGrTaCrKw0vzz2sh4JIFAwcSyU9mnhcXlQdbwaSm0WRKLhxvQxv6U+LF1XAZU2/elqfl8AVSeqIFcakhIM0w5gFlXo87iQk69Dfsn0i1dxbIebz6DT0Z0yRYM8C64jT0MkU0O2cgfsQdewOqZKwJIHNLh6yfVQq0cWiNk1UFNTA1O2hvtltTqbUGO9CLlUgjwjpbumPPjTcEBMwBpIIWSi1UA6YexlBwlYUzgwXn8Ev3vWgjeOuWDUi/Dpu3OwuFg6hS2gUxEBIkAEiAARIAJEgAgQgbEJTJ2AxR5OYm0ZmkYYiQDhCMBWIRyrsBSm1lYXsrMLeXpRPKJrrGPa21shFmhLomUAACAASURBVHlhylWnaZUyEcIvvgHhujUQFGQuOokFDVSdqIVAKINYPGBozR7cfV4HFq8ogSoDXkvMmLv2TB2EAmVSaYzz+foK+r1QaEQoXVKa1FycClbN1g6c6ahGODIgrLJVA2Om6AIEAn4uSiaapLPrSCfVw3viJYSDHmg2vgvWgG0qmjv6OaIC5PrLsOmKLRCNsjon61dLUwPycrMRiUZwtOcAnAEHFpsWY7Fx5fS2n84+LgGnRQCxWHDpczn2kwSscbFlZge7K4xvPdKDhvYAcrPE+OaHc6FXZyJ8OTPtp1qJABEgAkSACBABIkAE5geBzJq4xyOwYiwT/ZWZEBMTswYisMYTsPj+kSh6ep0AdMjLSy7qxe12ob6+GsuWmSBhOSuTKBGrH5HHHof4w/cBGUlPHGgcE5NqTtVAKFRCeCkSi0VeVawug0afvpXfEnH0dZnR1tANlcYwCUrz4NBoFFJ5EAsrZ454FQyH8Er12wiEA5cHgF1fNpsNcrkc4VCYCwQsOlGpUkIqjQVXGBTZUIUFMJ9+CZorbkK/t5+n5U13EUckuKroHcgx5ozalK6uLqh5JCTgCDhwrOcg8rVFWFm4brqbn9T5e3p68fwzL0IqkeKu97wTSuVUraKaVPMyupPTKhhi4j5UwIq99Ii/qCAPrAwNR0tXAD9/og9NnQEsLZHhI3dkI884uRtlhppK1RIBIkAEiAARIAJEgAjMcwKZjMCK+ZjEU0EGg06MwmIP2SyFMBkBK15LX58LLpcYCxaUJJXmxh7aOztboJaHkJ07CfEnLAUcTvbUDyA95u1jTUEWddZc3QyfOwJm2l5QakJO/ugP9OmYzj3tPehsNkOp1s2YyKJ09CtddYSCTCDyo2J1OcSTFETT1Sa7z4WDTcfBViJMLEwEDQSC8Pt8/CczYGfWQAG/H0qlEnpFNnTyLH6I02+DxWOeEeJVvA+mSAk2rdgGsXjk52kWhXXxwjmUlRTxQy5YTkMglmBZ3hq+MqHdFcUrxwYEvaG877xaBrEI6HT48MSZTnxuW1nSQ/Kzt5u4zCcWCHB1WRbWFgz+XPnNkVZ8dOOCy/XV1dRz37Crtmzk2+pq69HTHTPcZ1FxbAGKa3Zuh1oTS5s8dfIM9rz+FjRaLRcht129BZs2X5l0++I7etwePPzQH2Ey5aC7uxtr163BylXLUV/XgCs3bUi6vv37DmLR4jJYLFb86oEH8euH/4cfe+L4KTz04CP47e9/lXRdfL6lJGBdErPIAyslxuPuXNvqx38+2I1wOIqlpXJ87h4jlHJmXEmFCBABIkAEiAARIAJEgAjMPAJTIWCNtLL9pQCsSx67sYWPUhGwGEm/P4S6OgvKy5dCJpMlBbenpweBQD8KC3WppxRG5Qi//iZE117DBYypLPUXG6BSyZG/sHBKTuu0OdB4sR1ypYZErATi0WgEwYADK65cMSXjkMxJQpEw9tYeh32EtD+nwwGFUgmf18uFK5aOx8RclVqFLKUBoar90CxYC2TlwezqnlHiFeu7MCzGKt0mlJWVj4qCXdOhgBtajRqhSAiN7kYsMi6FRCxEW28EX/j16KnJf/yKBgqZYJiAxT6fHjnWhidOd2JziQHf3F2OF6p68cD+JpjUUnz7ukrc+ehJbCjUceGKCVi1Zjc/Zn2xDl/buRgbfnUAuxcb8ZOblkIsFGCogHXowBEEA0GY8kwQiYTIzTPh2JET2HXtNTwy9WP/9kl8/yffgV4f8x7/7rd+iI9/6t/xv7/8DY+ms9ts+Ma3/wvnz13EE48+heIFRfjMFz6J3z/0JwhFQpw9fQ4f/tj9/DP2/NmLeOe7b+f1OOwOfPsb34f7/xvhf/zTH8Nfn/w7KivLUVJWgicf+ytfVfIrX/si+sx9eOCn/8Mj9b76jS/hK5//OvQGHW678xY88tAf8Y1vfZUb+v/8x79Ea0sbfvKLH+BnP/wF6usbsHb9Wnz4ox/Exz/yaeQX5EOhVOCzX/jkoJcNTqswIQIrZuY+3Lw9nnpOAlYynwUp7fP2aTf3vGLpg3fs0OH2HVrIJJcS/VOqiXYmAkSACBABIkAEiAARIAJTQ2CyAhZrZTwdsLvXxqMZYikfA94mAwJW/LvxQHpSPIUwGEpdwGLnDgbD6OxwQq3JRXZ2ciuisQe37u5W5OfLoVQmJ3yx/kTPNyDSb4Vo+/rLxvRTM0oxxsl4fo3VHp83CLliwE9rvLa77C7Un2uGgiKxOCrmS+Z1WbFs/RLIFMnOm/EoT+7v/lAAh5tPo99jHbEiZroulUkRCUegN+jh9XigUWthlKjhPPNPbkinWncTbCHXjBOv4h3SBXOxbeXuyymPI3W0rq4aeTmxSLKAIASRVMavl67+6IQErGqzC199uRZP3bMWj57qwPUVOeh1B7AiV42fv92MyhwV/lFjxkc3FWNPvQUr8jR48HALnnrvWvz+eBu2LDTgh3sb8X/vXn25uUMFrANvH8KFcxdx13vuhMEQS9l968192LHzatisNnzuU1/Cw3/6zeXr/jvf/AE++dmP4Qff+Qm+/f1vYP++A7DbHHj+2Zfwvw/9AkcOHUVWlgGvvvIG7v/IB2Dpt+CZvz2HT372P/CXJ/+O6os1fNXIe+57D2qqa2G321FQUIC2tnZs3roJrP7v//jbaKhvQJ+5H2dOncXd99wFm82Opx7/G4w5Rlx3/S54PF4eGdbd3YtPf/7j+J+fP8hTu//zG1/C+bPnsW79Wt7Gj/7H/fjxDx7A937033j0T09g3fo1WL5i2WUeLiZgSeJp5gMeWOyzNp46mJg+yA6kVQgn93kRu0BCUbx1woVHnrPwCOl3XqPHLdto5YM0oKUqiAARIAJEgAgQASJABDJMYCoFrEQBZsADKybOMAGro+oAf3Bh6UIiiYhHJUjlYhSVFUMqH3sxpNYWB2RyHXJycpNKKWSpVY2NDTDoBTDmJLOSnxiRQychWLIIAkMy+2d44FKovs/shcUa5j5IPp8L+fkKaDTJCTBsRcS6s/WQybWXfbhSOPWc2ZWb57ttWLKu4rJ4lQ5RcTKAWLTRqfYqtNm6xhRUrVYbDAY9REIxxGERlPYeWM7+E8rccihW7oY1YJ+x4hXjw6KwVug3YnFpxai4+vvMcLlsyNLrIJJIERQxb70IJOEqqFq3jXqcd3EbokL1sAisI602fOSZ89i0QI9wJIr/2rUYL9eYUd/nwYVeJz5wRRH2NFouC1glWQp8+Z812F6WhVAkivs3FHNBaywBi0VgZWdnobOrGyKhEEXFhTD39uHKTevBUoc/+qFP4Fe//Tm/bln5/rd/hP/41Efx2wcfwRe+/BlcvFCNI4eP4um/PIct2zZxgfW6G67FkYNH+X7dXT340+//zKOsmPcfM+4/fvQknn36edx4y/VwOpwoLCwE8wgsLSvFlz//X6hcUs4X2dh93U787amneToj+zzW6bV8RdS4gFVdVYO339qPlatXYNXqlXjxuX/g01/4BB568GEoVSrUVtfiG9/+Kn7z4MP46te/xM9pNBqxbfuWEQWsRPP2+AuQof5XJGBN5tMi4dhfPtWHPSdcYKunfOpuIzatVF7K9E/TCagaIkAEiAARIAJEgAgQASKQIQKZELCYnwt7CIp7YMUjsAYLWKxDcSN3IBiKwN5Zc7mXcYHL53Fw03KFanxzY6fTj7ZWN5YsWQrhKCuXJWKMG1y3tNRh5YoCiMSjW39E7QEIFApAyqLIBlZ4y9CwpK3aUDCE1rYQysrK4Pf7eRRLU1MjdJoIspMS7gBWR/Wpaogl2qTEwbQ1fgZV5LL3o2LNIqi1MX+ixsZeOB0hCITAkiUmSKVT73l8vqsOdWbmwzS24ToTsIpMhchS5iLoc8N2+nlol++CTRBEMBwY9/iZMAxyjx5blu6EThdLpxta2LXc0FCPbL0acoUSYpkC7qATosBFaDquHrULowlYdl8IN/3hGF67/0q83WTB5pIsfOv1Onzv+kp89Jnz2FGWhYMttssC1tZSA36yrwmPvHMl9jT2879/9JkLePidKyG79LkyNAKLGbj/7cm/47333s2jmlhEFkvzi6+6+Le/PMPTPW+7/Wa8+vIbcDodPH3vs5/4In72Pz/Cn//4ONZvuAKPP/oU/vu7X0NLcysWlhTjsT89OUjA2njVlWhr68C9//oeHD96Av948RW848Zr0dPdg7LSUrjcbqy7Yg0++e+fxY8e+D66OrogkTKx6wT362Kpp02Nzaivq8eWbZv5v5mAtXzFUvzqgV/jhz/9Ln70vZ/hljtuQk1VDW68+Xp8+fNf41FiX//Pb+HB3/2Cpxm+/0P3Its4ECXrsrEUwuFpg3ExiwtWl6J5L99DyANr4pdjvz2MB//Wh+NVXhj1Ivzb7dlYXR5TR6kQASJABIgAESACRIAIEIHZQGCyqxCyPg5NIWQCVjwNZPjPwVQSUwjtndXDkHk9TlSuLoVcmdz3bK/Hj45WF4pLK5L2xWLCTmdnMwx6CfSGkc4jQfjF1yDavg3QMKFi+ldoS3ZuWSxuRKNZUCgU3POGeYWp1Wp0dXVAKvEjx6RMqqqAP4Dm6iYEAyJIpMmNRVIVz4KdvE4bisvzkZWbzVPxWludMGQVcI6s1NXWomyRGtIMr0qZiKqpvwNnu6oQjoTHJCgTy6H0BxDqqoehcjuiYgmcPiscATsi0cwvQjBS49g1b7VYeXQPE0OYPxcTKti/4+LN0OMEEKBMugqrl4y+uqDX60VPdztyTSZI5Sp4Qx4E/R0IdD8yqt+dcsEXIBBK4fCH8JvDrfCHYkzuW1fIt+1rtKBIL8fNS0x4s6EfTVYP1hXocK7bCZ1cjM0LDWiyeFFiUMDuD+KN+n4UaGW4Y3ke9jdbUd/vxvvWFo7ogcXO43S6cO7Meb4YwNq1q7lwFC9MvNr31n60tbYjLz+XpxYy0/rf/eYP3LOKRc1cf+N13Bj+wL6D0Gg13D+LRVltvGoDXE4XTp08jW3bt2Lvm/vQ0trOI/Gu2Xk1j6p65u/PYefua3idzD+rq7MLB94+DJlchmvfsZML16+/tod/3F13w2709vTi+LGTPELM6XBh6bJKnDpxGqvWrMS+tw5g89aNeOHZf/BorcKiAp5W+Phjf8GVG9fzSLOrd2wdNKwumwjSSymEA0LVCCsPJpgoUgrhBD4w2e3KbA3hv3/Xg/beIMoKpfjqB0xQKcisfQI46RAiQASIABEgAkSACBCBaSSQjgisuIgV98BKFLCYMS97AhqIvhrug8UyGcJRwNp2cbiA5bZgybpK/lCVbOnpsUMmy4der0/JO6qtrQ1SqQcmk3qw35Q3ivCzL0J09+2AYGzBINk2TtV+iRFYFosFLHWSRWFptVq0t7fz/ubmJmd/woSH6lNViISl80bEYhGAeQuNMBWY+Fy6cKEHCxeWQ6VSoa+vjwuDbL7b7W0oGLIKXabGuM3SixPtZxAZsgomE3lYDi77TywQQyNWINrbgu7DTyCr8mqoVuyC2dMzbcJVnAcTAf0+P/yBAI8KNOXmIByO8GgjhWJ0cVQaUGN75fXQaEafr1UXL6CwKA8qlQ6RaBjuoIuflkX6TNZDbrLjOTQCayL1ORwO/OHhP+NTn/2PiRw+5cd8/zs/xle++oX4YrSDzu91iCESxTywBnteDRexYgcKyANrIiN48Kwbv33GApszjK1rVLjvRj20KtFEqqJjiAARIAJEgAgQASJABIjAtBKYCgEr0cR96IqE8Qgs9gRjbr4wjIXH1Y9l65dBKkvefJwJWApFITQaNRobG1FUVJxUNBZrC3tA7O9vx4JiDY+KiD15yRH1eCBQzs4Fmvp6XAiE1cjLy+P9Y0IBi8BgAp/Z3Au/34zi4pgB9niFRVW01rfB3u+FXDm7vMDG69vQv/u9LuiylVhQvoD/qanJDqOxiHsSWa1WLgbm5OSACYMisR3ZWZnn0evsx/G2c/CFBlbBFAqEMMizgYAHcpURIqEElnMvw9FwBPLsBVAv3Q6vXA5vyDsjogc9bjcXUVnEVDAYgkqtRjAQ4NuY4fyoJSpAtn8Btl6xfdRILeYd1dHehqLiYl5NMOyHL+zjEVhi0fQGnLCIKBbtlJWd3LU2EgfGq6W5BYvLF6U6nadlf2YWX7lkZO+ygEfCP13Hir4aiOCN7UcRWCkO4/NvO7hZOwt1271BjXtvNHC1kAoRIAJEgAgQASJABIgAEZiNBKZSwBopAoJ5ZbH/BYIobD2tHCFLK2LbWPF5HShdsjApT6s4/75eF9TaXC5a9fW1w+nwYWFJ2agPvUPHjQk89fV1WLzICPaIFTl6CsKtG2eV99XQPvV0OaFUZ/O0N5eL+fdGuEm+Wq2Bpb8fEokXGu34PmPxetvqWhAOz910wkgkDCZgLV4ZEwr6zG7uAcZEP4fdjlA4DJlMCqVSiaamJpSV6TN++QfCQZztqIE/7Lt8LgGEyJJnw3LqBfhtncjb9F5INEaE/TYgLEBAIoLTP7NM2tnKeVqdFiwtlQmpTqcTIrGIz83xnq0FzNDdtB5a7cheWAyM3+/jhuWsMH8wf8jLf7L5To/uGZ+mY56A3QNi3ohRhP2xFwSJEViJKxCyihLvGSRgpTB2Xn8E//u3fhw66+FLAzOz9lXlcog4fCpEgAgQASJABIgAESACRGB2EkiXgMV6391jg0gUvWT0HX9QiaWDDH4YiT3AxKKbBsSq+O8DKxTGTd6H/oyzHjCBH0x/9nhUzc5ZQ60mAkRg/hIYrIEkRtjGPucHf97HRajBKw3yPS+nDo4mXCWmnvM0QzJxH3/aNXUG8Nun+1HV7EdBjgT/dpsBS0vnl3Hh+JRoDyJABIgAESACRIAIEIHZSCAdJu7xfo8lYCU+xCRyikdaDQhZA+LT5fTCyyJXomA1kng1snA1cI7ZOELUZiJABIjA9BEYPSpuQMgaOU08/vJiJE+r8bcNTR/kkhcJWKNPhEgUqGry4bt/6IXHF0FxrgRfeb8JBg35XU3f5UNnJgJEgAgQASJABIgAEUgngamKwEpcGn1o+0cWsRKjs8YSrhIFr7HIUFRWOucN1UUEiMB8IDB6xtlgYSu2XzJC1ljRVkMjrmKEE6J4ScAafdI9/JwFrxx2IhCM4l07dbhtuxYSMaUMzofLlPpIBIgAESACRIAIEIH5QiCtAlavDcwnOeZxEkshTFyFcKQorFi6YDylMOaHlZheyP91SeEa+FtsdAZHVpFANV/mLPWTCBCBmUJgpCisIaLTZVVrcERWTPCKC1+xe8bwdPMhPlgkYA0f+D5bGP/71z6crPHCoBXh3hsM2LxKOVNmCLWDCBABIkAEiAARIAJEgAikjcBUCFiJDyWjGbmzfYYKVMmJV2MLV5Q+mLapQhURASIwTwmMZ64fewmRGIGVqog1IF4lClmDf6cUwmHT758HnfjL6zZYHGGUF8vw2XuM0KtF466GME/nMXWbCBABIkAEiAARIAJEYJYTSLeAxRY8ii+LHo/AGk3AYvuNFEUVW5VwuKA1ssCVOAAUhTXLpyM1nwgQgVlDYLToq8HiVaw7w6Ovxt526aghyhl5YF2aHE5PhKcLMvEqEgGuXKbAfTdlQacWzprpQw0lAkSACBABIkAEiAARIAKpEkiriXuvja/YHUsbjKUSst/56lH8QWTAuDcuUrH9hv4+NIUwts9gcSrRNyvVPtP+RIAIEAEikE4CI0VgDUn/G5ZKOFToSozCGnxsvKWzVsBiN7BwOMJvikLh5EQmfyCKL/6qC82dAYiEAnzsXVnYslqVztGkuogAESACRIAIEAEiQASIwIwkkIkILPb9nAlMQwWs4R5Yce+r+Jv8RJFqwBcrLnLFhK3BhYSsGTmtqFFEgAjMCwIjC1exrg8WpIalAw6KrhpfvOI1zkYPLCZe7dl7BAa9Fg2Nrbjphh1QKOQTmh4vvO3A39+0w+oMY+UiOe65QY+SfOmE6qKDiAARIAJEgAgQASJABIjAbCOQKQFrINpqIAJr6EqEcUErGmUPL4NXE0x8thkpdTCR83CfK0olnG3zkNpLBIjAbCEweGG7sf2xhopYQyOrxvv7YCazUsDy+wM4cPAkdl6zCadOX4RSqUBlRWlSo93RG8Sxix5IJUJUNfuw75Qb7KZ97UY17rnekFQdtBMRIAJEgAgQASJABIgAEZgrBKZHwIpFVyUumR7jOSA8xfyxKOJqrswz6gcRIALzgcDoEVnDF/BIUbwSCGZnBJbX68PpM9W4atMatLR2wmKxYe2aZePOhvbeIP74ogUfuDkLv/prPy42+ZBvlOBL9+UgxyDmS/5SIQJEgAgQASJABIgAESAC84lAJgUslkKY6HsVj8AaLFwxkWrwg0yiJ1biWIwXiTWfxo36SgSIABGYuQSGi1Oxtqa6/dJRl8K8ZmUEls/nx7HjZ7Ft6wZcrKrnPVq2dPG4Y8cir1zeCDatUOK/ft2DbksQ//n+HBTliCCXi+HzhSCTihGJRhEMhi9vk0rF/O3P4G0intc/oW0SEW9rIOEcEklspcNAYOC8k98mQCAQutwPVp9QIIA/YZtYLOK+X5e3+UMQi0QQiQTw+y8d6w9DLBJAJBJe3ub3h/k+yW4Ti4TwXaqPHcu+zEjEI2yTCPk4sPHwB8K8vZKEbYwP+8Iz0W0MMou+i5+D1ceKVCoa2BaMcCfRxG3BYITPgWS2sfkjS6iPHTtom0yMYCiCSCQKmezSedm2cASR8OBtoXAE4YRtMpmYe7+NtC0UjkJ+qb74fux4uezS3ObHRhEKDcwxPt8jUQQTto0832fDNTB8vrO5MrFrQDhobvvm0jUAAaTSxGsgwt92z4RrIJX5TtfASPeLJK4BsYh//g67Dwz6zGf3gWm4Bkb4zJ/sfWDkz/zxr4FUPvNHujeMeB8Y+pk/wn0g49eAVIxwZIT7QFLfe2bnfWDo9x5JUtfA8O89qd4Hhn3vEQkgGe+70JRdA8O/9yhkQn7dp6N0XzJxj3nUMq/aARN3/ujC3qBf+j/+b/ZzZMFqsAfWaO0jD6x0jBzVQQSIABGYCIGxPLAG1zc8AmssQWvg2MTjZqWAFYlE8Mxzr+Ed127D08+8gttu2w2dVjMu7abOAP7vH1Z8/n05cLrD+MWT/fjex/K4cESFCBABIkAEiAARIAJEgAgQgckRmKiAFX8rnxhhNdLDDolVkxsfOpoIEAEikHkCyYhao0VijS16zUoBi3XJ6XKjvb0bWQYdcnONSY/B2Xovzjf4IZUIsHG5EsW5kqSPpR2JABEgAkSACBABIkAEiAARGJ3AWAJWTJCKPbSMtBrh8JfKyUVg0XgQASJABIjAbCCQnGgV78lILzFmrYA1G4aH2kgEiAARIAJEgAgQASJABOYTgfEErNFWIRzJF2VghUJGkFYVnE/ziPpKBIjAXCGQTDTW4L6OnGoY24cErLkyL6gfRIAIEAEiQASIABEgAkRgmgmkImANfkhJbTWq0bo5wqKF00yETk8EiAARmJsE0m3FNJZwFSdIAtbcnEvUKyJABIgAESACRIAIEAEiMOUEkhWwhqYQjmTinszDzJR3kE5IBIgAESACaSWQymc9CVhpRU+VEQEiQASIABEgAkSACBCB+UtgogJWYgohW92TlVQeauYvceo5ESACRGD2EZjo5zsJWLNvrKnFRIAIEAEiQASIABEgAkRgRhJIh4AV7xh7wImLWTOys9QoIkAEiAARSJrAREWrxBOQgJU0btqRCBABIkAEiAARIAJEgAgQgbEIpFvAGnouErRo/hEBIkAEZgeBdAhWQ3tKAtbsGHtqJREgAkSACBABIkAEiAARmPEEMi1gzXgA1EAiQASIABHIGAESsDKGliomAkSACBABIkAEiAARIALziwAJWPNrvKm3RIAIEIGpJEAC1lTSpnMRASJABIgAESACRIAIEIE5TIAErDk8uNQ1IkAEiMA0EyABa5oHgE5PBIgAESACRIAIEAEiQATmCgESsObKSFI/iAARIAIzjwAJWDNvTKhFRIAIEAEiQASIABEgAkRgVhIgAWtWDhs1mggQASIwKwhMUMCKIhgC8nN1s6KTrJFmswW95n4sX1Y+a9o8lxv65FMvIhyJ8C7m5+Vg5zVXDeru8RPnsHJFJWQy6VzGMGP6xlb0ee31A1ixogIF+SberhdefAMrVlSitKRoxrRzvjakqbkd7e3d2LZ1/XxFMGP6feToGSiVcv75xEptbRPMfRZs2XzFjGnjfG4I+yw7e64Gq1ctmc8YZmTfq6rqUVa2YNh9/dCRU1i2dDF0Ws2MbPdcbFRDQyta2zpxzY5NGeleTMASQCgUAIj9FAiEEAgAtiJV4v+sAQOrVLG/DW5SJlawykinqVIiQASIABGYEgLzRsDq6OhGW3sXNqxfjeaWdoTDYZQsLILb7eFCisViQ15uDrRa9ZSAn+8n+efLe3HD9dsvY/B6fWjv6IZCLkNhYR4XU0oWFkIoEnIBRSQSzXdkGe0/e+h7+tlXoVTI+bg4nC48/vgL2LZtPcoXl6CltQMCCFBWVgy73cmvn2gUyMnJymi7qHKAjc2f/vwMFAoZ3nnHOyAWi9Hc0gG/zw+lSoHiony0tHZCLpPCYNBBKpUQtgwSePmVvXB7fHwsWHn+hTf4w9eNN2xHa1sX/P4AF4HZvUWv10IqlaKvz4LcXGMGW0VVxwmw6+Xt/cexds0yiMUifj0w8ddkyobFYr88LuzfVKaWwNGjZ7ByZSWcLjdMOdlwOFyIRCI4cOgkNl65GsZsw9Q2aB6f7ZVX30ZDYyvef987IZezzyhr7Bqx2iGVSPh3r/b2LiiVCj5Wqd5XSMCax5OLuk4EiAARyDABgdcXjLIvfKywn0N/j29jPyMRtl/s52yLwIoLWCqlEgKhACqlAja7E+xFT0tbFzZeuQqvv3EQ97zn1oQ3QRmmP4+rM/t7pgAAHPlJREFUTxSw2BfYx598Adddu5W/OV+8aCFOnbqApUsWIxqNoKOzF7t3bZ7HtDLfdR6B9cYBfqKrt12JluZ2hMJh/m+324scUxacDjckEjF8fj8aG9twy007U/5Sm/mezL0zMHF9776jWLCwkItULIr04d//Be+683qwSMXKijIcOnwKpaXFWH/FCvr8yvAUYAKWy+XBTTdeA6FIhGeefQUatRqLyhagq6cXK5dXYv/BE1haWYZINIriojzU1bVg7dplGW4ZVR//HsMELBbZq1YruYj43POv4+ptG/D0M6/i3vfdgbf2HuZCfaoP5UR4cgTiAhb73Nq2dQOqaxoRDIZ4JBAJWJNjm8rRLrcHe/YcRmFhLuRyGcoXL8Shw6f5NXLy1AV+zezbdxS33LwTb+w5hN07NyMrS5/KKTBRAWukaCuKwEoJPe1MBIgAEZjzBFISsOJi1mwSsMLhCEQiIeIC1sqVS3DuXC08Hg8UCjmP+CkqyoPRmIUnnnoR/3LXjRAKhXN+4Ke7g48+9izKy0t5M9iXqD17DqGiogz+QAAatQq9vf3YsuUK/ibwVw/+GZ/99Aenu8lz+vxxAWtR6QJodWo0NbahpKSIp0YVFOSiuroBdrsDJpORC8BKhQKVFbHxo5JZAmfPVaO5uYOLh/39Nrz3PbfgH//ci5tu3IGubjPOn6+FzebAzTddw9+WU8ksASZg5ebmcBGLRcWx+0VXlxnX7NiIc+dreUQJG5dbb96FI0dOQ6fXIDtLj/xLqbmZbd38rZ1xjz/ojiZgnT5bhRuv34HDR07zCC1KUZ+a+cIidlkUNQlYU8N7vLMcOHgC3d1mHrHLot/Zy8NEAYt9pjFx8e5338R/mnKyJiVgDaQLjp9CSALWeKNHfycCRIAIEIE5L2A98+yr3F+JPYhbrXbuhcW8MVhaR1NzGxdImJCiUilIwJrC6yExAsvj8fIIk3dct41/mWKi44GDx3HVpnX8S++Tf3kJ//ahd09h6+bfqeIC1pUbVqO+rhkutxvLlpbz66alpQNXbVrLIxbZNcQELL1OS95YUzRN9rx1GDu2b+QP5y/98y1s27Ier795ELffuhvMG6uzsxddXb24/bZrKaJkCsaECVhr1yzHm3sOQSQW8fvLkSNnYDBoYTQaUFZajH+8vJdHKLLPtZ6ePtx2624e6UAlcwRYSlRFeSlyc7Nx8tRF/pO9pGKi7ssv78OO7Veitq6ZX0tHjp7GmtUkYGVuNAZqZsLig795DB++/24cO34W69Yux9FjZ3ikL4sc1WjUFIE1FQNx6RxMTHz2udfxzjtjKdCvvb4f26++EgcOnuTXxiuvvY2igjycOHUe995zO06fqeJ2DpOJwCIBawoHmE5FBIgAEZgHBOa8gNXY1AZmusuEkGt3b0Z3lxkXquqRZdDxt+TlixZi+fIKErCmeLInCljcdPdsDeobWrjR566dm7Hv7aMIhcI8BYc9sJPXUmYHKC5g7bpmM5586gWsXr2U+14wASvgD6KppR06rRodnT08tZM9qJO5e2bHhNXOBF0mlLB0NVbq6pu5F9nho6ehVauY8y2u3b0FL7z4JglYmR8Ofoa4gMU8+9j4LF2yCIePnMHSJWU4evwc8vOM6Ouz4dZbdvEHduYpc/Ol8ZuiJs7L0/T09mHPW0cgFAhw9dVX8nRblv7EzPq8Xj92XrOJBKxpmhksErGlrZNH/OzccRUXR9paOnma+rJl5SRgTeG4sBeGLE1w65bYgiBHj53l4jvzievvt3JP2A3rV/GoXvbySiaTYdOmNfw7cyolMYVwuIA1OBKL1RuPvKIIrFQo075EgAgQgflJYBwBi333i1z2xpqNKYTzc1ip10SACMxlAi+/sg/vuO7qYas1zeU+z7a+sfslS1VjEVlk4D7bRo/aSwTmLwH22cV9F4sL0NNjxpo1y3g0Yyqlx2yDSBhffTC+6mBcuCIBKxWWtC8RIAJEgAgMJpCCgDUgZs0mDywacCJABIjAXCPA3pYz7z4qM5dAU1Mbzl+s46mEVIgAESACs4kAi4Bn6YbMD4v5L6ZahgtY/6+9O3+SurzzAP7pORgYmOGQQ0RuBQ9UIMolIAjBxHgkm62tjVXZrf2/Nvlla7OVdZMtNRsRRVCOCQgEwQhyCAoolxzDIXP1bHU3TXfP9AzMMMT+Ni+qdJju7/fbn+f1eX7x7fM8XZNdYZ/5k0oJsAbq6XoCBAgQKAgMKsDK/N+Z9o6IyZMGtqQYPAECBAgQIECAAAEC1SuQCbDqavMrrzI/8wFW/rXctsGeWwdtIazeOWFkBAgQGCqBOwiwum9uI8yvwMr9FGANVQs8hwABAgQIECBAgEB1CBQCrMK2wdwKLAFWdXTYKAgQIPDDCZQJsDLFZEKr7mxVme2CuXOwBFg/XJt8MgECBAgQIECAAIHKFzhz7nLU1RZvFyyswCpsJbQCq/I7qUICBAhUnkCvACsbX3UXAqzM3zMhVibUyoVZuX/aO7ptIay8fqqIAAECBAgQIECAwA8mkAuwClsIM6FV4dsI82dhCbB+sAb5YAIECCRYYMABVj7IEmAluOtKJ0CAAAECBAgQIHAPBPIBVn7boADrHiB7JAECBO5TgX4CrIxIYcVVfuVV/mdbZgXWRIe436fzxrAJECBAgAABAgQI9BLIBFj1daWrrkpXYGXeyx3knjsXK/cIh7ibTAQIECBwO4EeAVZxaNUzwCo9A0uAdTta7xMgQIAAAQIECBC4vwTOnGuN+rrSM7ByAVZpaCXAur/mhdESIEBgKARKAqxsZJU946pneJV7rXgVVltH2gqsoeiAZxAgQIAAAQIECBCoEoGz51uzZ2AVf/Ngz8Pb86utildd9VyBVW5FVpUQGQYBAgQIDFKgbIBVHGQVDnQvHOaeea2tPR0P2kI4SHa3ESBAgAABAgQIEKg+gUyAVW4LYW67YPFKrNJtgwKs6psLRkSAAIGhFrgZYGUjq+yzM+FUcYDV1zlYbe3d8eDE5qGux/MIECBAgAABAgQIEEioQCHAqrm1bbDctxBmhlcIrQpnYeWHbQVWQieAsgkQIHAPBbIBVs/gqneQlT/MPRd0pdP5FVgCrHvYG48mQIAAAQIECBAgkCiBc5kVWPWZ8KpwSHsqVQizCsGVA9wT1VjFEiBAoAIEigKsXDhVvAIrH2SVrsrKXZM5xH3S+KYKGIISCBAgQIAAAQIECBCoBIHz312JujLfQlgIrnIrr6y+qoRuqYEAAQLJEugVYOVDq54/Cwe454Kuzq6IkY0NMbyhLlkjVi0BAgQIECBAgAABAkMucP37jrjR1h61NYXtgbfbPlhuq6Dtg0PeGg8kQIBAVQjcCrBKA6tcSFX6bYT587EKq7S6umuiaeSwqKutze5x94cAAQIECBAgQIAAgftLIPPfDO0dnXH1envU1eTO0y2ssio+uD2/bdD2wftrhhgtAQIEhkagbIBVGmb1DrJuHeyePfQ9FR2d3ZHuSg9NRZ5CgAABAgQIECBAgEAyBFIRtTU1uW2D0V3+mwYzWwaLDm0vXmFlBVYy2qxKAgQIVIJAjwArG11l6yp3Flb+9b6/qTB3f/HKrdw9+aHmn91z6LcuqAQTNRAgQIAAAQIECBC4zwRKt1MUdlfkXs/93nMFVe/VVaWHt+fvLRzonntW8eulzLYP3mfTznAJECAwAIGSAKs0uOo/zOr/sPfSIKtciFVcYyHgGkDlLiVAgAABAgQIECBAYEgEyh8HUhpe9RVklQZSxaFWubCq9zbC4gEIsIaknR5CgACBqhQoE2AVB1flgqjCCq1CiFV6XX4FVl/BVe/AygqsqpxdBkWAAAECBAgQIJAQgb5WYGVjq+wY8quwegZZPVdU9fV7YQVX7pk9QzPhVUKmijIJECDwAwn0CrByoVMhUOoZUhW/n/tmwv5Crvyoym0dFFr9QD33sQQIECBAgAABAgT6ESiEWf1vJSwEUXcSWjn7yqQjQIAAgbsRKBtgDTTEyl2fC7LK/73wXnGxtg7eTevcS4AAAQIECBAgQGBoBfraSlj6evHqqd7fKFgIqsp/22BfK62swBraXnoaAQIEqk0gdaOts7t4xVV+gMWBVHGgVRpUlQusildv3XraLTfbB6ttChkPAQIECBAgQIBAdQjc6TbC3Gj7D6rKh1fltg6WPqs6JI2CAAECBIZeoM8AKxdaZf9dFD7dbmthucCq762CVmANfUM9kQABAgQIECBAgMBgBcqvwMpGTD3OrOr79763CvY+9ypfp9VXg+2Y+wgQIHD/CGQDrFxYVT5o6j/E6hlwlf5eCMF6v37/EBspAQIECBAgQIAAgSQLFB/ifityyv6lOPDqGUKV/i68SvIMUDsBAgQqQeBWgNV/iFUabvUOtcoFWX2HVrYRVkLr1UCAAAECBAgQIECgNJC69VvpbsIipnJB1J2vzurpbeWVGUiAAAECdypwRwFW/mE9V2n1DLL6uq5nMbYO3ml7XEeAAAECBAgQIEDg7yvQ9zbCQh3lg6fe4dbtAqrbvf/3HblPI0CAAIFKFigJsG4XQPUdWGXu7L0Fsa/rKxlEbQQIECBAgAABAgQI9BboO2wqvz2wv3BKcGWGESBAgMBABcoGWNk4qp9lUv0FU0KrgbbA9QQIECBAgAABAgSSJtDXmVblzssqHZvwKmm9Vi8BAgQqQ6DPAOt2IVZx+f2FXX0Ns5CP9f0thZVBpAoCBAgQIECAAAEC1S5QOPTqTrYQ9tS401DqTq+rdm3jI0CAAIGBC/QbYA0sxMpePfAK3EGAAAECBAgQIECAQEIF+v52wcGGXAmFUDYBAgQI3GOB2wZYAwmxytVauhNRwHWP++nxBAgQIECAAAECBIZQ4PZbAu/kw6y8uhMl1xAgQIBAfwKp7gHs/xvApXesfi+eeccf7kICBAgQIECAAAECBLIC9yJkuhfP1C4CBAgQuD8FBhRgFRMJnu7PCWPUBAgQIECAAAECBPoTEFqZHwQIECBwLwQGHWAJs+5FOzyTAAECBAgQIECAQPIEhFbJ65mKCRAgkDSBIQmw8oO2Kitp7VcvAQIECBAgQIAAgcEJCK0G5+YuAgQIEBicwJAGWIMrwV0ECBAgQIAAAQIECBAgQIAAAQIE+hYQYJkdBAgQIECAAAECBAgQIECAAAECFS0gwKro9iiOAAECBAgQIECAAAECBAgQIEBAgGUOECBAgAABAgQIECBAgAABAgQIVLSAAKui26M4AgQIECBAgAABAgQIECBAgAABAZY5QIAAAQIECBAgQIAAAQIECBAgUNECAqyKbo/iCBAgQIAAAQIECBAgQIAAAQIEBFjmAAECBAgQIECAAAECBAgQIECAQEULCLAquj2KI0CAAAECBAgQIECAAAECBAgQEGCZAwQIECBAgAABAgQIECBAgAABAhUtIMCq6PYojgABAgQIECBAgAABAgQIECBAQIBlDhAgQIAAAQIECBAgQIAAAQIECFS0gACrotujOAIECBAgQIAAAQIECBAgQIAAAQGWOUCAAAECBAgQIECAAAECBAgQIFDRAgKsim6P4ggQIECAAAECBAgQIECAAAECBARY5gABAgQIECBAgAABAgQIECBAgEBFCwiwKro9iiNAgAABAgQIECBAgAABAgQIEBBgmQMECBAgQIBAZQh0tcWBlu2x48j5qBs5LpauXhazx48YfG3d7bH7rXdj7KpXY9aYmpLndF/5Jv53Z3u8vmZG1N7mE9ounYpPD56JzqiNyY/MiZk9amo9sD2OjlwQC6b1X+vlgy1xeMT8eHZ66XXfHf883t56OIbVpCJV3xAr1yyM47sOx+I1y6L+dsXdpvZ028XYtKElTl5qj8lPLYm18x+MVHdHtGzYGEfOd8a8FS/EwmmNcfbzPbF578m4UdsUa19eGQ81Dbv55K74YvtHMXbeipjYXD/4XriTAAECBAgQIHCXAgKsuwR0OwECBAgQIDA0Aod2tcS50Y/GotnjI9XWGt9cqY1pE0fe1cO72toihjVEbar0Md0Xj8e/b/o+/u0fHo+6m2+dPbg39o14OtZOL4Rd504cj+/SjVHX1hrt6doY1ZCOG6nmmDNjwq0Hnt/9XhxsWhbL5zT1W+t3ez6I/SMXx6q5pdedPrw/jo56LJ6fXAiIOjs6oq6+LrZu3xvLli2ImvTZ2PTuqVjx8oKo6zGW/j6068q5aE2NjjEj0vHxmxvi4Z+9Gs2H3o2TY5fF/GnDYtNb2+KRl1ZGzfnLMXHqhOi8eCLWH0rFL5ZNjczHfHNgX2zZezSW/+TlmDK24a564WYCBAgQIECAwN0ICLDuRs+9BAgQIECAwBAJdMXH72+JFT9elQ1O8n9aTx+L9Zs/i67aEfHU8uXxRM2h+EPL5ajvvhqdDRNi3YtPxEdbjsbatU/FiOiI7Z8cisfHXopdX1yLGyMmxtQrx2LMmtdjzPn9sX7HiWgaPSrOXn8gfvViU/z2nS9javONuNLVGD97+cnY+oeN8VX36Ji3cGGsfHJSRKTjyBfHY2Lnl3Fs1KKYN2V4dKbq4tvjx2P67Fm36swHWM9PvRrr39sbl9u7Y+6yFTF/Um3s/nBzHLqYjnFTH49nhh+LL0Y+F881nYrdZ0fGygXTs8M8fXhfHKyfGYsn1UekUtHQkI5PNu2OCY3tsWHfmRg/cXyMqu+ML49divEPPxorl06Kv3y0N65318XcRcti4Yz6+Hj91rjalo4LbcNi9aur4+HG0pSru/NqrP/9jpj/jyvi6z++GVNeeSMebkrFqW3vxKmHfxyLpg/P1tJ65mi0nG6Kl56ZGOmOC7F17/mYlj4e9XNeEGAN0Uz3GAIECBAgQGBwAgKswbm5iwABAgQIEBhSga74eMOWWLGuOMDqjp2bt8S8FStjeNeF2Pj2nlj03NjYeKQpfrFmTlw4uDs+uj4jnm3fFycmPhfz03+Nz7ueiNmd++PI8Kdj0eym2P3mH2PMqhfjs3f3x6pfrY7Ga9/Gb9efjl+/NC7+48/n4tf//Fy0fvlpfDNmTkw5fyD2Dn8mXpqZ37eXjqOHvooH2o7EqbFL4/HJmQCrJhtgTZvVO8BaPjMd+/Z9FdduXI8vro2Ll2e1xV/aZ8QrTzRFur0jLn22Of58fFhMnzUzFs2bGiNuLqU6ffjT2H1ldDw5ri5StXXx4OSm2PnBrliybmVs37o7Vqx8NmrSp+P9d07F6td+FLu3/CUeWbo4Hqhpi5aN2+KZVc/Fts2fx4vrlsSVA9tjW/vj8bNnxhZ1pzMO7WiJKxOfioUzG2Pn796Mh197I6aMSsU32/8UJx5aG4tnDI/2iydj47avYvGaJTG29np8+O6emLf2+bjx2YdRJ8Aa0tnuYQQIECBAgMDABQRYAzdzBwECBAgQIHAPBPZv3xq1jyyIuRNGRqqzLVrbIg7t2hFPrVgZDZkA6609sWjR2PjwaHP8/MVH48LBXbH52qz45VNdsemDv8W1y92x9JerI3Xk4zg7dmE8NrmhKMD6W6x+44UYcfXb+M360/EvL42L/7y5hfDCsb/FV42zYvrFA7EjNS9enZs//ynim2NfRmr0uDhz5Ghc6aqP2bMmxJXWdMx9dMpNge44tf3d+OrBF2LO2Q1xYvLamDfuRvzPzouxZnpb7OyYGS8/Piq6Ozri4v7N8f6JETF60oOxYsHMaGrIBWW9thB2X48t732SDbC2ffxJLF+1KOrSZ+P9t4/FqtcXZwOsOUsXx7iiAGtny9FY9cKCuHZkZ2xsnR2vLXwgV193Vxz96844FtNj9YKHojaVqfetuDRtbTwxuT5a3tkYk178acyovxQfbTkYc5cviSmNqbhx4dtYv/VADKuviavnTkXNA0/Gup/Oj+bSo8TuwSzwSAIECBAgQIBAeQEBlplBgAABAgQIVIRA143WbDjz+anLkRo+Ohavfj4md52JDVsPRrqmPh5f8nw8WXMw/mvb5WgediPa68fHunXPRnNdKg7v2BzHJyyKH89qjEuHW+J889PxyKSG2P/2n6Jp9WvRfPbT+GD3NzFyVGOcvDI2/vUn4+K/t7TFG688Gpe+/iJONk6PeQ2X4+23tkf9I/PjlSUzs1sEu9Nd0XruZBw6fiE6oybGT5sRMyc1R11N9t04tGV9tJwZG6++tjhGf/91/N/GA1E/clRcGjYl/mnFpNi7aUscudQVox96LBY2fR2HGp+NZ8ddiG1ffB8vLp2b/YxzRw/GsebZsWhC/gysG7Hjwz2xcNWyOLG3JbYeuhwvrFseV/Zvj0/P1MaSRY/E/k8+i7bumpj1oyXx7KyGaGk5EsuWPR3fH9sdm1tnx0+fGZPtaeelg/Gb3+2JxjGjoiaViieWvhDPTKmNj977KE5eScesBUti6dzm2P3738Wuq03R3FgfqcaH49XXF0bTzV2IJ/dsjtpZy2LymEKwVxETRhEECBAgQIDAfSUgwLqv2m2wBAgQIEAg2QLp03tjw1cT4ieL8yugMuPpiD0f74zHnl8WjT1Pa88OtzvOHz0QJ6/VRPrGtbjQOCPWzHug5KytZKuongABAgQIECBQ/QICrOrvsRESIECAAAECBAgQIECAAAECBBItIMBKdPsUT4AAAQIECBAgQIAAAQIECBCofgEBVvX32AgJECBAgAABAgQIECBAgAABAokWEGAlun2KJ0CAAAECBAgQIECAAAECBAhUv4AAq/p7bIQECBAgQIAAAQIECBAgQIAAgUQLCLAS3T7FEyBAgAABAgQIECBAgAABAgSqX0CAVf09NkICBAgQIECAAAECBAgQIECAQKIFBFiJbp/iCRAgQIAAAQIECBAgQIAAAQLVLyDAqv4eGyEBAgQIECBAgAABAgQIECBAINECAqxEt0/xBAgQIECAAAECBAgQIECAAIHqFxBgVX+PjZAAAQIECBAgQIAAAQIECBAgkGgBAVai26d4AgQIECBAgAABAgQIECBAgED1Cwiwqr/HRkiAAAECBAgQIECAAAECBAgQSLSAACvR7VM8AQIECBAgQIAAAQIECBAgQKD6BQRY1d9jIyRAgAABAgQIECBAgAABAgQIJFpAgJXo9imeAAECBAgQIECAAAECBAgQIFD9AgKs6u+xERIgQIAAAQIECBAgQIAAAQIEEi0gwEp0+xRPgAABAgQIECBAgAABAgQIEKh+AQFW9ffYCAkQIECAAAECBAgQIECAAAECiRYQYCW6fYonQIAAAQIECBAgQIAAAQIECFS/gACr+ntshAQIECBAgAABAgQIECBAgACBRAsIsBLdPsUTIECAAAECBAgQIECAAAECBKpfQIBV/T02QgIECBAgQIAAAQIECBAgQIBAogUEWIlun+IJECBAgAABAgQIECBAgAABAtUvIMCq/h4bIQECBAgQIECAAAECBAgQIEAg0QICrES3T/EECBAgQIAAAQIECBAgQIAAgeoXEGBVf4+NkAABAgQIECBAgAABAgQIECCQaAEBVqLbp3gCBAgQIECAAAECBAgQIECAQPULCLCqv8dGSIAAAQIECBAgQIAAAQIECBBItIAAK9HtUzwBAgQIECBAgAABAgQIECBAoPoFBFjV32MjJECAAAECBAgQIECAAAECBAgkWkCAlej2KZ4AAQIECBAgQIAAAQIECBAgUP0CAqzq77EREiBAgAABAgQIECBAgAABAgQSLSDASnT7FE+AAAECBAgQIECAAAECBAgQqH4BAVb199gICRAgQIAAAQIECBAgQIAAAQKJFhBgJbp9iidAgAABAgQIECBAgAABAgQIVL+AAKv6e2yEBAgQIECAAAECBAgQIECAAIFECwiwEt0+xRMgQIAAAQIECBAgQIAAAQIEql9AgFX9PTZCAgQIECBAgAABAgQIECBAgECiBf4fsg87UbE6HhcAAAAASUVORK5CYII=;" parent="S4qOi2kV9IJ2QXHu5ZDw-44" vertex="1">
          <mxGeometry x="6" y="30" width="464.53" height="194.33" as="geometry" />
        </mxCell>
        <mxCell id="S4qOi2kV9IJ2QXHu5ZDw-48" style="edgeStyle=orthogonalEdgeStyle;rounded=0;orthogonalLoop=1;jettySize=auto;html=1;entryX=0.529;entryY=0.01;entryDx=0;entryDy=0;entryPerimeter=0;" parent="1" source="S4qOi2kV9IJ2QXHu5ZDw-43" target="S4qOi2kV9IJ2QXHu5ZDw-44" edge="1">
          <mxGeometry relative="1" as="geometry">
            <Array as="points">
              <mxPoint x="1300" y="535" />
              <mxPoint x="1134" y="535" />
            </Array>
          </mxGeometry>
        </mxCell>
        <mxCell id="S4qOi2kV9IJ2QXHu5ZDw-49" value="" style="rounded=0;whiteSpace=wrap;html=1;fillStyle=auto;fillColor=none;strokeColor=#FF8000;dashed=1;strokeWidth=5;" parent="1" vertex="1">
          <mxGeometry x="840" y="240" width="560" height="560" as="geometry" />
        </mxCell>
        <mxCell id="S4qOi2kV9IJ2QXHu5ZDw-50" value="" style="shape=mxgraph.signs.tech.rss;html=1;pointerEvents=1;fillColor=#000000;strokeColor=none;verticalLabelPosition=bottom;verticalAlign=top;align=center;sketch=0;" parent="1" vertex="1">
          <mxGeometry x="880" y="280" width="80" height="80" as="geometry" />
        </mxCell>
        <mxCell id="S4qOi2kV9IJ2QXHu5ZDw-51" value="&lt;span style=&quot;font-size: 30px;&quot;&gt;Base Station&lt;/span&gt;&lt;br&gt;&lt;div&gt;&lt;span style=&quot;font-size: 30px;&quot;&gt;Diagram&lt;/span&gt;&lt;/div&gt;" style="text;html=1;align=center;verticalAlign=middle;whiteSpace=wrap;rounded=0;fillColor=none;strokeColor=none;" parent="1" vertex="1">
          <mxGeometry x="960" y="280" width="200" height="80" as="geometry" />
        </mxCell>
      </root>
    </mxGraphModel>
  </diagram>
</mxfile>
